<?xml version="1.0" encoding="utf-8"?>
<!-- Generator: Adobe Illustrator 19.1.0, SVG Export Plug-In . SVG Version: 6.00 Build 0)  -->
<svg version="1.1" id="Layer_1" xmlns="http://www.w3.org/2000/svg" xmlns:xlink="http://www.w3.org/1999/xlink" x="0px" y="0px"
	 viewBox="204.6 65.2 872.9 669.3" style="enable-background:new 204.6 65.2 872.9 669.3;" xml:space="preserve">
<style type="text/css">
	.st0{fill:#E9E9E9;}
</style>
<g>
	<path class="st0" d="M830.9,176.2c0.4,0,0.7,0.2,0.7,0.3c0,0.3,0.2,0.5,0.5,0.7c0.3,0.1,0.6,0.2,1,0.2c1.1,0,1.6,0.1,1.7,0.3
		c0.3,0.3,0.7,0.5,1.2,0.5s0.9-0.1,1.3-0.4c0.4,0.5,0.6,1.3,0.8,1.8s0.8,0.8,1.4,0.8c1-0.2,1.8-0.5,2.1-0.8c0.6,0,0.9,0,1.2,0.1
		c-0.2,1.4-0.2,2.1,0.3,2.5c0.1,0.1,0.4,0.2,0.6,0.2c0.7,0,1.4-0.6,1.9-1.1s0.9-0.8,1.1-1c0.1,0.5-0.2,1.1-0.7,1.5
		c-0.7,0.7-0.9,1.5-0.4,2c0.2,0.2,0.3,0.7,0.1,1s-0.2,0.7,0,1s0.5,0.5,0.9,0.6c1.2,0.1,1.9-0.2,2.3-0.7c0.4-0.4,0.8-1.2,0.8-1.6
		c0-0.2,0.6-0.8,1.6-1.3c0.4-0.2,0.8-0.4,1.2-0.4c0.2,0,0.5,0,0.7,0.3c0.3,0.4,0.8,0.5,1.3,0.5c0.6,0,1.3-0.3,1.8-0.8
		c0.4-0.4,0.6-0.5,0.8-0.6c0,0.3-0.1,0.8-0.5,1.2c-0.6,0.7-0.8,1.6-0.1,2c0.2,0.1,0.4,0.2,0.6,0.2c0.4,0,0.9-0.2,1.1-0.5
		c0.7,1.1,1.5,1.9,2,2.2c0.2,0.4,0.1,0.6,0.1,0.7c0.1,0.5,0.9,0.8,1.3,0.9c0.7,0.2,1.8,0.8,2.4,1.2c0.5,0.4,0.8,1.1,0.6,1.5
		c-0.2,0.5-0.6,1.3-0.9,1.7c-0.3,0.4-0.8,0.9-1.1,1.1c-0.3,0.2-1.4,0.8-2.6,1.3c-1,0.4-1.4,0.8-1.2,1.2c0,0.2,0.2,0.4,0.9,0.4
		s1.3,0.3,1.4,0.7c0.2,0.5,0.6,0.7,0.8,0.7c0.7,0,0.9-0.7,1-1c0.2-0.7,0.9-1.6,1.5-1.9c0.7-0.5,1.5-0.8,1.7-0.9
		c0.1,0,0.6,0.4,0.9,1.1c0.4,0.8,0.4,1.7,0.3,2c-0.1,0.2-0.5,0.4-1,0.4c-1.4,0-2.4,0.6-2.6,1.3c-0.2,0.6-0.6,1.6-0.8,2
		c-0.2,0.5-0.9,1.8-1.5,3c-0.5,0.9-1.1,2.4-1,3c0.1,0.3,0.2,0.9,0.2,1.3c0,0.4-0.1,1-0.3,1.4s-0.7,1.1-1.1,1.6
		c-0.3,0.4-0.9,1.1-0.9,1.5c1.2,0.5,2.1,0,2.7-0.3c1-0.6,2.8-1.7,4-2.6c1.3-0.9,2.5-2.4,2.7-3.4c0.2-0.9,0.8-2.3,1.3-3.2
		s1.5-2.1,2.1-2.7c0.6-0.6,1.9-1.1,2.8-1.3c0.5,0,0.7,0,0.9,0.2c0.1,0.1,0.1,0.3,0.1,0.5c-0.2,0.7-1.2,1.6-2.1,2.1
		c-1.1,0.5-2.2,1.5-2.5,2.2c-0.2,0.5-0.2,0.9,0.1,1.1c0.2,0.2,0.5,0.3,0.8,0.3c0.9,0.3,1.2,0.6,1.7,0.6c0.4,0,0.8-0.2,1.1-0.3
		c0.7-0.4,1.5-1.1,1.8-1.7c0.2-0.4,1.1-1,1.8-1.3c0.8-0.3,2-0.7,2.7-0.9c0.8-0.2,1.8-0.5,2.4-0.8c0.2-0.2,0.5-0.2,0.6-0.2
		c0.3,0.2,1,0.4,1.5,0.4c1,0,1.7-0.3,2.1-0.9c0.8,0.7,1.3,0.9,1.8,0.9c0.3,0,0.6-0.1,0.7-0.3c0.4-0.4,0.6-1.2,0.6-1.8
		c0-0.3,0.7-0.7,1.8-0.8c1.6,0,3.3,0.3,4.2,0.6l4.3,1.5c1.2,0.4,3,1.1,4,1.4c0.9,0.3,2,1,2.5,1.4c0.6,0.6,1.7,1.1,2.6,1.1
		c0.6,0,1.4,0.3,1.8,0.6c0.6,0.5,1.7,0.9,2.6,0.9c0.7,0,2,0.2,2.9,0.4s2.1,0.4,2.6,0.4c0.3,0,1.2,0.2,1.9,0.5
		c0.3,0.1,0.6,0.2,0.8,0.2c0.7,0,1.2-0.4,1.2-0.9c0-0.3,0.3-0.5,0.6-0.5c0.5,0,1.5,0.3,2.2,0.8l0.9,0.6l-0.9,0.7
		c-0.8,0.5-3.3,2.6-5.6,4.7c-2.2,1.9-5.5,3.7-7.3,3.8c-2,0.2-4.6,1.2-5.7,2.3c-1.1,1.1-2.2,2.7-2.4,3.5c-0.2,0.7-0.9,1.9-1.6,2.4
		c-0.7,0.7-2,1.8-2.9,2.7s-1.6,2.3-1.6,3.3s0.5,2.2,1.1,2.9c0.2,0.2,0.3,0.6,0.3,1c0,0.5-0.1,1-0.4,1.5c-0.3,0.6-0.4,1.3-0.4,1.9
		c0,0.7,0.2,1.3,0.4,1.7c0.4,0.7,1,2.9,1.1,5.3c0,2.3-1,4.9-2.2,6c-1.4,1.3-2.9,3.5-3.4,4.8c-0.2,0.6-0.3,1.3-0.3,2.1
		c0,1,0.2,2,0.5,2.8c0.6,1.4,1.8,2.9,2.8,3.6c0.8,0.5,1.4,1.7,1.3,2.6c-0.1,0.9-0.6,2.5-1.1,3.8c-0.7,1.5-2.5,2.5-4.1,2.6
		c-1.8,0.1-4.5,0.2-5.9,0.3c-1.9,0-3.8-0.3-4.9-0.7c-1.1-0.4-2.9-0.7-4.3-0.7c-0.3,0-0.7,0-1,0.1c-1.4,0.2-3.3,0.7-4.2,1.1
		s-2.6,1.6-3.8,2.7c-1.1,1-2.9,2.2-4,2.5c-1.2,0.4-3.4,1.7-4.9,2.9c-1.3,1-2.9,1.7-3.6,1.7c-1.6,0-3,0.4-4,1.1s-3.2,1.4-4.9,1.5
		c-1.9,0.2-4.6,1.1-6,2s-3.1,2.9-3.6,4.4s-1.3,3.4-1.7,4.2c-0.4,0.9-1.5,2.9-2.5,4.5c-0.9,1.6-2.6,4.2-3.8,5.7
		c-0.9,1.3-1.5,3.1-1.5,4.5c0,0.4,0,0.8,0.1,1.1c0.3,1,0.5,2.1,0.5,2.7c0,0.3,0,0.5-0.1,0.6c-0.1,0.2-0.1,0.4-0.1,0.6
		c0,0.6,0.2,1.1,0.6,1.5c0.4,0.4,1,1,1.3,1.3c0.1,0.7,0,1.2-0.3,1.7c-0.4,0.7-0.6,2-0.6,3.1c0,0.2,0,0.4,0,0.6s0,0.4,0,0.5
		c0,1.1-0.2,2.4-0.6,3.3l-2.1,5.2l-1.7-0.8c-1.3-0.6-3.4-1.1-4.6-1.2c-1-0.1-2.4-0.8-3-1.7c-0.7-1-1.8-2.3-2.3-3.1
		c-0.6-0.8-1.5-1.8-2.2-2.4c-0.2-0.2-0.3-0.5-0.3-0.8c0-0.5,0.2-1,0.5-1.5c0.3-0.4,0.4-0.8,0.4-1.2c0-0.2,0-0.5-0.1-0.7
		c-0.2-0.6-0.8-1-1.5-1.2c-1.3-0.4-2.3-1.1-2.4-1.4c-0.2-0.5-0.5-1.8-0.7-2.9c-0.2-1.3-1.6-2.6-3.2-3.1c-0.5-0.1-0.8-0.4-0.9-0.7
		c0-0.6,0.1-0.9,0.4-1.2c1-1.1,1.8-2.6,1.8-3.5c0-0.7,0.7-1.9,1.4-2.7c0.8-0.7,2.3-1.6,3.2-1.9c1-0.3,2.4-0.6,3.1-0.6
		c1,0,1.9-0.9,1.9-2.2c0-1,0.2-2.5,0.4-3.5c0-0.2,0.1-0.4,0.1-0.5c0-1-0.5-2.1-1.4-2.6c-0.6-0.4-1.6-0.6-2.7-0.6
		c-0.7,0-1.4,0.1-2,0.3c-1.5,0.4-3.5,1-4.4,1.3c-1,0-2.4-0.5-3.6-1.6c-1.4-1.3-3.4-3.3-4.6-4.4c-1.2-1.2-3-2.6-4-3.1l-1.3-0.7
		l0.5-0.3c0.4-0.3,0.6-0.6,0.7-1c0-0.4-0.2-0.7-0.4-0.9c-0.5-0.4-1.5-0.8-2.3-0.9c-0.4,0-0.9-0.5-1.1-1c0-0.5,0.4-1.2,1.2-1.5
		c1.1-0.5,2.3-1.2,2.8-1.8c0.5-0.6,0.9-1.8,0.9-2.9c0-1,0.3-2.7,0.7-3.9c0.4-1.2,0.7-2.6,0.7-3.1c0-0.4,0.3-1.1,0.7-1.4
		c0.3-0.3,0.5-0.8,0.5-1.3s-0.1-1.1-0.4-1.6c-0.4-0.8-0.6-2-0.6-2.7c0-0.4,0-0.6,0-0.8c0-0.8-0.1-1.8-0.4-2.6
		c-0.3-0.8-0.6-2.2-0.8-3c-0.2-0.9-0.9-2.1-1.6-2.7c-0.7-0.6-2.5-1.4-4.1-1.8c-1.3-0.3-2.7-1.2-3-2c-0.3-0.9-1.5-1.4-2.8-1.4
		c-0.4,0-0.8,0-1.1,0.1c-0.4,0.1-0.8,0.1-1.3,0.1c-1.2,0-2.4-0.3-3.1-0.7c-0.6-0.3-1.5-0.5-2.5-0.5c-1.4,0-2.9,0.3-4.3,0.8l-3.2,1.3
		c0.4-0.6,3.8-3,9.6-6.3c6-3.5,10.7-5.6,11.5-5.6c1.3,0,3.2-0.8,4.2-1.9c0.9-1,2.4-2.2,3.2-2.9c0.9-0.7,1.7-1.9,1.9-2.7
		c0.1-0.6,0.8-1.3,1.4-1.6c0.9-0.4,2.4-1.4,3.4-2.3c1-0.9,2-2.7,2.2-4c0.2-1.1,1.2-3,2.2-4.1s2.9-2.9,4.2-3.9
		c1.4-1.1,2.4-2.9,2.4-3.9s0.4-2,0.7-2.4c0.5-0.6,0.8-1.4,0.7-1.9c0-0.2,0.7-1.1,2-2.1s2.6-2.9,2.8-4.2c0.2-1.1,1.1-2.5,1.9-3.1
		c1-0.7,2.2-2.4,2.6-3.9c0.4-1.3,0.4-3.1-0.3-3.8c-0.4-0.4-0.4-0.9-0.1-1.1c0.7-0.5,1.2-1.8,1.3-2.8s0.5-2.8,0.9-3.9l0.6-1.7h1
		V176.2z"/>
</g>
<g>
	<path class="st0" d="M956.2,208.8c1.5,0,3.7,0.1,5.4,0.3c2.1,0.2,5,0.9,6.3,1.5c1.4,0.6,4.1,1.9,6,2.8c1.9,0.9,4.5,2.1,5.8,2.7
		c1.3,0.6,3.7,1.6,5.3,2.3s3.6,1.8,4.4,2.4l3,2.3c0.8,0.6,2.8,1.8,4.4,2.6c1.5,0.8,3.7,2.2,4.9,3.1c1.1,0.9,2.9,2.4,3.8,3.3
		c0.9,0.8,2.8,2.5,4.2,3.6c1.4,1.2,3.2,2.4,3.9,2.7s1.6,1.2,2,1.9c0.5,0.9,1.9,1.9,3.1,2.2c1.1,0.4,2.9,0.8,3.9,1
		c0.8,0.2,1.9,0.7,2.2,1.2l0.4,0.6l-2.3,0.6c-1.6,0.4-3.8,1.1-4.9,1.6c-1.1,0.5-3.1,2.3-4.6,4.1c-1.4,1.7-3.3,4-4.2,5.1
		c-1,1.2-2.2,3-2.7,4.2c-0.5,1.1-1.9,2.8-3,3.7c-1,0.9-2.4,1.4-3,1.4c-0.3,0-0.4,0-0.6,0c-1,0-2.3,0.6-3.2,1.5
		c-0.8,0.9-1.4,2.1-1.4,3l0.2,1.5l-0.7,1.8c-0.4,1-1.1,2.7-1.5,3.6c-0.4,1-1.1,2.2-1.5,2.7c-0.3,0.3-0.4,0.8-0.4,1.3s0.1,1,0.4,1.4
		c0.4,0.7,0.9,1.7,1.1,2.3c0.2,0.6,1,1.5,1.7,2.1c0.4,0.3,0.6,0.7,0.6,1c0,0.1,0,0.2-0.1,0.3c-0.3,0.5-1.2,1.7-1.9,2.8l-1.3,1.8
		l-1.8,0.8c-1.1,0.5-2.6,1.3-3.3,1.8c-0.6,0.4-1.5,0.6-1.9,0.6c-0.5-0.1-1.8-0.7-2.9-1.5c-1-0.8-2.3-1.8-2.8-2.3
		c-0.6-0.5-2-1.3-3.2-1.9c-1.1-0.5-2.5-1.3-3.1-1.9c-0.8-0.8-3.3-1.4-5.2-1.5c-0.4,0-0.8,0-1.3,0c-0.7,0-1.4,0-2,0.1
		c-1,0.1-1.9,0.2-2.5,0.3c-0.5,0.1-1.2,0.2-2,0.2s-1.7-0.1-2.3-0.2c-1.5-0.2-4.1-0.5-5.8-0.5h-2.3l0.3-0.8c0.3-0.7,1-2,1.5-2.9
		s1.5-2.3,2.3-3.2c0.5-0.6,0.8-1.4,0.8-2.1c0-0.5-0.1-0.9-0.4-1.3c-0.6-0.8-1.9-1.8-3.1-2.3c-1-0.5-2.3-1.4-2.9-2
		c-0.6-0.6-1-1.9-1-2.8c0-1.1-0.2-2.7-0.4-3.6c-0.2-1-0.7-2.8-1.1-4.1c-0.4-1.1-0.6-3.1-0.6-4.7c0-0.3,0-0.6,0-0.9
		c0-0.2,0-0.3,0-0.5c0-1.6-0.5-3.5-1.3-4.2c-0.7-0.6-1.4-2.1-1.6-3.3c-0.2-1.3-0.6-3-1-3.9c-0.3-0.8-1-2.5-1.5-3.8
		c-0.2-0.4-0.2-0.9-0.2-1.5c0-1.1,0.3-2.2,0.8-3.1c0.8-1.3,1.6-3,1.6-3.7s-0.6-2.3-1.2-3.4c-0.6-1.2-1.8-3.1-2.5-4.3
		c-0.7-1.1-1.7-3-2.3-4.3c-0.3-0.8-0.5-1.8-0.5-2.6c0-0.4,0-0.8,0.1-1.1c0.3-0.9,1-2.2,1.5-2.8c0.5-0.8,1.2-1.8,1.4-2.3l0.4-0.9
		l0.5-0.9c0.1-0.2,0.7-0.4,1.4-0.4c0.1,0,0.3,0,0.4,0c0.7,0.1,2,0.2,3.3,0.2c0.5,0,1,0,1.5,0c1.6-0.1,3.8-0.2,5-0.4
		c1.2-0.1,3.3-0.3,4.6-0.4C955.5,208.8,955.8,208.8,956.2,208.8z"/>
</g>
<g>
	<path class="st0" d="M1025.2,267.2c0.3,0,0.6,0.1,0.7,0.2s0.1,0.3,0,0.5c-0.3,0.7-1.4,2-2.4,2.8c-1.1,0.9-2.2,2.2-2.4,3
		c-0.2,0.7-0.7,1.4-1,1.5c-0.5,0.3-1,0.9-1.1,1.4c-0.2,0.7,0.7,1.5,1.6,1.9c0.8,0.4,2.3,1.1,3.3,1.5c0.6,0.3,1.4,0.3,2,0.3
		c1,0,2.1-0.2,3-0.4c0.7-0.2,1.6-0.3,2.3-0.3c0.7,0,1.4,0.1,1.8,0.3c0.8,0.4,1.8,1.5,2.1,2.4c0.3,1,1.5,1.7,2.7,1.7
		c0.2,0,0.4,0,0.6-0.1c1.4-0.3,2.6-1.5,2.7-2.8c0.1-1.2,0.6-2.2,0.8-2.4c0.6-0.5,0.9-1.7,0.9-2.6s0.3-2.1,0.7-2.6
		c0.1-0.1,0.2-0.1,0.4-0.1c0.4,0,1.1,0.2,1.6,0.5c1.2,0.8,3.7,1.6,5.6,2c1.8,0.3,4.4,0.6,5.9,0.6h5.2c1.4,0,3.9,0.4,5.6,0.9
		s4,1,5.1,1.2l1.6,0.2l0.3,1.6c0.2,1.1,0.6,2.6,0.8,3.5c0.3,0.8,0.8,2.5,1.2,3.7c0.4,1.2,0.7,3.3,0.7,4.8c0,1.6-0.2,3.1-0.3,3.5
		l-0.2,0.5l-1.4-0.5c-1.1-0.4-2.9-1.2-4.2-1.8c-1.1-0.6-3-1-4.4-1c-0.3,0-0.5,0-0.7,0c-1.5,0.2-3.5,1.4-4.4,2.7
		c-0.8,1.1-2.4,2.2-3.7,2.4c-1.4,0.3-3.3,0.9-4.2,1.4c-0.4,0.2-1.2,0.4-1.8,0.4c-0.4,0-0.8,0-1.1-0.1c-1.1-0.3-3.3-0.6-4.8-0.6
		c-1.4,0-3.3,0.3-4.1,0.8c-0.4,0.2-0.9,0.4-1.3,0.4c-0.1,0-0.2,0-0.2,0c-0.1,0-0.2,0-0.4,0c-0.9,0-2.2,0.8-3.1,1.6l-3.8,3.5
		c-0.6,0.5-1.6,0.9-2.5,0.9c-0.4,0-0.9-0.1-1.2-0.2c-1.2-0.5-2.4-1.8-2.6-2.8c-0.2-1.3-1.4-2.4-2.5-2.5c-0.2,0-0.3-0.1-0.3-0.2
		c-0.1-0.2-0.1-0.6,0.3-1.2c0.8-1,1.6-2.7,1.8-3.8c0.2-0.9,0.5-1.4,0.6-1.6c0.6-0.1,1.3-0.7,1.6-1c0.6-0.7,0.6-1.4,0.1-1.8
		c-0.4-0.3-1.5-0.9-2.4-1.2c-0.8-0.3-1.9-0.5-2.8-0.5c-0.3,0-0.5,0-0.8,0.1c-0.9,0.2-1.8,0.3-2.2,0.3c-0.7,0-1.6,0.6-2.1,1.2
		c-0.5,0.5-1.5,1.2-2.3,1.5c-0.9,0.3-2.8,1.3-4.3,2.1c-1.5,0.8-3.4,1.4-4.3,1.4c-1.1,0-3,0.4-4.3,0.9c-0.4,0.2-0.9,0.3-1.3,0.3
		c-0.2,0-0.6,0-0.7-0.2c-0.4-0.7-1.2-1.1-1.9-1.1c-0.1,0-0.2,0-0.2,0c-0.2,0-0.7,0-1.2,0s-1.2,0-1.7-0.1c-1-0.1-2.1-0.6-2.4-1.2
		l-0.7-1.1l1.2-1.7c0.7-1.1,1.6-2.3,1.9-2.8c0.4-0.6,0.1-1.6-0.7-2.2c-0.6-0.4-1.2-1.2-1.4-1.7c-0.2-0.6-0.7-1.7-1.2-2.4
		c-0.4-0.6-0.4-1.5,0-2c0.4-0.6,1.1-1.9,1.6-2.9c0.4-1,1.1-2.6,1.5-3.7l0.6-1.5l2,0.6c1.4,0.4,3.8,0.9,5.4,1.2
		c0.4,0.1,0.8,0.1,1.2,0.1c1.5,0,3-0.4,3.8-0.9c0.9-0.6,2.3-1.3,3.1-1.5c1-0.3,2.1-1.1,2.6-1.8c0.3-0.5,1.8-1.4,3.4-1.9
		c1.5-0.4,2.9-0.7,3.5-0.7c0.2,0,0.5,0,0.8,0c0.7,0,1.8-0.1,2.7-0.2C1025,267.2,1025.1,267.2,1025.2,267.2z"/>
</g>
<g>
	<path class="st0" d="M951.7,287.7c1.7,0,4.2,0.2,5.6,0.4c0.7,0.1,1.7,0.2,2.6,0.2c0.9,0,1.7-0.1,2.3-0.2c0.8-0.2,2.5-0.3,4.2-0.3
		c0.4,0,0.8,0,1.2,0c2,0.1,3.9,0.7,4.4,1.2c0.7,0.7,2.2,1.7,3.4,2.2c1.1,0.5,2.4,1.2,2.9,1.7c0.6,0.5,1.9,1.6,2.9,2.4
		s2.5,1.6,3.3,1.7c1.1,0,2.2-0.3,2.9-0.8s2.2-1.3,3.2-1.7l1.4-0.6l0.5,0.9c0.5,0.9,1.9,1.6,3.3,1.7c0.6,0,1.2,0.1,1.8,0.1
		c0.4,0,1,0,1.4-0.1c0.2,0,0.7,0.2,0.9,0.7c0.3,0.5,0.9,0.7,1.6,0.7c0.6,0,1.2-0.1,1.8-0.4c1.1-0.5,2.8-0.8,3.8-0.8
		c1.2,0,3.3-0.7,4.9-1.5c1.4-0.8,3.3-1.7,4.1-2c0.9-0.4,2.1-1.1,2.7-1.7c0.5-0.5,1.1-0.9,1.3-0.9c0.5,0,1.6-0.2,2.4-0.3
		c0.1,0,0.3,0,0.5,0c0.7,0,1.7,0.2,2.4,0.4c1,0.4,1.9,0.9,2.2,1.1c0,0.3,0,0.6-0.3,0.8c-0.4,0.4-0.8,0.7-0.9,0.7
		c-0.9,0-1.3,1.4-1.5,2.2c-0.2,1-1,2.6-1.7,3.5c-0.3,0.5-0.5,0.9-0.5,1.3c0,0.2,0.1,0.4,0.2,0.6c0.2,0.3,0.6,0.5,1.1,0.6
		c0.6,0.1,1.5,0.8,1.6,1.9c0.2,1.3,1.6,2.7,3.1,3.4c0.5,0.2,1.1,0.3,1.7,0.3c1.3,0,2.5-0.4,3.3-1.2l3.8-3.5c0.9-0.9,2-1.3,2.3-1.4
		c0.2,0.1,0.4,0.1,0.6,0.1c0.7,0,1.5-0.2,2-0.6c0.5-0.3,2-0.6,3.5-0.6c1.4,0,3.4,0.3,4.4,0.6c0.4,0.1,0.9,0.2,1.5,0.2
		c0.9,0,1.9-0.2,2.5-0.5c0.8-0.4,2.5-1,3.8-1.2c1.5-0.3,3.4-1.5,4.4-2.8c0.8-1.1,2.4-2.1,3.6-2.3c0.2,0,0.4,0,0.6,0
		c1.2,0,2.9,0.4,3.8,0.8c1.3,0.7,3.2,1.5,4.3,1.9l1.6,0.5l-0.4,1.5c-0.3,1-0.7,2.9-1,4.4c-0.3,1.4-0.9,3.7-1.5,5.2
		c-0.5,1.5-1.3,3.5-1.7,4.6c-0.3,1-1,2.4-1.4,3c-0.5,0.7-1.1,1.9-1.4,2.8l-0.4,1.2l-2.1-0.2c-1.4-0.1-3.2-0.5-4.1-0.8
		c-0.6-0.2-1.6-0.3-2.6-0.3c-0.6,0-1.3,0-1.8,0.1c-1.2,0.2-3.8,0.5-5.6,0.6c-2,0.1-4.6,0.6-5.8,1.2c-1.2,0.6-2.6,1.6-3,2.2
		c-0.3,0.4-1.2,0.8-1.9,0.8c-0.9,0-2.3,0.3-3.1,0.6c-0.7,0.3-2.5,0.7-4,0.8c-0.7,0.1-1.8,0.1-2.7,0.1c-1,0-2,0-2.7-0.1
		c-1.4-0.2-3.5-0.5-4.7-0.9c-1-0.3-2.2-1-2.6-1.6c-0.5-0.7-1.3-1.5-1.9-1.9c-0.5-0.3-1.5-1.1-2.2-1.7c-0.8-0.7-2-1.2-2.9-1.2
		c-1.1,0-1.8-0.1-2.1-0.3c-0.6-0.4-1.4-0.8-1.8-0.9c-0.1-0.1-0.2-0.1-0.4-0.1c-0.8,0-1.5,0.8-1.9,1.6c-0.4,0.8-1.6,1.8-2.6,2.1
		c-1.1,0.4-3.1,0.9-4.3,1.1l-1.8,0.3l-0.5-1.3c-0.4-1.1-1.5-1.9-2.5-1.9c-0.4,0-1.2-0.6-1.5-1.5c-0.3-0.7-0.8-1.1-1.5-1.1
		c-0.4,0-1,0.1-1.6,0.7c-0.3,0.3-0.6,0.5-0.9,0.5c-0.3,0-0.4-0.2-0.6-0.4c-0.5-1-2.1-1.9-3.6-2c-1.1-0.1-2.5-0.6-3-1.1
		c-0.6-0.7-1.8-1.2-2.7-1.2c-0.5,0-1.4-0.5-1.9-1.1c-0.6-0.7-1.7-1.5-2.6-1.5h-2.7c-0.9,0-2.3,0.4-3.1,0.8s-1.9,1.3-2.6,1.8
		c-0.6,0.5-1.6,1-2.3,1c-1.1,0.1-2.5,1.2-3.2,2.2s-2,1.7-2.7,1.7h-3.3c-1.1,0-2.1,1-2.2,2.3c-0.1,1-0.7,2.3-1.4,2.8
		c-0.7,0.6-2,1.7-2.8,2.4c-0.5,0.4-1.3,0.7-1.9,0.7c-0.2,0-0.5,0-0.6-0.1l-2.6-1l0.4-1.4c0.1-0.4,0.2-0.9,0.2-1.4s-0.1-1-0.3-1.3
		c-0.3-0.4-1.3-1.2-2.2-1.8c-0.7-0.5-1.4-1.5-1.4-2.2c0-0.9-0.6-2.2-1.4-3c-0.8-0.8-2.7-1.9-4.4-2.5l-2.3-0.8l2.1-1.9
		c1.4-1.3,3.3-2.5,4.1-2.7c1.1-0.3,2.9-0.8,4.1-1.2c1.2-0.4,3-1.5,3.8-2.5c0.9-0.9,1.9-2.4,2.4-3.3c0.5-1,0.2-2.4-0.7-3.2
		c-0.7-0.6-0.9-1.4-0.7-1.8c0.4-0.7,0.2-1.8-0.4-2.6c-0.4-0.5-0.7-1.4-0.5-1.9l0.3-0.7h2.9V287.7z"/>
</g>
<g>
	<path class="st0" d="M927.8,208.2l1.5,0.5c1,0.4,2.4,0.8,3,1c0.5,0.2,1.1,0.2,1.6,0.2c0.3,0,0.7,0,0.9-0.1c0.7,0,1.3,0.1,1.7,0.3
		l0.8,0.5l-0.3,0.6c-0.2,0.5-0.8,1.4-1.3,2.1c-0.5,0.7-1.2,2.1-1.6,3c-0.3,1-0.2,2.8,0.4,4.2c0.5,1.3,1.6,3.3,2.3,4.5
		c0.7,1.1,1.8,3,2.5,4.2c0.7,1.3,1.1,2.6,1.1,3.1c0,0.4-0.6,1.9-1.5,3.3c-0.9,1.5-1.2,3.7-0.6,5.1c0.5,1.3,1.2,3,1.5,3.8
		s0.7,2.5,0.9,3.7c0.2,1.4,1,3,1.8,3.7c0.6,0.5,1.1,2.3,1,4.1s0.1,4.4,0.6,5.8c0.4,1.4,0.9,3.2,1.1,4.1c0.2,0.9,0.4,2.4,0.4,3.4
		c0,1.1,0.5,2.6,1.3,3.3c0.7,0.7,2.1,1.6,3.2,2.2c1,0.4,2.2,1.4,2.7,2c0.4,0.6,0.3,1.8-0.4,2.5c-0.7,0.9-1.8,2.4-2.3,3.3
		s-1.2,2.2-1.5,3l-0.5,1l-0.5,1.3c-0.1,0.2-0.1,0.4-0.1,0.6c0,0.6,0.3,1.4,0.7,1.9c0.3,0.4,0.5,0.9,0.5,1.3c0,0.2,0,0.4-0.1,0.5
		c-0.1,0.2-0.2,0.4-0.2,0.7c0,0.6,0.4,1.4,1,1.9c0.4,0.4,0.7,1,0.7,1.6c0,0.3-0.1,0.5-0.2,0.8c-0.4,0.8-1.4,2.3-2.2,3.1
		c-0.8,0.8-2.4,1.8-3.4,2.2c-1.1,0.4-2.9,0.9-4,1.2c-1.1,0.3-3.2,1.5-4.6,2.9l-2.4,2.3l-1,0.3c-0.9,0.2-2.1,1.3-2.9,2.2
		c-0.8,0.9-2.4,1.9-3.5,2.2c-1.4,0.4-2.8,1.3-3.2,2.2c-0.3,0.7-0.9,1.5-1.4,1.9c-0.2,0.2-0.7,0.3-1.2,0.3c-0.3,0-0.5,0-0.7-0.1
		c-0.3-0.1-0.6-0.1-1-0.1c-1.2,0-2.9,0.3-4.3,0.7c-1.9,0.6-4.6,1.6-6,2.2c-1.3,0.6-3.2,1.3-4.2,1.4c-1,0.2-2.8,0.3-3.9,0.3
		c-1,0-2.3-0.5-2.8-1c-0.7-0.7-2-1.4-3-1.5c-0.9-0.1-2.7-0.1-4.1-0.1c-1.3,0-3.2-0.3-4.2-0.6c-0.9-0.3-2.2-0.5-2.9-0.5
		c-1.1,0.1-2.2,0.6-2.8,1c-0.5,0.4-1.2,0.6-1.6,0.6c-0.2,0-0.5,0.1-0.6,0.2c-0.3,0.3-0.4,0.8-0.4,1.4c0,0.5,0.1,1,0.2,1.4
		c0.3,1.3,0.8,3,1.2,3.5c0.1,0.1,0.1,0.3,0.1,0.5c0,0.3-0.1,0.8-0.3,1.2c-0.4,0.7-1.1,2.5-1.6,3.9c-0.4,1.3-2.6,3.7-4.8,5.2
		s-4.5,2.5-5.3,2.5c-0.5-0.1-1.2-0.1-1.9-0.1s-1.5,0-2.1,0.1c-1.4,0.2-3.8,1.2-5.4,2.3c-1.5,1-3.8,2-5.1,2.1c-1.9,0-4.5-0.5-6.4-1.3
		c-2.2-0.8-4.5-2.3-5.1-3.2c-0.6-1-1.8-2.6-2.5-3.5c-0.8-1.1-2.5-2-3.8-2.1l-2-0.1l-2.9-0.5l2.1-5.3c0.4-1.1,0.7-2.9,0.6-4.1
		c-0.1-1.1,0.1-2.6,0.5-3.3c0.4-0.8,0.6-1.9,0.1-2.4c-0.3-0.3-0.9-0.9-1.4-1.3c-0.3-0.3-0.4-1-0.3-1.4c0.3-0.7,0-2.4-0.4-3.7
		c-0.4-1.3,0.2-3.5,1.3-5c1.2-1.5,2.9-4.1,3.9-5.7s2.1-3.7,2.5-4.6s1.2-2.8,1.7-4.3c0.5-1.4,2-3.2,3.3-4s3.8-1.7,5.5-1.8
		c1.9-0.2,4.3-0.9,5.5-1.7c0.8-0.5,2-1,2.7-1c1.7,0.1,3.5-0.7,5-1.8c1.4-1.1,3.5-2.3,4.6-2.7c1.2-0.4,3.2-1.7,4.4-2.7
		c1.1-1,2.7-2.2,3.5-2.6s2.5-0.8,3.8-1c0.2,0,0.5,0,0.8,0c1.2,0,2.9,0.2,3.9,0.6c1.3,0.4,3.3,0.8,4.9,0.8c0.2,0,0.4,0,0.5,0
		c1.5-0.1,4.1-0.2,5.9-0.3c2-0.1,4.2-1.3,4.9-2.7c0.6-1.3,1.3-3.3,1.4-4.4c0.1-1.2-0.6-2.6-1.7-3.3c-0.9-0.5-2-2-2.5-3.2
		s-0.6-3.3-0.2-4.5c0.4-1.2,1.8-3.3,3.1-4.5c1.4-1.4,2.5-4.3,2.4-6.6s-0.6-4.7-1.2-5.6c-0.5-0.7-0.5-2.1,0-3
		c0.6-1.2,0.6-2.6-0.1-3.3c-0.5-0.5-0.9-1.6-0.9-2.4c0-0.8,0.6-2.1,1.4-2.8c0.8-0.8,2.1-2,2.9-2.6c0.8-0.7,1.6-1.9,1.8-2.8
		c0.2-0.7,1.2-2.2,2.2-3.2s3.3-1.9,5-2c2-0.2,5.5-2,8-4.1c2.3-2,4.8-4.1,5.5-4.6L927.8,208.2z"/>
</g>
<g>
	<path class="st0" d="M1005.1,328.5l1,0.3c0.9,0.3,2.3,0.8,3.1,1.2c0.8,0.4,2.2,1.1,3,1.4c0.9,0.4,2.5,0.7,3.7,0.8
		c1,0.1,2.6,0.6,3.6,1.1c1,0.6,3.2,1.7,4.8,2.6c1.7,0.9,3.1,2,3.3,2.5c0.3,0.7,1.2,1.7,2,2.3c0.8,0.6,2.2,1.2,3.3,1.4
		c0.7,0.1,1.7,0.8,2.1,1.5c0.5,0.9,1.6,2,2.5,2.6l0.8,0.5l-1,0.3c-1,0.3-2.8,0.9-4.1,1.4c-1.2,0.5-3.1,1.4-4.2,2.1
		c-1.1,0.6-2.6,1.4-3.3,1.8c-0.8,0.4-2,1.3-2.8,2c-0.8,0.8-1.4,2-1.4,2.7c0,0.6-0.3,1.2-0.5,1.4c-0.4,0.3-1.4,1.3-2.1,2.1
		c-0.5,0.5-0.9,0.8-1.1,0.9c-0.1-0.2-0.1-0.7,0-1.1c0-0.1,0.1-0.4-0.1-0.7c-0.1-0.1-0.3-0.2-0.6-0.2c-0.1,0-0.6,0-1.4,0.6
		c-0.9,0.7-1.7,1.8-1.7,2.6v0.6l-0.5-0.2c-0.7-0.2-2.4-0.5-3.7-0.6c-1.2-0.1-3-0.6-4-1.1s-1.7-1.3-1.7-1.7c0-0.6-0.4-1.9-1-2.9
		c-0.5-1-1.7-2.8-2.7-4c-0.6-0.8-0.9-1.6-0.8-2.2c0-0.3,0.1-0.6,0.2-0.7c0.3-0.3,0.9-0.6,1.4-0.8c0.2-0.1,0.4-0.1,0.6-0.1
		c1,0.1,2.2,0.2,2.9,0.2c1,0,2-1,2.6-1.8c0.5-0.9,1.1-2.2,1.4-2.8c0.2-0.7,0.6-2.3,0.8-3.7c0.1-0.4,0.1-0.8,0.1-1.2
		c0-1.2-0.3-2.4-0.7-3.2c-0.5-0.9-1.7-2.4-2.5-3.3c-0.7-0.8-1.4-2.2-1.4-3.1L1005.1,328.5z"/>
</g>
<g>
	<path class="st0" d="M778.2,245c0.8,0,1.4,0.1,1.8,0.3c0.9,0.5,2.4,0.9,3.8,0.9c0.5,0,1.1-0.1,1.5-0.2c0.3-0.1,0.5-0.1,0.8-0.1
		c0.9,0,1.7,0.3,1.9,0.9c0.4,1,2,2.2,3.7,2.6c1.4,0.3,3,1,3.6,1.5s1.2,1.6,1.4,2.4c0.2,0.9,0.6,2.2,0.8,3.1c0.3,0.8,0.4,2.1,0.3,2.8
		c-0.1,0.8,0.2,2.3,0.7,3.4c0.4,1,0.3,1.9,0.1,2.2c-0.5,0.5-1,1.3-1,1.9c0,0.4-0.3,1.7-0.7,3c-0.4,1.2-0.7,3-0.7,4s-0.4,2.1-0.7,2.4
		c-0.4,0.4-1.6,1.2-2.5,1.5c-1.2,0.5-2,1.5-1.8,2.4c0.2,0.8,1.1,1.5,1.9,1.6c0.5,0.1,1.3,0.4,1.7,0.7c0.1,0.4,0,0.6-0.1,0.7l-1.5,1
		l2.3,1.3c0.9,0.5,2.7,1.9,3.8,3c1.2,1.1,3.2,3.1,4.6,4.4c1.3,1.2,2.9,2,4.1,2c0.2,0,0.5,0,0.7-0.1c0.9-0.3,2.9-0.9,4.4-1.3
		c0.5-0.1,1.1-0.2,1.6-0.2c0.9,0,1.7,0.1,2.1,0.4c0.7,0.5,1.2,1.6,1,2.4c-0.2,1-0.4,2.6-0.4,3.6c0,0.8-0.5,1.4-0.8,1.4
		c-0.8,0-2.3,0.3-3.4,0.6c-1.1,0.3-2.8,1.3-3.7,2.2c-0.9,0.9-1.6,2.3-1.6,3.2c0,0.7-0.7,2.1-1.6,3c-0.6,0.6-0.8,1.3-0.6,1.9
		s0.8,1,1.5,1.2c1.2,0.4,2.4,1.5,2.5,2.5c0.2,1.2,0.6,2.5,0.8,3c0.3,0.7,1.8,1.5,3,1.8c0.4,0.1,0.8,0.4,0.9,0.7
		c0.2,0.4,0.1,0.8-0.2,1.2c-0.9,1.1-0.9,2.5-0.1,3.2c0.6,0.5,1.5,1.6,2,2.3c0.5,0.7,1.6,2.1,2.3,3.1c0.8,1.1,2.5,2,3.8,2.1
		c1.1,0.1,3,0.6,4.2,1.1l1.9,0.9l3.1,0.6v1.1c-0.2,0.6-1.1,1.2-2,1.3c-1.3,0.1-3.7,1.1-5.5,2.3c-1.8,1.2-3.5,3-3.8,4.2
		c-0.3,1-1,2.4-1.5,3.1s-1.7,1.9-2.6,2.7c-0.6,0.5-0.8,1.1-0.8,1.8c0,0.7,0.3,1.4,0.8,1.9c1,1.1,2.8,2,3.9,2.2l2.9,0.6
		c0.5,0.5,0.8,1,0.9,1.4c-0.1,0.6-0.4,0.9-0.8,1.1c-0.9,0.4-1.4,0.9-1.4,1.5s0.5,1.1,1.4,1.4c0.5,0.2,0.8,0.4,0.8,0.7
		c0,0.2-0.3,0.5-0.8,0.7c-1.4,0.5-3.1,1.5-3.7,2.2c-0.4,0.5-0.5,1.4-0.5,2.4c0,0.4,0,0.9,0.1,1.2c0.2,1.4,1.2,3.2,2.2,4.2
		c0.6,0.5,0.9,1.3,0.9,2c0,0.3-0.1,0.6-0.2,0.8l-0.9,1.4l-1.9,0.4c-1.1,0.2-3.1,0.6-4.3,0.7c-1.4,0.2-3.6,1.1-5,2
		c-1.3,0.8-3.6,1.6-5.1,1.7c-1.6,0.1-4.7,0.7-6.8,1.3c-0.9,0.3-1.9,0.4-2.9,0.4c-1.1,0-2-0.2-2.5-0.5c-1-0.6-2.2-1-3-1
		c-0.3,0-0.5,0-0.7,0.1c-0.9,0.4-0.9,1.6-0.4,2.7c-0.6,0.3-1.2,0.2-2.3-0.2c-2-0.8-4.4-1.8-5.1-2.3c-0.7-0.5-1.9-0.8-2.8-0.8
		c-1.1,0.1-2.9,0.4-4.4,0.6c-1.4,0.2-3.3,0.4-4.1,0.4c-1.1,0-2.2,0.7-2.6,1.6c-0.2,0.4-0.4,0.7-0.5,0.9c-0.1-0.1-0.2-0.3-0.2-0.6
		c0-0.5-0.2-1.6-0.4-2.4s-0.8-2.3-1.4-3.3c-0.6-1-2-2.5-3.2-3.2c-0.4-0.3-0.9-0.4-1.5-0.4c-1.3,0-2.8,0.7-3.8,1.8
		c-1.4,1.5-3.1,3.5-3.9,4.6c-0.7,1-1.6,1.6-1.9,1.6c-0.5-0.1-2.4-0.5-4.5-1.2l-6.9-2c-1.8-0.5-3.9-1.4-4.6-2
		c-0.5-0.4-0.9-1.7-0.6-2.9c0.3-1.2,1-2.9,1.5-3.9c0.4-0.7,0.4-1.2,0.1-1.6c-0.2-0.2-0.5-0.4-0.9-0.4c-0.2,0-0.4,0-0.5,0.1
		c-1,0.3-2.3,0.9-2.9,1.4c-0.6,0.5-1.5,2-2.2,3.3l-0.9,1.9l-0.8-0.3c-0.6-0.2-1.3-0.9-1.6-1.3c-0.2-0.4-0.2-1.8,0.2-3.1
		c0.4-1.4,0.2-3.1-0.4-3.9c-0.5-0.6-0.9-1.6-0.9-2.1s0.1-2,0.3-3.3c0.2-1.2,0.1-2.8-0.4-3.5c-0.3-0.5-0.3-1.3,0-1.8
		c0.4-0.8,0.4-1.8,0-2.4c-0.3-0.4-0.4-1.6-0.1-2.7c0.3-1.1,0.6-2.8,0.8-3.7c0.2-0.9,0.4-3,0.5-4.6c0.1-1.5,0.7-3.8,1.4-5
		s1.5-2.5,1.7-3c0.1-0.3,0.7-1.1,1.4-1.8c0.7-0.7,1.2-2,1.1-2.8c-0.1-0.7,0.3-1.7,0.9-2.3c0.7-0.7,1.5-1.8,1.8-2.6l0.5-1.2l1.5-2
		c0.8-1.2,1.9-3.1,2.4-4.3c0.4-1.1,1.8-3.1,2.9-4.3c1.2-1.3,2.9-3,3.8-3.9c0.9-0.9,2.1-1.6,2.7-1.6c1-0.1,2.3-1,2.9-1.9
		c0.7-0.9,1.5-2.2,1.9-3c0.3-0.7,1.4-1.9,2.2-2.7c1-0.8,2-2.3,2.3-3.4c0.3-1,1-3,1.7-4.6c0.6-1.5,0.6-3.5-0.5-4.4
		c-0.8-0.6-1.9-1.8-2.4-2.6c-0.5-0.7-0.3-1.9,0.4-2.5c0.9-0.9,1.6-2.5,1.6-3.7c0-1.1,0.4-3.1,1-4.3c0.5-1.2,1.9-2.6,3-2.9
		c1.3-0.4,3.7-1.2,5.3-1.7s3.4-1.5,3.5-2.4c0.1-0.6,0.7-1.6,1.4-2.2s1.9-1.3,2.6-1.5c1-0.3,1.9-1.3,1.9-2.3c0-0.8,0.5-1.3,0.8-1.4
		c0.9-0.2,1.5-1,1.5-1.9c0-0.6,0.3-1.3,0.6-1.5c0.6-0.4,0.9-1.2,0.5-1.9c-0.2-0.4-0.5-1.2-0.5-1.6c0-0.3,0.5-0.7,1.1-0.9
		c0.5-0.1,1-0.4,1.1-0.8c0.2-0.4,0.1-0.8-0.2-1.2c-0.5-0.6-1.4-1.5-2.1-2c-0.7-0.5-2.1-1.1-3.2-1.4c-1-0.2-2.7-0.7-3.8-1l-1-0.3
		l3-1.3C775.6,245.3,777,245,778.2,245z"/>
</g>
<g>
	<path class="st0" d="M977.5,310c0.4,0,1.2,0.4,1.7,1.1c0.6,0.8,1.9,1.5,2.8,1.5c0.6,0,1.5,0.4,1.9,0.9c0.6,0.6,2.3,1.3,3.7,1.4
		c1.1,0.1,2.4,0.8,2.8,1.5c0.3,0.6,0.9,0.8,1.5,0.8s1.2-0.2,1.7-0.8c0.3-0.3,0.5-0.4,0.7-0.4s0.4,0.2,0.5,0.5c0.4,1,1.4,2.1,2.5,2.1
		c0.4,0,1.2,0.5,1.5,1.4l0.7,1.6l0.2,2.1c0.1,1.4,1.1,2.6,2.3,2.7c0.8,0.1,1.6,0.5,1.7,0.8l0.5,0.8l-0.1,1.7c0,1.1,0.6,2.7,1.6,3.7
		c0.8,0.9,1.9,2.3,2.4,3.2c0.5,0.8,0.7,2.6,0.5,3.9s-0.5,3-0.7,3.6s-0.8,1.9-1.3,2.7c-0.5,0.8-1.3,1.4-1.6,1.4
		c-0.6,0-1.8-0.1-2.6-0.1c-1.3,0-2.5,0.5-3.2,1.2c-0.8,0.9-0.4,2.6,0.6,3.8c0.9,1.2,2.1,2.9,2.6,3.9c0.6,1,0.9,2.2,0.9,2.6
		c0,0.8,1.1,1.8,2.1,2.4c1.1,0.6,3.1,1.2,4.5,1.2c1.2,0.1,2.7,0.3,3.4,0.5l1.2,0.4h0.8c0,0.1-0.1,0.3-0.3,0.6
		c-0.4,0.6-1.5,1.9-2.3,2.8s-2.1,2.8-2.7,4.2c-0.6,1.3-1.7,2.9-2.4,3.4c-0.7,0.6-2.2,1.9-3.3,2.8c-1,0.8-2.2,2-2.4,2.6
		c-0.2,0.3-0.9,1.2-1.7,2s-3.2,2.5-5.3,3.9c-2.3,1.5-4.4,2.5-5,2.5c-0.7-0.4-0.9-0.8-0.8-1.2c0.1-0.9,0.1-2.2,0-2.9
		c-0.1-0.7-0.5-1.6-0.9-2s-1.1-0.8-1.6-0.9c-0.9,0-1.5,0.6-1.8,1.3c-0.2,0.6-0.8,1.1-1.2,1.2c-0.4,0-0.6-0.1-0.7-0.4
		c-0.2-0.6-0.8-1-1.3-1c-1.1,0.3-1.2,1.2-0.8,1.8c0.3,0.6,0.9,1.3,1.4,1.5c0.3,0.1,0.8,0.5,1.2,0.8c0.3,0.3,0.5,0.8,0.4,1.1
		c0,0.2-0.6,0.7-1.4,1c-1.1,0.4-1.7,1.2-1.4,1.9c0.1,0.4,0,0.9-0.2,1c-0.4,0.3-1.1,0.9-1.5,1.3s-1.2,0.9-1.7,1.2
		c-0.7,0.4-1.2,1.3-1.2,2.2c0,0.3,0,0.6,0.1,0.8c0.2,0.5,0.5,0.6,0.7,0.6c0.4,0.1,0.6,0.3,0.7,0.6c0.3,0.8,0.2,1.7,0.1,1.9
		c-0.2,0.2-0.7,0.4-1.1,0.4c-0.4,0-0.7,0.1-0.9,0.4s-0.3,0.7,0,1.1c0.3,0.5,0.5,1,0.5,1.2c0,0.4,0.3,1.2,0.5,1.8
		c0.1,0.3,0.1,0.6,0,0.7c-0.5,0.1-0.8,0.3-1,0.5c-0.2,0.3-0.3,0.7-0.2,1.1c0.2,0.6,0.7,1.2,1.3,1.3c0.1,0.1,0.3,0.4,0.3,0.9
		c0,0.6-0.3,1.6-0.6,2.3c-0.4,0.7-0.9,2.3-1.2,3.5s-0.4,3.7-0.2,5.6c0.2,1.8,0.5,5.8,0.7,8.8c0.2,2.7,0.6,5.9,1.1,6.6
		c0.3,0.4,0.2,1.5-0.2,2.5s-1.2,2.6-1.6,3.4c-0.5,0.8-1.1,2-1.3,2.7c-0.3,0.6-0.7,1.6-1,2.2s-0.8,1.9-1.2,3c-0.4,1-0.8,2.3-1,2.8
		s-0.4,1.5-0.5,2.1s-0.5,1.9-0.8,2.9c-0.4,1-0.9,2.4-1.2,3.1s-0.5,2-0.5,2.8s-0.1,2-0.2,2.6c-0.1,0.8,0.1,1.9,0.4,2.5
		c0.2,0.3-0.3,1.4-1.4,2.4c-1,0.9-2.9,2.1-4,2.4c-1.3,0.5-3.1,1.8-4.1,3l-1.4,1.7l-2.6-1.5l-8-4.6l0.4-0.7c0.4-0.7,0-1.9-0.8-2.7
		c-0.7-0.7-1.7-1.6-2.1-2.1c-0.4-0.4-1.1-1.3-1.7-2.1c-0.5-0.8-1.3-2.1-1.7-2.9c-0.3-0.6-0.2-2.8,0.6-4.9c0.7-2,2.4-3.5,3.4-3.5
		c0.8-0.1,1.6-0.3,2.1-0.8c0.5-0.4,0.7-1,0.7-1.5c-0.1-0.9,0.5-1.7,1.1-2c1-0.4,1.9-1.2,2.2-1.9c0.1-0.4,1.1-1.2,2.2-1.7
		c1.3-0.5,2.7-1.9,3.1-3.2c0.5-1.3,0.1-3-0.8-4c-0.9-0.9-3.2-2.2-5.2-2.9c-1.9-0.7-4.6-1.5-6-1.9s-3.8-1.1-5.3-1.6s-3.4-0.8-4.5-0.8
		c-1.4,0.1-2.8,0.5-3.5,0.8c-0.2,0.1-0.6,0.2-1.1,0.2s-1.1-0.1-1.5-0.2c-0.9-0.3-2-1.4-2.4-2.5c-0.4-1.3-2.5-3.6-4.5-5.2
		c-1.8-1.4-4.5-2.9-5.7-2.9c-0.9,0-2.7-0.1-4-0.1c-1.2-0.1-3-0.4-3.8-0.7c-0.9-0.3-3.5-1.4-5.7-2.5c-2.2-1-5-2.5-6.3-3.3
		s-3.8-1.9-5.5-2.4c-1.4-0.4-3.2-0.7-4.4-0.7c-0.3,0-0.6,0-0.8,0.1c-1.1,0.2-2.9,0.6-4,1.1c-0.4,0.2-1.1,0.3-1.9,0.3
		c-0.8,0-1.6-0.1-2.3-0.3c-1.4-0.4-3-1.3-3.5-2s-0.8-2.1-0.5-3.1c0.3-1.3-1-2.7-2.9-3.2c-1.7-0.4-4.2-0.8-5.5-0.8s-3.3,0.1-4.5,0.3
		c-1.2,0.2-3.7,1-5.5,2c-1.8,0.9-4.5,2.2-5.9,2.9c-1.5,0.7-3.7,1.8-5,2.3c-1.3,0.6-3.2,1.7-4.3,2.6c-1,0.8-2.4,1.3-3.1,1.3
		c-1.1,0-2.9,0.8-4,1.6c-1,0.7-2.4,1.2-3.3,1.2c-1.5,0-2.5,0.1-3.1,0.4c-0.1,0-0.2-0.3-0.2-0.7c0-0.9-0.3-2-0.6-2.5l-0.4-0.6l1.6-1
		c1.2-0.8,1.7-2.5,1.1-4.1c-0.5-1.3-0.5-2.8-0.1-3.2c0.3-0.3,0.4-0.7,0.3-1c-0.2-0.6-0.7-1.2-1.6-1.6c-1.1-0.5-2.6-2-3.2-3.2
		c-0.7-1.3-1.5-3.7-1.7-5.4c-0.2-1.7,0-3.8,0.5-4.6c0.5-0.9,1.5-2.2,2.2-2.8c0.9-0.9,0.9-2.2,0-3c-0.6-0.5-0.6-1.5,0-2.1
		c0.9-1,0.8-2.5-0.2-3.5l-1.4-1.4l0.8-1.4c0.6-1,0.2-2.6-0.8-3.6c-0.9-0.8-1.8-2.5-2-3.8s0-2.7,0.3-3.1s1.7-1.3,3.2-1.9
		c1.2-0.5,1.4-1.1,1.4-1.4s-0.2-0.9-1.4-1.4c-0.5-0.2-0.8-0.4-0.8-0.7c0-0.3,0.3-0.6,0.8-0.8c0.8-0.3,1.2-0.9,1.3-1.5
		c0.1-0.8-0.3-1.7-1.2-2.4l-3.3-0.7c-0.9-0.1-2.4-1-3.3-1.9c-0.8-0.8-0.8-2.1,0-2.7c1-0.8,2.2-2.1,2.7-2.9c0.6-0.8,1.3-2.2,1.6-3.3
		c0.3-1,1.9-2.7,3.5-3.7c1.8-1.2,3.9-2,4.9-2.1c1.4-0.1,2.7-0.9,2.9-1.9l0.3-1.1l1.6,0.1c1,0.1,2.4,0.9,3,1.7c0.7,1,1.8,2.5,2.5,3.5
		c0.7,1.1,3.1,2.6,5.6,3.5c2.1,0.8,4.8,1.4,6.4,1.4c2-0.2,4.5-1.2,6.2-2.3c1.5-1,3.7-2,4.9-2.1c0.6-0.1,1.3-0.1,2-0.1s1.3,0,1.6,0.1
		c1.6,0,4.2-1.4,6.2-2.7c2.4-1.7,4.7-4.2,5.1-5.6c0.4-1.4,1.1-3,1.5-3.7s0.6-1.8,0.2-2.4c-0.3-0.3-0.8-1.7-1.1-3.2
		c-0.3-1.2-0.1-2,0-2.2c0.7,0,1.6-0.4,2.1-0.8c0.4-0.3,1.3-0.7,1.8-0.8c0.9,0,2,0.2,2.8,0.4c1.1,0.3,3.2,0.6,4.6,0.6
		c1.3,0,3.1,0.1,4,0.1c0.7,0.1,1.8,0.6,2.3,1.2c0.7,0.8,2.3,1.3,3.7,1.3c1.2,0,3-0.1,4.1-0.3c1.1-0.2,3.1-0.8,4.6-1.5
		c1.4-0.6,4-1.6,5.8-2.2c1.3-0.4,2.9-0.7,3.9-0.7c0.4,0,0.6,0,0.7,0.1c0.3,0.1,0.7,0.1,1.1,0.1c0.8,0,1.5-0.2,2-0.5
		c0.6-0.5,1.3-1.4,1.7-2.2c0.3-0.6,1.4-1.4,2.5-1.7c1.4-0.4,3.2-1.5,4.1-2.5c0.9-1,2-1.8,2.4-1.9l1-0.2l2.7,1c1.5,0.5,3.3,1.6,4,2.2
		c0.7,0.7,1.2,1.8,1.2,2.5c0,0.9,0.7,2.1,1.7,2.8c0.8,0.5,1.7,1.3,2,1.7c0.2,0.2,0.3,1.2,0,2.1l-0.6,2l3.4,1.3
		c0.3,0.1,0.7,0.2,1.1,0.2c1,0,2-0.3,2.7-0.9c0.8-0.7,2.1-1.8,2.8-2.4c0.8-0.7,1.5-2.2,1.6-3.3c0.1-0.9,0.7-1.5,1.1-1.5h3.3
		c1.2,0,2.8-0.9,3.6-2.1c0.7-1,1.8-1.8,2.4-1.8c1-0.1,2.3-0.6,3-1.3c0.6-0.5,1.7-1.3,2.4-1.7c0.6-0.4,1.8-0.7,2.5-0.7h2.7V310z"/>
</g>
<g>
	<path class="st0" d="M784.7,424.2c4.7,0,8.4,0.6,8.8,1c0.6,0.6,1.1,1.8,1.2,2.6c0.1,0.9,0,2.6-0.2,3.9l-0.3,2l-17.9-0.6l-0.5-1.5
		c-0.3-0.9-0.1-1.9,0.3-2.3c0.7-0.6,1.1-2.2,1.1-3.3v-1.8L784.7,424.2L784.7,424.2z"/>
</g>
<g>
	<path class="st0" d="M734.2,370.4c0.3,0.3,0.3,0.5,0.1,0.8c-0.5,1-1.2,2.8-1.6,4c-0.1,0.3-0.1,0.7-0.1,1c0,1,0.4,2.1,1,2.5
		c0.8,0.6,3,1.5,5,2.1l6.9,2.1c1.7,0.5,3.9,1.1,4.7,1.2c1.2,0,2.4-1,3-2c0.7-1,2.4-3,3.8-4.5c0.8-0.9,2.1-1.5,3-1.5
		c0.3,0,0.6,0.1,0.8,0.2c1.1,0.7,2.4,2,2.9,2.9s1.1,2.4,1.3,3.1c0.2,0.8,0.4,1.8,0.4,2.3c0,0.6,0.3,1.2,0.9,1.4
		c1.1,0,1.7-1.2,1.8-1.4c0.2-0.6,1-1,1.6-1c0.9,0,2.8-0.2,4.3-0.5c1.5-0.2,3.3-0.5,4-0.6c0.8,0,1.7,0.3,2.3,0.6
		c0.8,0.5,3.1,1.6,5.3,2.4c1,0.4,1.8,0.6,2.5,0.6s1-0.2,1.2-0.4c0.1-0.1,0.2-0.3,0.2-0.5c0-0.1,0-0.3-0.1-0.5
		c-0.2-0.4-0.2-0.8-0.2-1.1c0-0.4,0.1-0.6,0.2-0.7c0.6,0,1.6,0.3,2.5,0.8c0.7,0.4,1.8,0.7,3.2,0.7c1.1,0,2.3-0.2,3.3-0.5
		c2-0.6,5-1.2,6.5-1.3c1.7-0.1,4.2-0.9,5.7-1.8c1.3-0.8,3.4-1.7,4.5-1.8c1.3-0.2,3.3-0.5,4.4-0.7l1.8-0.4l1.3,1.4
		c0.4,0.4,0.6,1,0.6,1.5c0,0.4-0.1,0.8-0.4,1.1c-0.4,0.5-0.7,1.1-0.7,1.6c0,0.6,0.2,1.1,0.7,1.5c0.3,0.3,0.4,0.6,0.4,1
		s-0.2,0.7-0.4,1c-0.7,0.7-1.8,2.1-2.4,3c-0.4,0.7-0.7,2.2-0.7,3.7c0,0.5,0,0.9,0.1,1.3c0.2,1.8,1,4.4,1.8,5.7
		c0.8,1.4,2.4,2.9,3.6,3.5c0.6,0.3,1,0.7,1.1,1.1c-0.4,0.8-0.6,1.4-0.6,2.2c0,0.7,0.2,1.5,0.4,2.1c0.1,0.4,0.2,0.8,0.2,1.2
		c0,0.9-0.4,1.7-1,2.1l-1.8,1.1h-2.3c-1.4,0-2.3-0.4-2.4-0.6c-0.2-0.5-1-1.4-1.8-2.1c-0.5-0.3-1.1-0.5-1.8-0.5
		c-0.6,0-1.3,0.2-1.8,0.5c-1,0.6-1.7,2.2-1.7,3.5c0,0.9-0.7,1.5-1.6,1.5c-0.6-0.1-0.9-0.1-1.2-0.1c-1.3,0-2.6,0.3-3.2,0.8
		c-0.6,0.5-1,1.4-1,2.3c0,0.2,0,0.4,0.1,0.6c0.1,0.4,0.1,0.7,0.1,1c0,0.5-0.1,0.8-0.1,0.9c-0.5,0.4-0.7,1.2-0.7,1.9
		c0,0.7,0.1,1.9,0.2,2.7c0.1,0.8,0.4,2.2,0.6,3c0,0.7-0.8,1.3-1.9,1.4c-1.5,0.2-4,0.9-5.7,1.5l-2,0.7l0.3-1.6
		c0.2-0.9,0.2-2.1,0.2-3.1c0-0.4,0-0.7,0-1c-0.1-1-0.7-2.3-1.4-3c-1-1-6.3-1.3-9.6-1.3h-8.5v2.6c0,1.2-0.4,2.5-0.8,2.8
		c-0.5,0.4-0.7,1.2-0.7,1.9c0,0.4,0.1,0.8,0.2,1.1l0.7,2l18.6,0.6l0.1,1.2c0,0.8-0.3,2-0.7,2.6c-0.4,0.7-1,2-1.2,2.9
		c0,0.1,0,0.3,0,0.4c0,0.9,0.6,1.9,1.6,2.4c0.7,0.3,2,1.7,2.6,3.1c0.4,1,0.7,2.2,0.7,3.1c0,0.4,0,0.7-0.1,0.9
		c-0.3,0.8-1.1,1.5-1.6,1.6c-0.9,0.2-2.4,1.2-3.3,2c-0.9,0.8-1.9,2-2.2,2.4c-0.1,0.9,0.9,1.6,2,2c1,0.3,1.9,1.3,2,2
		c0,0.1,0,0.3,0,0.4c0,0.7-0.2,1.6-0.5,2c-0.3,0.5-0.5,1.2-0.5,1.8c0,0.2,0,0.5,0.1,0.7l0.8,2.3c0.1,0.7-0.2,1-0.4,1.1l-1.1,0.5
		l-2.2,1.1c-1.2,0.6-3.1,1.7-4.2,2.3c-1,0.6-2.8,1.3-3.8,1.5c-0.3,0.1-0.7,0.1-1.2,0.1c-1,0-2.1-0.1-2.9-0.3
		c-1.3-0.4-3.1-0.9-4.2-1.1c-1-0.3-3.7-0.6-5.8-0.7c-1,0-2.3-0.1-3.5-0.1s-2.3,0-3,0.1c-1.5,0.1-3.9,0.7-5.2,1.3
		c-1.3,0.6-3.4,1.6-4.6,2.2c-0.6,0.3-1.4,0.4-2,0.4c-0.5,0-0.9-0.1-1.1-0.2c-0.5-0.3-1.2-0.5-2.1-0.5c-0.8,0-1.7,0.1-2.5,0.4
		c-1.4,0.5-3.5,0.9-4.6,0.9c-1.2,0-3.6,0.2-5.3,0.5s-3.9,0.9-4.8,1.3c-1,0.5-2.2,1.5-2.7,2.3s-1,1.8-1.2,2.2
		c-0.2,0.4-0.5,1.2-0.7,1.7c-0.1,0.4-0.8,0.9-1.4,1c-0.9,0.3-2.5,1.3-3.5,2.1c-1.1,0.9-2.5,2-3.1,2.5l-0.8,0.6l-1.2-0.9
		c-0.9-0.7-2.3-1.4-3.2-1.7c-0.8-0.2-2.4-0.9-3.5-1.6c-1.2-0.7-3.4-1.4-4.8-1.5c-1.3-0.2-3.6-0.7-5-1.1c-1.4-0.5-3.8-1.6-5.2-2.4
		s-3.5-1.7-4.5-1.7c-0.6,0-1.9-0.4-2.7-1.1c-0.7-0.6-1.8-0.9-2.8-0.9c-0.3,0-0.6,0-0.8,0.1c-0.1,0-0.4,0.1-1,0.1
		c-1,0-2.2-0.2-3.2-0.4c-1.7-0.4-2.7-1.1-2.7-1.4c0-0.5,0.1-1.8,0.2-2.7c0-1.3-0.8-2.3-1.9-2.6c-0.7-0.2-1.5-1.1-1.6-1.9
		c-0.1-1-0.5-2.3-0.9-2.9l-0.6-1l-0.5-1.4c-0.3-0.8-0.9-2.3-1.3-3.5c-0.4-1.1-0.7-3.1-0.5-4.4c0.2-1.4,0.7-3.3,1.1-4.4
		c0.4-1,1.2-2.4,1.6-3.1c0.4-0.7,1.4-1.6,2-2c0.7-0.5,1.9-1.1,2.5-1.3c0.8-0.3,2.1-1.2,2.9-2c0.8-0.8,1.7-2.2,2.1-3.2
		c0.4-1,0.7-2.1,0.7-2.7c0-0.4,0.3-1.3,0.8-2c0.4-0.6,1.8-1.7,3-2.4c1.3-0.7,2.9-1.6,3.6-1.9c0.7-0.3,1.7-0.7,2.2-0.9
		c0.6-0.2,1.6-0.6,2.3-1.1c0.6-0.4,1.4-0.7,1.8-0.7c0.8,0,2-0.7,2.7-1.4c0.8-0.8,1.6-2.1,1.8-3c0.2-0.8,0.7-1.7,1.1-1.9
		c0.8-0.5,1.2-1.8,1.2-2.7c0-0.9,0.6-2,1.3-2.5c0.8-0.5,2.3-1.1,3.4-1.3c1.2-0.2,3.5-0.9,5-1.6c1.6-0.7,3.3-2.5,3.9-4.2
		c0.6-1.6,1.1-3.1,1.3-3.6s0.4-1.5,0.4-2.3c0-0.7,0.4-2,0.8-2.8c0.4-0.8,1.1-1.9,1.5-2.4c0.4-0.6,0.7-1.5,0.7-2.2
		c0-0.6,0.1-1.8,0.2-2.5c0.1-0.7,0.6-1.9,1.1-2.5c0.6-0.8,1.1-1.8,1.2-2.4c0.1-0.5,0.6-1.3,1.1-1.9c0.6-0.6,1.4-1.7,1.7-2.5
		c0.4-0.8,0.7-2.1,0.7-2.9c0-0.7,0.5-1.7,1.2-2.1c0.8-0.6,1.5-1.7,1.5-2.3V377l1.1-2.3c0.6-1.4,1.5-2.7,2-3.1
		C732.2,371.2,733.3,370.6,734.2,370.4z"/>
</g>
<g>
	<path class="st0" d="M605.4,452.9c0.7,0,1.9,0.3,2.6,0.7c0.8,0.4,2.6,1.1,4.1,1.5c1.4,0.4,3.6,1.5,4.8,2.4c1.3,1,3.5,2.3,4.9,2.9
		c1.2,0.5,3.3,0.8,5.1,0.8c0.4,0,0.8,0,1.1,0c2-0.2,4.7-0.9,6-1.7c0.8-0.5,2.1-0.8,3.2-0.8c0.4,0,0.7,0,1,0.1
		c1.3,0.3,3.2,0.9,4.4,1.2c0.9,0.2,1.9,0.4,2.7,0.4c0.4,0,0.7,0,0.9-0.1c0.7-0.2,2.2-0.8,3.4-1.5s2.8-1.7,3.7-2.4
		c0.8-0.6,1.8-1.5,2-2c0.1-0.2,0.6-0.4,1-0.4c0.3,0.2,0.5,0.7,0.5,1.4c-0.1,1-0.5,2.5-0.9,3.2c-0.4,0.8-1.4,2-2.2,2.7
		c-0.9,0.8-1.8,1.9-2,2.5c-0.3,0.8,0.7,1.8,2.2,2.4c1.1,0.4,2.4,0.7,3.3,0.7c0.3,0,0.5,0,0.7-0.1c0.5-0.1,1.1-0.2,1.7-0.2
		c0.2,0,0.4,0,0.6,0c0.7,0.1,2.2,0.2,3.5,0.2s3.2,0,4.4,0h1.7l0.5,0.8c0.3,0.5,0.7,1.7,0.8,2.7c0.1,1.1,1.1,2.2,2.3,2.5
		c0.7,0.2,1.3,1,1.2,1.8c-0.1,1-0.2,2.2-0.2,2.8c0,0.9,1.7,1.7,3.4,2.1c1.1,0.3,2.5,0.4,3.5,0.4c0.6,0,1.1,0,1.4-0.1
		c1.1-0.1,2,0.2,2.5,0.6c0.9,0.7,2.4,1.3,3.4,1.3c0.6,0,2.4,0.6,3.9,1.5s4,2,5.5,2.5s3.9,1,5.3,1.2c1.3,0.2,3.3,0.8,4.4,1.4
		c1.2,0.7,2.9,1.4,3.8,1.7c0.8,0.2,2.1,0.9,2.9,1.5l1.4,1v0.7c0,0.4-0.4,1.2-0.8,1.7c-0.5,0.6-1,1.6-1.2,2.3c-0.2,0.7-0.2,1.7,0,2.4
		c0.2,0.6,0.5,1.5,0.7,2.2l0.3,1.1l-0.3,2.1c-0.2,1.2-0.8,2.1-1.2,2.2c-0.6,0.2-2.1,0.4-3.3,0.5c-1.4,0.1-3.2,0.7-4,1.4
		c-0.7,0.6-2.1,1.8-3,2.7c-1,0.9-1.9,2.5-2.1,3.6c-0.2,1-0.7,2.3-1.1,2.8c-0.5,0.6-1.4,1.8-2.2,2.7c-0.8,1-1.4,2.5-1.4,3.5
		c0,0.8-0.5,1.9-1.2,2.4c-0.8,0.6-1.7,1.2-2.1,1.3c-0.7,0.3-1.1,1.3-1.1,2c0,0.6-0.6,1.7-1.2,2.4c-0.7,0.8-2,2-2.8,2.8
		s-2.3,2.3-3.4,3.5c-1,1.2-2.3,2.2-2.7,2.4c-0.5,0.3-1.9,0.8-3.1,1.2c-1.2,0.4-3.2,1.4-4.4,2.2l-2,1.3l-1.1,0.7l-1,1.1
		c-0.9,0.9-2.5,1.8-3.4,2.1c-1,0.3-2.9,0.8-4.3,1.1c-1.5,0.4-3.2,1.9-3.8,3.5c-0.5,1.4-1.4,3.1-2,3.9c-0.5,0.7-1.7,1.7-2.5,2.2
		c-1,0.5-2.2,1.7-2.8,2.6c-0.6,0.9-1.3,2.6-1.5,3.9c-0.3,1.3-0.5,2.7-0.5,3.3c0,0.4-0.3,0.9-0.5,1.1c-0.2,0.2-1.2,0.5-2.2,0.7
		l-1.5,0.2l-1.6-1.5c-1.1-1-2.7-2-3.7-2.3c-0.4-0.1-0.9-0.2-1.4-0.2c-0.9,0-1.8,0.2-2.5,0.5c-1,0.4-2.6,1.1-3.4,1.5
		c-0.8,0.4-2.6,0.8-3.9,1c-0.3,0-0.6,0-1,0c-1.2,0-2.5-0.2-3.2-0.4c-0.9-0.3-1.8-1.4-2-2.4c-0.3-1.2-1-2.7-1.6-3.4
		c-0.5-0.6-0.8-1.7-0.8-2.4c0.1-0.8,0.1-1.9,0-2.5c-0.1-0.5-0.1-1.5,0-2.1c0.1-0.7-0.4-2-1.1-2.8c-0.6-0.7-1.1-2-1.1-2.7
		c0-0.8,0.2-2,0.5-2.7c0.3-0.9,0-1.9-0.9-2.4c-0.5-0.3-1.3-1.3-1.8-2.4c-0.5-1.2-2-2.4-3.5-2.8c-1.3-0.4-3.5-0.7-5-0.8
		c-1.3-0.1-3-0.7-3.8-1.3c-0.9-0.7-1.9-1.6-2.3-2c-0.3-0.3-0.8-0.5-1.3-0.5c-0.4,0-0.8,0.1-1.1,0.3c-0.6,0.4-1.5,1.1-2.1,1.7
		c-0.5,0.5-1.4,0.9-1.9,0.9c-0.9,0-2,0.4-2.6,0.9c-0.2,0.2-0.6,0.3-1.1,0.3c-0.3,0-0.6,0-0.9-0.1c-0.8-0.2-1.8-0.4-2.4-0.4
		c-0.9,0-1.7-0.1-2.5-0.5c-0.6-0.2-1.3-0.3-2.1-0.3c-0.5,0-1,0.1-1.4,0.2c0,0-0.2,0.1-0.8,0.1c-1.1,0-2.7-0.2-4.2-0.6
		c-2.1-0.5-4.2-0.9-5-0.9c-0.3,0-0.5,0-0.7,0c-0.6,0-1.3-0.1-1.9-0.1l-1-0.2l0.4-0.8c0.4-0.8,0.5-2.1,0.2-2.9
		c-0.3-0.7-0.1-1.6,0.1-2c0.5-0.7,0.4-2,0-2.9s-0.5-2-0.3-2.5s0.6-1.6,1-2.4c0.4-0.8,0.8-2.1,1-2.9c0.2-0.9,0-2-0.4-2.7
		c-0.3-0.5-0.6-1.7-0.6-2.5c0-1-0.7-2.2-1.5-2.7c-0.6-0.4-1.2-1.4-1.3-2.1c-0.1-0.9-0.5-2-1-2.4c-0.3-0.2-0.8-0.8-1-1.4
		c-0.3-0.6-0.7-1.4-1-1.7l-0.3-0.4l2.2-1.7c0.7-0.5,1.4-1,1.7-1.1c0.4-0.1,1.2-0.4,1.8-0.6l1.9-0.6l-3.5-2.8
		c-1.5-1.2-1.5-4.8,0.1-7.9c1.7-3.3,3.3-7.1,3.5-8.5c0.3-1.4,1.2-4.2,2.1-6.2c0.9-2.1,1.9-4.2,2.2-4.7c0.4-0.8-0.4-2.8-1.4-4.3
		c-1-1.6-2.1-3.9-2.5-5.1c0.3,0.2,0.6,0.5,0.9,0.6c0.9,0.3,2.1,1,2.7,1.6l1.5,1.3l2.3-1.4c1-0.6,2.6-1.2,3.5-1.2
		c1.2-0.1,2.8-0.9,3.6-1.8c0.7-0.8,1.9-2.2,2.5-3.1c0.6-0.8,1.9-2,2.9-2.5s3.2-1,4.9-1c1.9,0,4.6-0.6,6-1.4
		C603,453.4,604.7,452.9,605.4,452.9z"/>
</g>
<g>
	<path class="st0" d="M726.3,499.2c0.3,0,0.6,0,0.9,0.1c1,0.3,2.8,0.6,3.9,0.8c1.1,0.1,2.8,0.5,3.9,0.8c1.1,0.3,2.8,0.5,3.7,0.5
		s2.4-0.1,3.5-0.1c0.2,0,0.5,0,0.7,0c0.9,0,2,0.1,2.6,0.3c0.9,0.2,2.5,0.5,3.6,0.5c1,0.1,1.7,0.4,1.7,0.6c0.1,0.3,0,1.2-0.2,1.9
		c-0.2,0.9,0.2,1.9,0.8,2.3c0.4,0.3,1.2,0.4,1.9,0.4c0.3,0,0.7,0,1-0.1c0.4-0.1,0.9-0.2,1.3-0.2c0.8,0.2,1.7,0.7,2.3,1.2
		c0.4,0.3,0.8,0.4,1,0.4c0.7,0,1.2-0.5,1.4-1.4s0.8-1.5,1.1-1.6c0.6-0.1,2.1-0.2,3.3-0.4c1.1-0.1,2.8-0.3,3.6-0.4
		c0.9-0.1,2.3-0.3,3.2-0.4c0.3,0,0.7-0.1,1.1-0.1c0.8,0,1.8,0.1,2.5,0.2c0.6,0.1,1.3,0.2,1.9,0.2c0.5,0,1.1,0,1.6-0.2
		c0.6-0.2,1.8-0.8,2.9-1.3c0.5-0.2,1.2-0.4,1.7-0.4c0.3,0,0.5,0,0.7,0.1c0.7,0.4,2.4,0.6,3.6,0.6c0.2,0,0.4,0,0.6,0
		c0.2,0,0.4,0,0.6,0c0.8,0,1.3,0.1,1.5,0.1c0,0.2,0,0.5,1.5,1.7c0.7,0.5,1.2,1.4,1.2,1.8v1l-0.2,1.5c-0.1,0.9,0.7,2.4,1.9,3.4
		c0.9,0.8,1.3,2.2,0.9,3.1c-0.6,1.1-1,2.5-1,3.2s0.1,1.8,0.2,2.5c0.1,0.8,0.9,2.4,1.8,3.8c0.9,1.4,2.6,2.4,3.8,2.4
		c0.7,0,1.2-0.1,1.8-0.1c0.5,0,1,0,1.3,0.1c0.5,0.1,1.8,0.5,2.9,1c0.8,0.4,1.2,1.3,0.8,2c-0.5,0.9-1.3,2.8-1.8,4.2
		c-0.4,1.4-0.7,3.4-0.6,4.4c0.1,0.9-0.2,2-0.7,2.5c-0.7,0.7-0.4,2,0.6,3c0.8,0.8,2.1,2.1,2.8,2.9c0.7,0.8,1.2,1.8,1.2,2.3
		c0,0.6,0.5,1.8,1.2,2.6s2.7,1.5,4.4,1.5c1.6,0,4.4-0.1,6.2-0.3c2.1-0.2,3.8-1,3.9-2c0.1-0.7,0.5-1.6,0.9-2c0.1-0.2,0.4-0.2,0.7-0.2
		s0.6,0.1,0.9,0.2c0.6,0.3,1.4,0.3,2.1,0.3c1.1,0,2.3-0.2,3.4-0.4c1.9-0.5,5.2-1.3,7.3-1.9l3.4-0.9l0.9,1.4c0.7,1.1,2.8,2.3,4.9,2.8
		h2.5c0.3,0,0.5,0,0.8,0c1.9,0,2.9,0.5,2.9,0.8c0,0.6-0.9,1.4-1.9,1.7c-1.2,0.3-3.3,0.6-4.7,0.7c-1.5,0.1-3.5,0.7-4.5,1.4
		s-2.1,1.9-2.4,2.7c-0.1,0.3-0.2,0.6-0.2,1c0,0.8,0.2,1.9,0.7,2.8l0.9,1.7l-0.8,0.1c-0.7,0.1-1.8,0.2-2.4,0.2
		c-0.8,0-1.8,0.3-2.4,0.8c-0.4,0.3-1.6,0.9-2.9,1.5c-1.2,0.5-3,1.2-4.1,1.5c-1.3,0.4-2.4,1.4-2.5,2.2c-0.1,0.7-0.4,1.4-0.6,1.6
		c-0.6,0-0.9,0-1.2-0.1c-0.8-0.3-2.3-0.7-3.3-0.8s-2.6-0.3-3.6-0.3s-2.3,0.2-2.9,0.4c-0.6,0.2-1.7,0.8-2.6,1.2
		c-0.9,0.4-2.1,1.2-2.7,1.7c-0.6,0.4-1.4,0.8-1.8,0.8c-0.7,0-2.1,0.3-3,0.5c-1,0.3-3.1,1-4.7,1.5c-1.6,0.6-3.6,1.5-4.4,2
		c-0.8,0.5-2.6,1.5-3.8,2.3c-1.3,0.8-3.3,1.8-4.4,2.4c-1.2,0.5-2.8,1.2-3.6,1.5c-0.9,0.3-2.1,0.8-2.8,1.2c-0.6,0.4-2.4,1.3-3.8,2.2
		c-1.4,0.8-3.4,1.8-4.3,2.1c-1,0.4-1.2,0.8-1.1,1.1c0,0.1,0.1,0.5,0.7,0.6c0.4,0.1,0.8,0.5,0.8,0.8s-0.4,1.1-1,1.5l-0.7,0.6
		l-0.8-0.8c-0.6-0.6-1.4-1.8-1.8-2.8c-0.4-1-1.6-1.8-2.8-1.8c-0.6,0.1-0.9,0.1-1.1,0.1c-0.8,0-1.5-0.2-1.7-0.4
		c-0.4-0.3-0.8-1.4-0.8-2.5s-0.5-2.5-1.4-2.8c-0.7-0.3-2.2-0.5-3.5-0.5c-1.1,0-3.4-0.1-5.1-0.3c-1.6-0.2-3.6-0.6-4.4-1
		c-0.6-0.3-0.9-1.2-0.5-2.2s0.6-2.5,0.2-3.2c-0.3-0.6-0.9-1.6-1.3-2.3c-0.4-0.7-1.6-2.3-2.5-3.4c-1-1.2-1.5-2.3-1.4-2.5
		c0.1-0.5-0.1-1.6-0.4-2.3c-0.3-0.7-0.6-2-0.6-2.9c0-1-0.2-2.6-0.4-3.6s-0.9-2.3-1.4-2.9c-0.6-0.6-2.2-1.8-3.7-2.7s-3.8-1.6-5.3-1.6
		c-1.6,0.1-5,0.2-7.8,0.2c-2.9,0-5.8-0.6-6.5-1.1c-1-0.7-3.2-1.5-4.8-1.8c-1.5-0.3-3.4-1-4.2-1.5c-0.6-0.4-1.5-0.6-2.6-0.6
		c-0.6,0-1.3,0.1-1.8,0.3s-1.4,0.3-2.2,0.3c-0.9,0-1.7-0.1-2.4-0.3l-5.4-1.5c-0.8-0.2-1.7-0.3-2.6-0.3c-0.9,0-1.8,0.1-2.4,0.3
		c-0.6,0.2-1.4,0.4-2.1,0.4c-0.3,0-0.5,0-0.7-0.1c-0.8-0.3-2.5-0.4-3.8-0.4c-0.4,0-0.8,0-1.2,0s-0.9,0-1.4,0c-1.7,0-3.8-0.1-5-0.2
		l-1.9-0.2l1.3-0.8c1.2-0.8,3.1-1.7,4.2-2.1c1.2-0.4,2.7-1,3.2-1.3c0.7-0.4,2-1.6,3-2.7c1-1.1,2.5-2.7,3.3-3.4
		c0.8-0.8,2.1-2,2.9-2.8c0.8-0.8,1.4-2.1,1.4-2.9c0-0.6,0.3-1.2,0.6-1.3c0.5-0.2,1.5-0.9,2.3-1.5s1.5-1.9,1.5-3
		c0-0.8,0.6-2.3,1.3-3.1c0.7-0.9,1.7-2.1,2.2-2.7c0.5-0.6,1-2,1.2-3.1c0.2-1,1-2.5,1.9-3.2c0.9-0.9,2.3-2.1,3-2.7s2.2-1.1,3.3-1.1
		c1.4-0.1,3-0.3,3.7-0.5c0.9-0.3,1.6-1.7,1.8-2.9l0.3-2l1.6-0.7c1-0.4,2.7-1,3.7-1.3c1.1-0.3,2.8-1,3.7-1.5
		C724.8,499.3,725.6,499.2,726.3,499.2z"/>
</g>
<g>
	<path class="st0" d="M954,439.1c-0.8-0.8-3-2-4.8-2.7c-1.9-0.6-4.5-1.5-5.9-1.9s-3.8-1.1-5.4-1.6c-1.3-0.4-3.1-0.7-4.3-0.7
		c-0.9,0.1-2.1,0.4-2.6,0.7c-0.4,0.2-1,0.3-1.7,0.3c-0.6,0-1.3-0.1-1.9-0.3c-1.2-0.4-2.5-1.7-3-3c-0.4-1.1-2.3-3.3-4.3-4.8
		c-2.1-1.7-4.4-2.7-5-2.7c-1,0-2.8-0.1-4.1-0.2s-3.2-0.4-4.2-0.8c-1-0.3-3.6-1.5-5.8-2.5c-2.2-1.1-5.1-2.6-6.4-3.4
		c-1.2-0.8-3.6-1.8-5.2-2.3c-1.3-0.4-2.9-0.6-4.7-0.6c-1,0.2-2.7,0.6-3.7,1c-0.6,0.2-1.5,0.3-2.4,0.3s-1.9-0.1-2.6-0.3
		c-1.6-0.4-3.4-1.5-4-2.3c-0.5-0.6-0.8-1.6-0.8-2.6c0-0.4,0-0.7,0.2-1.3c0-0.8-0.9-1.7-2.2-2c-1.6-0.4-4-0.7-5.2-0.7
		s-3.2,0.1-4.3,0.3c-1.1,0.2-3.4,1-5.2,1.8c-1.8,0.9-4.5,2.2-5.9,2.9c-1.5,0.7-3.7,1.8-5,2.3c-1.2,0.6-3.1,1.6-4.1,2.4
		s-2.7,1.6-3.8,1.6c-0.6,0-2.1,0.6-3.3,1.4s-2.9,1.4-4.8,1.4c-0.8,0-1.5,0.1-2.4,0.4c-0.7,0-1.2-0.6-1.2-1.5c0-0.7-0.2-1.7-0.5-2.2
		l-0.4-0.7h-2.2c-1.4,0-3-0.4-3.4-1.1c-0.2-0.4-0.9-1.2-1.6-1.8c-0.3-0.2-0.6-0.3-1-0.3s-0.8,0.1-1.1,0.3c-0.7,0.5-1.4,1.8-1.4,2.9
		c0,1.3-1.1,2.3-3.1,2.3c-0.2,0-0.5,0-0.7,0c-1.2,0-2.1,0.3-2.4,0.5c-0.4,0.3-0.8,1.4-0.6,2.3c0.1,0.7,0.3,2.1-0.3,2.5
		c-0.2,0.1-0.4,0.7-0.4,1.3c0,0.6,0.1,1.8,0.2,2.6c0.1,0.8,0.4,2.1,0.6,2.9c0.3,1-0.9,2.1-2.7,2.4c-1.4,0.2-3.9,0.9-5.4,1.4
		l-2.6,0.9v1.4c0,1-0.4,2.3-0.8,3c-0.4,0.6-0.9,1.8-1.1,2.7c-0.2,0.7,0.3,1.6,1.1,1.9c1.1,0.5,2.4,2,3.1,3.6
		c0.7,1.5,0.9,3.5,0.6,4.5c-0.4,1-1.3,2-2.3,2.2c-0.6,0.1-1.8,0.9-2.8,1.8s-1.8,1.9-2,2.2c0,0.1,0.4,0.6,1.5,1
		c1.3,0.5,2.5,1.6,2.6,2.7c0.1,1-0.2,2.2-0.6,2.9c-0.4,0.5-0.5,1.4-0.3,1.9l0.8,2.3c0.3,0.8-0.2,1.7-1,2l-1.1,0.4l-2.1,1.1
		c-1.2,0.6-3,1.6-4.1,2.3c-1.1,0.7-3,1.4-4.2,1.6c-0.4,0.1-0.9,0.1-1.4,0.1c-1.1,0-2.3-0.1-3.2-0.4c-1.3-0.4-3.2-0.9-4.2-1.1
		c-1-0.3-3.5-0.6-5.5-0.6c-1,0-2.3-0.1-3.4-0.1c-1.2,0-2.3,0-3,0.1c-1.4,0.1-3.6,0.6-4.7,1.2c-1.3,0.7-3.4,1.6-4.7,2.2
		c-0.8,0.3-1.6,0.5-2.5,0.5c-0.7,0-1.4-0.1-1.8-0.4c-0.3-0.2-0.8-0.2-1.4-0.2c-0.7,0-1.4,0.1-2.1,0.3c-1.5,0.5-3.8,0.9-5,0.9
		s-3.4,0.2-5,0.5s-3.7,0.8-4.5,1.2c-0.8,0.4-1.9,1.3-2.3,2c-0.5,0.8-1,1.7-1.1,2.1c-0.2,0.4-0.5,1.2-0.7,1.6c-0.2,0.6-1.1,1.3-2,1.5
		c-0.6,0.2-2,1-3.1,1.9s-2.5,2.1-3.2,2.6l-1,0.8v0.7c0,0.6-0.4,1.5-0.9,2.1c-0.4,0.5-0.9,1.5-1.1,2c-0.1,0.3-0.1,0.7-0.1,1
		c0,0.4,0,0.7,0.1,1c0.2,0.6,0.5,1.5,0.7,2.2l0.2,0.6l1.2-0.5c1-0.4,2.8-1,3.9-1.3c1-0.3,2.6-0.9,3.3-1.3c0.6-0.4,1.6-0.6,2.6-0.6
		c0.4,0,0.9,0,1.3,0.2c1,0.3,2.7,0.6,3.7,0.7c1.1,0.1,3,0.5,4.1,0.8c1,0.3,2.6,0.5,3.3,0.5c0.8,0,2.4-0.1,3.5-0.1c0.2,0,0.5,0,0.8,0
		c1.1,0,2.3,0.1,2.9,0.3c0.8,0.2,2.3,0.4,3.4,0.5c1.2,0.1,2.5,0.5,2.6,1.2c0,0.1,0,0.3,0,0.5c0,0.5-0.1,1.2-0.3,2
		c0,0.5,0.2,1,0.5,1.2s0.7,0.3,1.8,0.2c0.5-0.1,1.1-0.2,1.7-0.2c0.3,0,0.7,0,0.9,0.1c0.6,0.2,1.6,0.9,2.4,1.5c0,0,0.3-0.2,0.4-0.7
		c0.2-1,0.9-2.1,1.9-2.3c0.6-0.1,2.1-0.2,3.3-0.4c1.2-0.1,2.8-0.3,3.7-0.4c0.8-0.1,2.2-0.2,3.1-0.4c0.3-0.1,0.8-0.1,1.3-0.1
		c0.9,0,1.9,0.1,2.7,0.2c0.5,0.1,1.1,0.1,1.7,0.1c0.6,0,1-0.1,1.1-0.1c0.5-0.2,1.8-0.8,2.8-1.3c0.7-0.3,1.5-0.5,2.3-0.5
		c0.5,0,1,0.1,1.3,0.3c0.4,0.2,1.7,0.4,4.2,0.4c1.2,0,2.5,0.1,2.5,1c0.1,0.1,0.5,0.5,1.2,1c0.8,0.6,1.5,1.7,1.5,2.3v1l-0.2,1.7
		c0,0.7,0.7,1.9,1.6,2.7c0.9,0.7,1.3,1.8,1.3,2.8c0,0.4-0.1,0.8-0.3,1.1c-0.5,1-0.9,2.3-0.9,2.9c0,0.6,0.1,1.7,0.2,2.4
		c0.1,0.7,0.9,2.3,1.7,3.5s2.1,2,2.8,2c0.2,0,0.5,0,0.8,0c0.1,0,0.3,0,0.4,0c0.1,0,0.3,0,0.4,0c0.1,0,0.2,0,0.3,0s0.2,0,0.3,0
		c0.2,0,0.4,0,0.5,0c-0.1,0-0.3,0-0.4,0c0.2,0,0.5,0,1,0.1c0.7,0.1,2.1,0.6,3.2,1.1c0.9,0.4,1.4,1.2,1.4,2c0,0.3-0.1,0.6-0.3,0.9
		c-0.5,0.9-1.3,2.7-1.7,4c-0.3,1.1-0.6,2.6-0.5,4.5c0,1-0.4,2.1-0.9,2.6c-0.1,0.1-0.2,0.3-0.2,0.5c0,0.4,0.2,1,0.7,1.5
		c0.8,0.8,2.1,2.1,2.9,2.9c0.7,0.8,1.4,2,1.4,2.7c0,0.4,0.4,1.4,1.1,2.1c0.5,0.6,2.2,1.1,3.6,1.1c1.6,0,4.3-0.1,6.1-0.3
		c1.6-0.1,2.9-0.8,3-1.3c0.1-0.8,0.6-1.8,1-2.4c0.3-0.4,0.9-0.6,1.6-0.6c0.5,0,1,0.1,1.4,0.3c0.3,0.1,0.8,0.2,1.5,0.2
		c1,0,2.1-0.1,3-0.4c1.9-0.5,5.2-1.3,7.3-1.9l3.8-1l3.4-1.2c2-0.7,5-1.3,6.9-1.3c1.7-0.1,3.8-0.5,4.5-0.8c0.9-0.4,2.7-1,4-1.2
		c1-0.2,2.8-0.3,4.3-0.3c0.4,0,0.7,0,1,0s0.6,0,1,0c1.4,0,3.1-0.1,4-0.3c0.4-0.1,0.9-0.1,1.4-0.1c1.2,0,2.6,0.2,3.6,0.6
		c0.9,0.3,1.5,0.4,1.8,0.4c0.4-0.6,1.8-1.3,2.7-1.6c1.3-0.5,4.6-1.4,7.3-2.1l2.3-0.6c2-0.6,3.3-1.6,3.3-2.4c0-0.8,0.3-1.8,0.8-2.5
		c0.6-0.8,1.5-2,2.1-2.7s1.5-2,2.1-2.9c0.5-0.9,1.1-2.2,1.3-2.8c0.3-0.9,1.5-1.8,2.8-2.2l1.9-0.5l0.5-1c0.3-0.6,0.8-1.9,1.1-2.7
		s0.6-2.3,0.6-3.3c0-1.1,0.6-2.3,1.3-2.8c0.9-0.5,3.3-0.6,4.1-0.6c0.5,0,1,0,1.5,0l2.8-1.1c1.1-1.6,2.5-3.4,3.3-4.1
		c0.7-0.6,1.6-1.9,2-2.9c0.4-1.1,1.6-2.6,2.6-3.3c0.9-0.6,2-1.8,2.3-2.6c0.4-0.8,0.7-2.4,0.7-3.4s-0.6-2.5-1.3-3.3
		c-0.7-0.9-1.8-2-2.4-2.4c-0.2-0.2-0.4-0.4-0.3-0.9c0.2-0.5,1.1-0.8,2.4-0.8c1.5-0.1,2.4-0.5,2.4-0.8c0-0.4-0.4-1-0.9-1.3
		c-0.6-0.3-0.9-1-0.9-1.7c0-0.3,0-0.6,0.2-0.8c0.1-0.2,0.1-0.4,0.1-0.6c0-0.6-0.3-1.4-0.8-1.8c-0.2-0.2-0.4-0.5-0.3-1.1
		c0.2-0.8,1.1-1.8,2.4-2.5c1.9-1,2.8-2.1,2.8-2.5c0-0.8,1.5-1.5,3.1-1.8c1.6-0.2,3.8-0.5,5.3-0.6c1.1,0,2.8,0.3,3.8,0.6l1.6,0.6
		l0.4-1c0-0.4-0.3-1.1-0.8-1.6c-0.7-0.7-1.7-1.6-2.1-2c-0.4-0.4-1.2-1.4-1.8-2.3c-0.5-0.8-1.3-2.1-1.7-3c-0.2-0.3-0.2-0.8-0.2-1.4
		c0-1.2,0.3-2.7,0.8-4c0.7-1.9,2.5-4,4.3-4.1c0.5,0,1.1-0.2,1.4-0.5c0.3-0.2,0.4-0.5,0.4-1.2c0-1.1,0.7-2.1,1.6-2.5
		c0.7-0.3,1.5-0.9,1.6-1.4c0.3-0.7,1.6-1.7,2.7-2.1c1-0.4,2.2-1.7,2.6-2.7c0.1-0.3,0.2-0.6,0.2-0.9
		C954.9,440.6,954.5,439.7,954,439.1z"/>
</g>
<g>
	<path class="st0" d="M557.3,281.9l0.7,0.7c0.6,0.6,1.8,1.9,2.6,2.9c0.8,0.9,1.8,2.6,2.1,3.6c0.4,1.1,1.4,3.2,2.2,4.6
		c0.8,1.5,1.8,3.4,2.1,4.3c0.4,0.9,0.8,2.5,1,3.5c0.2,1.1,0.7,2.8,1.2,3.9s1.5,2.2,2.5,2.2c0.4,0,1.4,0.5,2.1,1.2
		c0.8,0.8,2.7,1.9,4.2,2.4c1.4,0.5,3,1.6,3.6,2.5c0.6,1,1.8,1.7,2.8,1.7c1.3-0.1,2.1,0.3,2.7,0.9c0.8,0.9,1.9,1.5,2.9,1.5
		c1.5-0.1,2.5,0.1,3.2,0.3l1.9,0.7l138,6.4l-0.3,0.8c-0.3,0.7-1,1.7-1.6,2.3c-0.7,0.6-1.1,1.7-1.1,2.6c0,1.1-0.4,2-0.9,2.5
		c-0.6,0.6-1.4,1.5-1.6,2c-0.2,0.4-0.9,1.7-1.6,2.9c-0.8,1.2-1.4,3.6-1.5,5.3c-0.1,1.6-0.3,3.7-0.5,4.6s-0.6,2.6-0.8,3.7
		c-0.1,0.5-0.2,1-0.2,1.5c0,0.7,0.1,1.3,0.4,1.7c0.1,0.2,0.2,0.5,0.2,0.7c0,0.3-0.1,0.7-0.2,0.9c-0.2,0.4-0.3,0.8-0.3,1.3
		s0.1,0.9,0.3,1.2c0.2,0.3,0.4,1.1,0.4,2c0,0.4,0,0.7-0.1,1.1c-0.2,1.3-0.3,2.8-0.3,3.4s0.5,1.7,1.1,2.5c0.3,0.4,0.5,1.1,0.5,1.9
		c0,0.4-0.1,0.9-0.2,1.3c-0.2,0.7-0.3,1.6-0.3,2.3c0,0.5,0.1,0.9,0.2,1.2c0.3,0.7,1.2,1.4,2.1,1.7l1,0.4v0.8c0,0.4-0.5,1.2-1.2,1.8
		c-0.8,0.6-1.5,1.8-1.5,2.7c0,0.7-0.3,1.9-0.6,2.7c-0.3,0.7-1.1,1.8-1.6,2.3c-0.6,0.6-1.2,1.6-1.3,2.2c-0.1,0.5-0.6,1.5-1.1,2.1
		c-0.6,0.8-1.1,2-1.2,2.8c-0.1,0.8-0.2,1.9-0.2,2.6c0,0.6-0.3,1.4-0.6,1.8c-0.4,0.5-1.1,1.6-1.5,2.5c-0.5,0.9-0.9,2.3-0.9,3.1
		c0,0.8-0.2,1.7-0.3,2c-0.2,0.4-0.8,2-1.3,3.6c-0.5,1.4-2.1,3.1-3.4,3.7c-1.4,0.6-3.6,1.3-4.7,1.5c-1.3,0.2-3,0.9-3.9,1.5
		s-1.7,2-1.7,3.1c0,0.9-0.4,1.9-0.8,2.1c-0.7,0.5-1.3,1.6-1.5,2.4s-0.9,2-1.6,2.6c-0.7,0.7-1.6,1.1-1.9,1.1c-0.8,0-1.9,0.4-2.5,0.9
		c-0.6,0.4-1.5,0.8-2,0.9c-0.6,0.2-1.7,0.6-2.4,0.9c-0.7,0.4-2.4,1.2-3.7,1.9c-1.4,0.7-2.8,1.9-3.3,2.7c-0.5,0.8-0.9,1.8-0.9,2.3
		c0,0.4-0.3,1.5-0.6,2.4s-1.2,2.2-1.9,2.9c-0.7,0.7-1.8,1.5-2.5,1.8c-0.8,0.3-2,0.9-2.8,1.5c-0.8,0.5-1.8,1.5-2.3,2.3
		c-0.5,0.7-1.2,2.2-1.7,3.2c-0.5,1.1-1,3.1-1.2,4.6c0,0.3-0.1,0.7-0.1,1c0,1.3,0.2,2.8,0.6,3.7c0.5,1.1,1,2.7,1.3,3.4l0.3,0.9h-1.4
		c-1.1,0-3.1,0-4.3,0s-2.8-0.1-3.4-0.1c-1.4,0-2.2,0-2.7,0.2c-1.2,0-2.4-0.2-3.3-0.6c-1.1-0.4-1.7-1.1-1.7-1.4
		c0.2-0.6,1-1.6,1.8-2.2c0.9-0.8,2-2.1,2.4-2.9s0.9-2.4,1-3.5c0-1.1-0.2-1.7-0.6-2c-0.2-0.2-0.5-0.3-0.8-0.3c-0.8,0-1.7,0.4-2,1
		c-0.2,0.3-0.9,1.1-1.8,1.8c-0.8,0.6-2.4,1.7-3.6,2.3c-1.2,0.7-2.6,1.3-3.1,1.4c-1.3,0-2.2-0.1-2.9-0.3c-1.2-0.3-3.1-0.9-4.4-1.2
		c-0.4-0.1-0.8-0.1-1.2-0.1c-1.3,0-2.8,0.4-3.8,0.9c-1.2,0.7-3.7,1.4-5.5,1.5c-0.3,0-0.6,0-1,0c-1.7,0-3.6-0.3-4.6-0.7
		c-1.3-0.6-3.4-1.8-4.7-2.7c-1.3-1-3.6-2.2-5.2-2.6c-1.4-0.4-3.2-1-3.9-1.4c-0.8-0.5-2.2-0.8-3.2-0.8c-1.1,0-3,0.7-4.3,1.4
		c-1.3,0.7-3.8,1.2-5.4,1.2c-1.9,0-4.3,0.5-5.5,1.1c-1.1,0.6-2.6,1.8-3.2,2.8c-0.6,0.9-1.7,2.2-2.5,3c-0.7,0.7-2,1.4-2.9,1.4
		c-1.2,0.1-3,0.7-4.1,1.4l-1.5,0.9l-0.8-0.7c-0.7-0.6-2-1.4-3-1.8c-0.5-0.2-1.6-1.4-2.1-2.3l-1.9-1.5c-0.9-0.7-2.2-1.4-3.1-1.4
		c-0.7,0-2-0.3-3.2-0.8c-1.3-0.6-3.2-1.4-4.2-1.8c-0.8-0.3-1.6-1.2-1.6-1.9c0-0.9-0.4-2.3-0.9-3.2c-0.4-0.8-0.9-2.5-1-3.7
		s0.4-2.7,1.1-3.3c0.8-0.8,1.4-2.4,1.3-3.6c-0.1-1.2-1.1-2.1-2.2-2.1c-0.9,0.1-3.5,0.2-9.6,0.2c-3,0-6.4,0-9.8-0.1
		c-10.3-0.2-16.7-0.6-17.6-0.9c-0.3-0.4-0.7-1.9-0.9-3.7c-0.2-1.8-0.6-4.3-1-5.7c-0.4-1.4-1.2-3.2-1.9-4.1s-2.3-2.4-3.6-3.5
		c-0.6-0.5-0.8-0.9-0.7-1.1c0.1-0.2,0.4-0.2,0.8-0.3c1.8-0.1,3.4-1.8,3.5-4c0.1-2-0.4-4.7-1.2-6c-0.7-1.3-1.8-3.2-2.3-4.2
		c-0.5-0.9-0.9-2.2-0.8-2.9c0.1-0.7,0.3-1.6,0.5-2.1c0.3-0.7-0.4-1.9-1.1-2.7c-0.8-0.9-2.6-2.1-4-2.7l-1.9-0.8l1.3-1.1
		c0.9-0.8,2.7-1.7,3.9-2.1c1.4-0.5,2.7-1.5,2.8-2.4c0.1-0.7,0.7-2.2,1.3-3.3c0.6-1.1,2-2.5,3.1-3.1c1.3-0.7,2.6-2.2,3.1-3.4
		c0.4-1.1,1.4-3.2,2.1-4.7c0.6-1.1,0.9-2.4,0.9-3.4c0-0.4,0-0.7-0.1-1c-0.3-0.8-0.6-2.2-0.7-3.1c-0.1-1.1-1-2.5-2.1-3.2
		c-0.9-0.6-1.8-2.2-2.1-3.4c0-0.2-0.1-0.4-0.1-0.6c0-1.1,0.6-2.5,1.5-3.1c1.1-0.9,1.9-2.1,1.9-3.1l-0.8-2.8c-1.3-1.2-3.7-2-5.7-2
		c-1.1,0.1-1.6,0.1-2.2,0.1c-1.5,0-2.5-0.2-2.9-0.3c-0.9-0.4-6.4-0.6-11-0.6c-5.6,0-10.2-0.1-11-0.3c-0.8-0.1-1.7-0.7-1.9-1.2
		c-0.1-0.3-0.2-0.6-0.2-1c0-0.3,0.1-0.7,0.2-0.9c0.3-0.6,0.6-1.8,0.6-2.6c0-0.8,0.1-1.9,0.2-2.6c0-1-0.4-2-1-2.6s-1-1.6-1-2.2
		c0-0.7,0.1-2,0.2-2.9c0.1-0.5,0.1-1.1,0.1-1.7s0-1.3-0.1-1.7c-0.1-0.5-0.1-1-0.1-1.4s0-0.8,0.1-0.9c0.1-0.2,0.1-0.6,0.1-1
		s0-0.8-0.1-1.2c-0.1-0.7-0.3-1.8-0.4-2.5s-0.7-1.7-1.3-2.1c-0.1-0.4,0.1-0.5,0.4-0.7c0.8-0.3,1.2-0.9,1.2-1.6
		c0-0.3-0.1-0.5-0.2-0.8c-0.2-0.4-0.3-0.9-0.3-1.4c0-0.3,0.1-0.7,0.2-0.9c0.2-0.4,0.3-0.9,0.3-1.4s-0.1-1-0.3-1.4l-0.4-0.8l68.1-2.3
		l0.6-1.5c0.3-0.7,0.5-1.9,0.5-2.5c0-0.5,0.3-1.4,0.7-1.8c0.5-0.5,1.1-1.7,1.4-2.6c0.3-0.9,0.6-2.2,0.7-2.9c0-1.1-0.3-2-0.7-2.7
		c-0.4-0.6-0.6-1.2-0.6-1.4c0.1-0.3,0.6-1.1,1.4-2c0.7-0.8,1.3-2,1.3-2.8c0-1.2,0.4-2.2,0.9-2.8L557.3,281.9z"/>
</g>
<g>
	<path class="st0" d="M827.2,176.5c-0.8,0-1.1-0.3-1.2-0.5c-0.1-0.2-0.3-0.6,0.2-1.1c0.5-0.6,0.7-1.5,0.4-2.1
		c-0.4,0.7-1.5,1.2-2.7,1.1c-0.4,0-1,0-1.6,0s-1.2,0-2,0.1c-0.9,0-2-0.2-2.5-0.7c-0.4-0.4-0.8-1.2-1.7-2.1c-0.8,0-1.8-0.4-3.3-1.2
		c-0.3,0-0.6,0.1-0.8,0.3c-0.4,0.3-0.8,0.4-1.8,0.2c-0.2-0.2-0.3-0.4-0.7-0.8c-0.4,0.3-0.8,0.4-1.2,0.4c-0.6,0-1.1-0.3-1.3-0.9
		c-0.3,0.2-0.7,0.4-1,0.4c-0.4,0-0.8-0.2-1.3-0.8c-0.2,0-0.6,0-0.8-0.5c-0.1-0.2-0.2-0.5-0.2-0.8c0-0.5-0.3-0.7-0.5-0.8
		c-0.3,0-0.6,0.2-0.7,0.4c-0.2,0.4-0.6,0.6-1,0.6c-0.3,0-0.7-0.1-1.2-0.5c-0.2,0.1-0.2,0.5,0.1,0.8c0.4,0.4,0.2,0.7,0.1,0.9
		c-0.1,0.1-0.4,0.4-1.3,0.4c-0.9-0.1-2-0.7-3.1-1.7c-0.5,0.3-1.4,0.6-2.4,0.7c-0.7,0-1.5-0.3-2.5-1c-0.4,0.1-1,0.5-1.5,0.7
		c-0.5,0.3-1.6,0.5-3.1,0.5c-0.7,0-1.6,0.3-2,0.6c-0.6,0.5-1.4,1-2.1,1c-0.2,0-0.9,0.5-1.6,1.2c-0.7,0.7-1,1.7-0.8,2.2
		c0.3,0.7,0.3,1.7,0,2.3c-0.3,0.5-1.2,1.4-1.9,2c-0.7,0.5-1.5,1.4-1.6,2.5c0.6-0.1,1.7-0.3,2.4-0.5c0.4-0.1,0.9-0.2,1.3-0.2
		c0.3,0,0.8,0,1.5,0.8c-0.1,0.4-0.5,0.7-1.3,1s-1.6,0.7-1.8,1c-0.4,0.5-1.5,0.9-2.7,1.1c-1,0-2.1-0.5-2.6-1.2c-0.4-0.6-1.2-1-1.6-1
		c-0.5,0.1-1.5,0.5-2.3,1c-0.7,0.5-2,1.9-2.9,2.9c-1,1.2-2.8,2.1-4.1,2.1c-0.9,0-2.3,0.6-3.1,1.4c-0.8,0.8-1.8,2.2-2.3,3
		s-1.1,2.1-1.5,2.7c-0.4,0.6-1.1,1.9-1.7,2.8l-1,1.7l-1-0.2l0.2-1.4c0.1-0.7,0-1.7-0.3-2.2c-0.3-0.7-0.2-1.7,0.4-2.4
		c0.4-0.5,0.8-1.4,0.9-2c0.1-0.7,0.9-2,1.8-2.9c0.9-0.9,1.4-1.8,0.6-2.1c-0.8,0.2-1.8,0.4-2.3,0.4c-0.2,0-0.9,0.3-1.7,0.8
		c-0.7,0.5-2,1-2.8,1c-0.6,0-1.4,0.1-1.8,0.2c-0.3,0.1-0.8,0.5-1.1,0.8c-0.2,0.3-0.3,0.9-0.1,1.2c0.1,0.3,0.1,0.7-1.1,1.2
		c-0.8-0.1-1.2-1.1-1.1-2c0.1-0.7-0.2-1.5-0.7-1.9s-1.4-0.7-2.2-0.8c-0.6,0-1.3,0.2-1.7,0.5c-0.5,0.4-1.4,0.7-3.2,0.6
		c-0.5,0-1.2,0.1-1.6,0.3c-0.5,0.2-1.6,0.6-2.1,0.6s-1.1-0.4-1.4-0.8c-0.2-0.2-0.9-0.7-1.6-0.9c-0.7-0.2-1.6-0.4-2-0.4
		s-0.9,0.1-1.2,0.3c-0.1,0.1-0.3,0.4-0.1,0.7c0.1,0.3,0.1,0.6-2.1,0.8c-0.2,0.1-0.5,0.4-0.5,0.8c0,0.4,0.1,1.1-0.2,2.1
		c-0.3,0-0.5-0.1-1.1-0.7c-0.5-0.5-1.3-0.9-1.7-1c-0.3,0-0.6,0.2-0.7,0.5c-0.2,0.5-0.4,1.3-0.5,1.9c-0.1,0.5,0,1.4,0.2,1.9
		s0.6,1.2,1,1.5c0.5,0.4,1.2,0.9,1.5,1.3c0.1,0.1,0.4,0.4-1.2,0.7c-0.7-0.3-1.7-1-2.3-1.5s-1.3-1.6-1.4-2.5c-0.2-0.8-0.1-2.2,0.2-3
		c0.2-0.6-0.2-1.5-1-2c-0.9-0.5-1.9-1.3-2.1-1.7c-0.1-0.1-0.8-0.4-1.9-0.4c-0.8,0-1.6,0.3-1.8,0.7c-0.4,0.6-1,1.4-1.4,1.8
		c-0.3,0.3-0.3,1-0.1,1.6c0.2,0.5,0.5,1.3,0.5,1.7c0,0.1,0.3,0.7,0.8,1.5c0.3,0.4,0.4,0.7-0.3,1.1c-0.2,0-0.5-0.1-1.1-0.6
		c-0.8-0.7-1.7-2.2-2.1-3.4c-0.4-1.1-0.2-2.7,0.6-3.3c0.5-0.4,0.7-0.9,0.6-1c-0.2-0.3-0.7-0.6-1.4-1c0-0.3,0.4-0.5,1.5-0.7
		c0.8-0.1,1.6-0.5,1.8-0.8c0.2-0.4,0.7-0.6,1.3-0.6c0.4,0,0.8,0.1,1.1,0.3c0.6,0.3,1.6,0.6,2.1,0.7c0.8,0.1,1.7,0.5,2.2,0.9
		c0.2,0.2,1.5,0.7,3.1,1c0.4,0.1,0.9,0.1,1.4,0.1c1,0,2.1-0.2,2.7-0.4c1.1-0.6,1.9-1,2-1.2l0.6-0.7l1.6,0.5c0.7,0.2,1.7,0.8,2.4,1.4
		c0.3,0.3,1.1,0.5,2,0.5c0.5-0.1,0.8-0.3,0.9-0.9c0.4-0.4,1.4-0.5,3.6-0.5c1.3,0,2.3-0.1,2.5-0.2c0.4-0.2,1-0.2,1.4-0.2
		c0.5,0,1.1,0.1,1.5,0.2c0.8,0.2,2.1,0.5,3,0.6c0.4,0,0.9-0.3,1-0.6c0.3-0.6,0.7-0.9,1.2-0.9c0.2,0,0.6,0,2.4,0.4
		c0.8-0.3,1.7-1,2.2-1.4c0.4-0.4,1-0.7,2.4-0.5c0.4,0.2,1.1,0.4,1.5,0.4c0.5,0,1.8-0.1,2.9-0.3c1-0.1,3.3-0.8,5-1.4
		c1.8-0.7,3.4-1.6,3.8-2c0.4-0.5,0.8-1.6,0.8-2.5c0-1.1,0.9-2.2,2-2.6c0.7-0.3,1.4-1,1.4-1.6c0-0.8,0.7-1.8,1.6-2.3
		c0.6-0.3,1-0.9,0.9-1.3c-0.1-0.6,0.1-1.4,0.7-1.8c0.2-0.1,0.7-0.9,1.1-2.1c0.4-1.1,1-2.5,1.4-3.2c0.3-0.7,0.3-1.3,0.2-1.4
		c-0.1-0.1-1.1-0.5-2.3-0.6s-3.4-0.4-5-0.5s-3.9-0.6-5.1-0.9c-1.1-0.3-2.8-0.7-4-0.7c-0.9,0-2.2,0.2-3.1,0.5c-1.2,0.4-2,0.9-2,1.1
		c-0.2,0.4-0.8,0.7-2,0.6c-0.5-0.1-2-0.3-3.7-0.4c-1.6-0.1-4.8-0.5-7.2-0.9l-2-0.5c-1.3-0.6-3-1-3.8-1h-3.3c-0.7,0-2.6,0.6-4.2,1.3
		c-1.4,0.7-3,2-3.3,2.7c-0.4,0.9-0.6,1.9-0.5,2.2c0.1,0.4,0.7,1.2,1.5,1.8c0.4,0.3,0.7,0.6-0.1,1.3c-0.3,0-0.7-0.1-1.2-0.3
		c-0.4-0.1-0.7-0.2-1.8,0.1c-0.2,0.5-0.1,0.9,0,1c0.6,0.3,0.3,1.1-0.2,1.8c-0.4,0.5-0.8,1.3-0.8,1.6v1.3l-3.6-0.5
		c-0.3,0.4-0.9,0.9-1.4,1.3c-0.5,0.3-1.6,0.8-2.4,1.2c-0.8,0.3-1.8,0.8-2.3,1.1s-1.3,0.8-1.8,1.1c-0.6,0.4-1.6,0.9-2.2,1.3
		c-0.7,0.4-1.8,0.9-2.6,1.2c-0.7,0.3-2,0.7-2.9,0.9c-0.8,0.2-2.3,0.7-3.2,1.1c-1,0.4-2.6,1.1-3.5,1.4c-1,0.4-2.5,0.8-3.5,0.9
		c-0.9,0.1-1.9,0.5-2.3,0.7c-0.2,0.1-0.4,0.9,0,1.9s0.7,2.4,0.7,3s0.2,1.6,0.5,2.2c0.3,0.6,1.1,1.8,1.8,2.6c0.8,0.9,1.7,2.3,2.1,3.2
		c0.4,0.9,0.8,2.4,1,3.4c0.2,0.9,0.6,2.9,1,4.4l0.7,2.7l-1,0.2l-1-1.7c-0.5-0.8-1.5-1.8-2.1-2.1c-0.9-0.4-1.5-1.4-1.4-2.3
		c0.1-0.7,0.2-1.8,0.2-2.4c0-0.6-0.2-1.4-0.4-1.7c-0.2-0.4-0.8-0.7-1.1-0.8c-0.7-0.2-1.1-0.9-1-1.5c0.1-0.3-0.2-1.1-0.6-1.7
		c-0.4-0.6-1.3-1.5-1.8-2c-0.6-0.6-1.1-1.8-1.1-2.8c0-0.9,0.1-2.1,0.2-2.6c0.1-0.5,0-1.1-0.1-1.3c-0.2-0.4-0.3-1,0-1.4
		c0.3-0.3,0.8-0.5,1.3-0.7c-0.1-0.1-0.7-0.5-1.7-0.5c-1-0.1-2.9-0.1-4.3-0.1c-1.3,0-3.1,0.3-4.1,0.7s-2.5,1-3.2,1.2
		s-1.9,0.8-2.7,1.2c-0.9,0.5-2.6,1.2-3.8,1.5s-2.9,0.6-3.9,0.8c-0.9,0.1-2.4,0.3-3.2,0.4c-0.8,0.1-2.1,0.1-2.7,0.1
		c-0.5,0-2,0.3-3.3,0.7c-1.2,0.4-3,1.4-4,2.1c-0.9,0.7-1.9,2.1-2.2,3c-0.3,1.1-1.4,2.2-2.5,2.6c-0.9,0.3-2.3,0.7-3,0.9
		c-0.8,0.2-2,0.4-2.7,0.4h-3c-1,0-3.1-0.1-4.6-0.3c-0.7-0.1-1.5-0.1-2.2-0.1s-1.4,0-1.8,0.1c-0.6,0.1-1.4,0.8-1.8,1.6
		c-0.4,0.9-1.2,2.9-1.8,4.5c-0.6,1.5-1.6,3.8-2.2,5.1c-0.6,1.3-1.2,3-1.5,3.9c-0.3,1-1.2,2.3-2,3l-2.4,2.1l0.5-3.5
		c0.2-1.3,0.8-2.9,1.4-3.6c0.5-0.6,1.3-1.6,1.6-2.1s0.3-1.1,0-1.4c-0.5-0.5-0.6-1.4-0.2-1.9c0.3-0.4,0.7-1.2,1-1.9
		c0.2-0.6,0.3-1.4,0.2-1.8c-0.2-0.6,0-1.5,0.6-2c0.4-0.3,1-1.3,1-2.6c-0.5,0.2-0.9,0.3-2,0.1c-0.2-0.2-0.3-0.5-0.1-0.9
		c0.3-0.8,1.1-1.7,1.5-2.4c-0.5,0-1.1,0.1-1.5,0.2c-0.8,0.2-2.3,0.6-3.4,0.8c-0.7,0.1-1.5,0.2-2.1,0.2c-0.4,0-0.8,0-1-0.1
		c-0.6-0.1-1.9-0.7-3-1.2c-1-0.5-2.1-1.3-1.9-1.9c0.1-0.5,0.7-0.7,2-0.7c0.7,0.1,2,0.6,3.6,0.9c0.1-0.2,0.5-0.4,1.9-0.3
		c-0.4-0.3-0.9-0.6-1.3-0.8c-0.6-0.4-1.8-1.1-2.5-1.6l-2.2-1.5l2.5-0.3c0.8,0,2.1,0.3,3.1,0.7c1.1,0.5,2.4,1.3,3,1.9
		c0.4,0.5,1.5,0.9,2.3,0.9c0.6,0,1.3-0.2,1.8-0.5c-0.6,0.2-1.2,0.3-1.6,0.3c-0.4,0-0.7-0.1-0.9-0.3s-0.2-0.5-0.1-0.8
		c0.2-0.4,0.6-1,0.9-1.3c0.4-0.5,1.3-0.8,2.3-0.8c0.8,0,1.8,0.2,2.2,0.5c0.2,0.1,0.9,0.4,1.6,0.5c0.7,0.1,2,0.4,2.7,0.7
		c0.7,0.2,2.4,0.7,3.7,1c1.5,0.4,2.5,1.6,2.2,2.6c-0.3,0.8-0.3,1.8-0.2,2.2c0.1,0.3,0.9,0.8,1.8,1c0.4,0.1,1.1,0.1,1.8,0.1
		s1.3,0,1.8-0.1c1-0.2,2.3-0.8,2.9-1.3c0.6-0.5,1.2-1.8,1.4-2.7c0.2-1.2,1.2-2.5,2.3-3c0.9-0.4,3-1.2,4.6-1.7s4-1.1,5.4-1.4
		c1.4-0.3,3.4-0.6,4.4-0.8c1-0.1,2.7-0.4,3.8-0.6c1-0.2,3.5-1.1,5.4-2c2-0.9,5-1.8,6.7-2c1.6-0.1,3.8-0.5,4.9-0.7
		c1.1-0.3,2.8-0.8,3.9-1.3c0.5-0.2,1.2-0.3,1.8-0.3c0.8,0,1.5,0.2,2,0.5c0.3,0.2,0.7,0.3,1.5,0.2c0.4-0.3,1.2-1.2,1.7-2.1
		c0.5-1,1.5-2.1,2.2-2.5c0.5-0.3,1.4-0.9,2-1.4l-1.1,0.3c-1.8,0.5-3.9,1-5.2,1.1c-1,0-2.5-0.3-3.7-0.6c-1.4-0.5-2.8-1.8-3-3.1
		c-0.2-1-0.9-1.7-1.4-1.7c-1.1,0-2-0.7-2-1.6c0-0.5-0.6-1.5-1.2-2.1c-0.8-0.7-1.5-1.9-1.5-2.7c0-0.7-0.5-1.8-1.1-2.6s-2.2-2.1-3.5-3
		c-1.4-0.9-3-2.6-3.6-3.7c-0.5-1-1.6-3.1-2.3-4.5c-0.6-1.1-0.9-2.6-0.9-3.8c0-0.4,0-0.7,0.1-1c0.1-0.4,0.2-0.7,0.1-1
		c0-0.6-0.2-1.1-0.4-1.2c-0.5-0.4-1.6-0.9-2.3-1.2c-0.9-0.4-2.4-1.6-3.3-2.8c-0.9-1.2-1.7-2.9-1.8-3.8c-0.1-0.8-0.6-1.8-1.2-2.2
		c-0.6-0.4-1.7-1-2.5-1.2c-0.6-0.2-1.5-0.3-3-0.3c-0.8,0-2-0.3-2.7-0.7s-1.8-0.9-2.4-1.1c-0.7-0.3-1.8-0.9-2.6-1.4
		c-0.7-0.5-2.3-1.4-3.6-2c-1.2-0.6-4-1.2-6.2-1.3c-2.5-0.1-5-1.6-5.5-3.4c-0.1-0.5-0.2-1.1-0.2-1.7c0-1.3,0.3-2.5,0.9-3.3l1.2-1.5
		l-1.6-1.2l-1.3-0.1c-0.9-0.1-2.3-0.7-3.2-1.4c-0.5-0.4-1.4-0.8-2.1-0.8c-0.7,0.1-2.1,0.4-3,0.6s-2.1,0.4-2.6,0.4
		c-0.2,0-1.1,0.4-2,1c-0.7,0.5-1.6,0.9-3,0.7c-0.2-0.2-1.2-0.3-3.3-0.3c-1.2,0-2.8-0.2-4.1-0.5c-1,0-2.5,0.6-3.6,1.5
		c-1.2,1-1.4,2.4-0.5,3.2c1.2,1,2.3,2.3,2.6,3.1c0.3,0.9-0.1,2-1,2.5c-0.5,0.3-1.5,0.5-2.5,0.5c-0.6,0-1.2-0.1-1.7-0.2
		c-1.4-0.3-3.4-0.7-4.5-0.9c-1.1-0.2-3-0.5-4.3-0.6l-2.2-0.2l-1.5,0.5c-1,0.3-2.7,0.5-3.9,0.5s-2.9-0.4-3.8-1
		c-0.4-0.2-1.1-0.4-1.7-0.4c-0.4,0-0.8,0.1-1.1,0.2c-1,0.3-2.3,0.6-3.7,0.5c-0.7,0-1.3,0.5-1.6,1c-0.4,0.8-1.3,1.9-2,2.4
		c-0.5,0.4-1.4,0.6-2.5,0.6c-0.5,0-1-0.1-1.4-0.1c-0.4-0.1-0.9-0.2-1.3-0.2c-0.6,0-0.9,0.1-0.9,0.2c-0.5,0.5-2.1,1-3.3,1.3
		c-1.3,0.3-2.4,0.9-2.7,1.2c-0.3,0.4-1.1,0.7-2.1,0.7c-0.6,0-1.2-0.1-1.8-0.2s-1.1-0.2-2.4-0.1c-0.2,0.6-1.6,1.4-2.7,1.9
		c-1.2,0.5-1.9,1.2-1.9,1.6c0,0.8-1.2,1.5-2.7,1.8c-1.3,0.2-2.7,0.7-3.1,0.9c-0.2,0.2-0.6,0.2-0.9,0.2c-0.8,0-1.8-0.3-2.6-0.9
		l-0.9-0.6l1.1,17.6l0.7,2.4c0.3,1,0.5,2.5,0.5,3.7c0,0.5,0,0.9-0.1,1.3c0,0.2-0.1,0.5-0.1,0.7c0,1,0.3,1.7,0.6,1.9
		c0.7,0.4,1.5,1.2,1.7,1.8s0.5,1.5,0.6,2.1c0.1,0.4,1.4,1.6,3.3,2.8c1.7,1,3.6,2.7,4,3.7c0.3,0.7,1.3,1.7,2.3,2.1
		c1.1,0.5,2.8,1.4,3.9,2.1c1,0.6,3.4,1.9,5.3,2.7c1.9,0.9,4.5,2.2,5.8,3c1.2,0.7,3.3,1.4,4.5,1.5c1.4,0.2,3.6,0.7,4.9,1.2
		c1.3,0.5,2.9,1.3,3.6,1.8c0.6,0.5,2.4,1.5,3.9,2.3c1.5,0.7,3.3,2,3.8,2.8c0.2,0.4,0.9,0.6,2.3,0.5c0.4-0.1,0.9-0.1,1.5-0.1
		c1.1,0,2.3,0.2,3.8,1.5c0,2.4-3.1,8.7-6.4,14.1l-1.7,2.9c-4.6,7.6-11.9,20.2-16.4,27.9l-17.6,30.3l-1.4,1.7c-0.8,1-1.3,1.9-1.3,2.2
		c0,0.4,0.2,1.3,0.5,2.2c0.3,0.8,1.3,2.1,2.4,2.9c1.1,0.9,2.5,2.3,2.9,3.2l0.8,1.5l1.1,1.1c0.7,0.6,1.9,2,2.7,3
		c0.9,1,1.9,2.7,2.2,3.8c0.4,1,1.3,3.1,2.1,4.5c0.8,1.5,1.8,3.5,2.2,4.4s0.8,2.6,1,3.6s0.7,2.7,1.1,3.8c0.5,1.1,1.3,1.6,1.5,1.6
		c0.9,0,2.2,0.8,2.9,1.6c0.7,0.7,2.4,1.7,3.8,2.2c1.6,0.5,3.4,1.8,4.1,2.9c0.5,0.8,1.3,1.2,2.6,1.1c1,0,2.2,0.5,2.9,1.4
		c0.6,0.7,1.5,1.1,2.8,1.1c0.9,0,2,0.2,2.8,0.5l1.7,0.6l138.2,6.4l1.3-1.8c0.8-1.1,1.8-3,2.3-4.1c0.5-1.2,1.8-3.3,3.1-4.6
		c1.2-1.3,2.9-3.1,3.8-4c0.9-0.9,2.3-1.8,3.3-1.9c0.1,0,0.1,0,0.2,0c0.3-0.1,0.7-0.3,1.1-0.6c0.3-0.2,0.6-0.5,0.8-0.8
		c0.6-0.8,1.4-2.1,1.8-2.9c0.4-0.8,1.5-2.1,2.4-2.9c0.9-0.7,1.8-2.1,2-3c0.3-1,1-3.1,1.7-4.6c0.3-0.6,0.4-1.2,0.4-1.8
		c0-0.8-0.2-1.5-0.6-1.8c-0.9-0.7-2-1.9-2.6-2.8c-0.2-0.4-0.4-0.8-0.4-1.3c0-0.8,0.3-1.5,0.9-2.1c0.8-0.7,1.4-2.2,1.4-3.2
		c0-1.2,0.5-3.2,1-4.6c0.6-1.5,2.2-3,3.6-3.4c1.3-0.4,3.7-1.2,5.8-1.8c0.2-0.1,0.4-0.1,0.5-0.2c0.1,0,0.2-0.1,0.3-0.1
		c0,0,0.1,0,0.1-0.1c0.1-0.1,0.2-0.1,0.3-0.2l0,0c0.1-0.1,0.2-0.1,0.3-0.2l0,0c0.4-0.3,0.6-0.5,0.7-0.7c0.1-0.7,0.8-1.9,1.6-2.6
		c0.8-0.8,2.1-1.6,3.1-1.8c0.6-0.2,1.1-0.9,1.1-1.5c0-1,0.7-2,1.5-2.2c0.4-0.1,0.8-0.6,0.8-1.1c0-0.7,0.4-1.7,1.2-3
		c-0.3-0.5-0.5-1.4-0.5-1.9c0-0.7,0.8-1.4,2.2-2.5c-0.4-0.5-1.3-1.4-1.9-1.8c-0.6-0.4-1.8-1-2.8-1.2s-2.8-0.7-3.9-1l-2.3-1.8
		c0-1,8.3-5.9,10-6.8c4.8-2.8,10.7-5.8,12.2-5.8c1,0,2.6-0.7,3.4-1.6c1-1,2.4-2.3,3.3-3c0.8-0.6,1.5-1.6,1.6-2.3
		c0.1-0.9,1-1.8,2-2.2c0.8-0.3,2.2-1.3,3.1-2.1l0,0c0.1-0.1,0.2-0.2,0.3-0.3c0.2-0.3,0.4-0.5,0.6-0.9c0.3-0.4,0.5-0.8,0.7-1.3
		c0.2-0.4,0.3-0.8,0.4-1.1c0.2-1.3,1.3-3.2,2.4-4.4c1.1-1.1,3-2.9,4.2-4c1.2-1,2.2-2.5,2.2-3.4c0-1.1,0.4-2.3,0.8-2.9
		c0.3-0.4,0.5-0.9,0.5-1.5c0-0.8,1.5-2.1,2.3-2.7c1.2-0.9,2.3-2.6,2.5-3.7c0.2-1.3,1.2-2.9,2.3-3.6c0.2-0.1,0.4-0.4,0.7-0.6
		c0.2-0.2,0.4-0.4,0.5-0.7c0.1-0.1,0.2-0.2,0.3-0.4c0.2-0.3,0.3-0.5,0.5-0.8s0.3-0.7,0.4-1c0.2-0.6,0.3-1.2,0.3-1.7
		c0-0.7-0.1-1.2-0.4-1.5c-0.3-0.3-0.5-0.7-0.5-1.1c0-0.4,0.2-0.8,0.6-1c0.3-0.2,0.8-1.1,1-2.2c0.1-1.1,0.5-2.9,1-4l0.5-1.4
		L827.2,176.5z"/>
</g>
<g>
	<path class="st0" d="M506.7,65.2c1,0,2.1,0.2,2.8,0.6c1.1,0.6,2.3,1.6,2.7,2.2c0.3,0.6,0.4,2.1,0.1,3.1c-0.3,1.1-1,2.8-1.6,3.9
		c-0.4,0.6-0.4,1.3,0,1.8s1.1,0.7,2,0.7c1.4,0,3.3,0.5,4.4,1.1c1,0.6,2,1.9,2.3,2.8c0.3,1.1,1.1,3,1.9,4.2c0.7,1.1,0.7,2.7,0,3.6
		c-0.7,1-2.1,2.4-3.1,3.1c-1.1,0.9-1.8,2.5-1.5,3.7c0.3,1-0.2,2.8-1,4.1c-0.8,1.4-1.7,3.2-1.9,4.1l-0.7,3.1
		c-0.2,0.9,0.1,2.5,0.7,3.5c0.5,1,1.2,2.4,1.5,3.1c0.3,1,1.4,1.7,2.5,1.7c0.3,0.1,0.8,1.1,0.5,2.9c-0.3,1.7,0.1,3.9,1.4,4.5
		c0.9,0.4,2.2,1.3,2.8,2.1c0.8,0.8,2.4,2.2,3.6,3.1c1.2,0.9,3.4,2.2,4.8,2.9c1.5,0.7,3.5,1.2,4.6,1.2h1.3l1.1,17.8l-11.7,0.3
		c-7,0.2-14,1.6-16,3.2c-1.9,1.6-4.1,4.4-4.7,6.3c-0.4,1.1-0.6,2.5-0.6,3.6c0,0.6,0.1,1.2,0.3,1.5c0.1,0.9-0.6,1.8-1.7,2.5
		c-1.1,0.6-2.8,1-4,1c-0.3,0-0.5,0-0.7-0.1c-1.3-0.2-3.2-1-4.2-1.7c-1.1-0.7-2.7-1.7-3.7-2.2c-0.8-0.4-2.2-0.7-3.3-0.7
		c-0.3,0-0.5,0-0.8,0.1c-1.1,0.2-3.3,1-5,1.8c-1.7,0.9-3.4,2.5-3.8,3.7s-1,4-1.2,6.4c-0.2,2.2-1.2,3.3-1.8,3.3c-1.3-0.3-3.1-1.2-4-2
		c-1-0.8-2.7-1.9-3.7-2.4s-3.7-2-6-3.4l-1.5-1.7c-0.5-0.6-0.7-0.9-0.8-1.1c0.2,0,0.3,0,0.5,0c0.9,0,1.7-0.3,2.1-0.9
		c0.2-0.3,0.3-0.7,0.3-1.2s-0.1-0.9-0.3-1.3c-0.3-0.7-0.9-2-1.3-2.9c-0.4-1-1.3-2-1.8-2.5c-0.4-0.3-1.2-1.3-1.6-2.2
		c-0.3-0.6-0.4-1.3-0.4-1.7c0-0.2,0-0.3,0.1-0.3c0.1-0.2,0.2-0.5,0.2-0.8c0-0.5-0.1-1-0.3-1.4c-0.2-0.4-0.3-1-0.3-1.6
		c0-0.4,0-0.7,0.1-1c0.2-0.7,0.2-1.8,0.2-2.8c0-0.4,0-0.8,0-1.2c0-0.1,0-0.2,0-0.4c0-1.2,0.4-2.3,0.8-2.7c0.6-0.5,0.9-1.2,0.9-1.8
		c0-0.2,0-0.3-0.1-0.5l-1-2.2c-0.3-0.7-0.9-1.8-1.2-2.4c-0.3-0.5-0.9-2-1.3-3.2c-0.4-1.3-1.6-3-2.6-3.8c-0.8-0.7-1.2-1.3-1.2-1.5
		c0.3-0.5,0.7-2.2,0.8-3c0-0.2,0-0.4,0-0.6c0-1.4-0.8-2.7-2-3.2s-2.9-0.9-3.7-0.9c-0.5,0-1.6-0.4-2.3-0.9c-0.8-0.6-2.5-1.3-3.9-1.6
		l-2.1-0.4l-0.6-1.2c-0.4-0.9-2.1-1.8-3.8-1.9c-1.5-0.1-3.7-0.3-4.9-0.3c-1.2,0-3.2-0.1-4.4-0.3c-0.5-0.1-0.9-0.2-1.1-0.5
		c-0.3-0.3-0.4-0.7-0.3-1c0.3-1.1,0-2.8-0.7-4c-0.7-1.1-1.8-2.6-2.5-3.5c-0.7-0.8-1.4-2.6-1.6-4s-0.1-3.3,0.1-4.1
		c0.3-1-0.9-2.6-2.7-3.6c-1.6-0.9-3.8-2.3-4.9-3c-1-0.7-2.2-1.8-2.5-2.4c-0.4-0.7-1.2-1.7-1.7-2.2s-0.5-1-0.4-1.1c0.3,0,1,0.3,1.7,1
		c1,0.9,2.6,1.5,3.9,1.5c0.2,0,0.4,0,0.6-0.1c1.2-0.2,3.1-0.4,4.2-0.5c1.2,0,2.5,0.4,3.1,1c0.7,0.7,1.5,1.6,1.8,2.1s1,0.8,2.1,0.8
		c0.4,0,0.9-0.1,1.4-0.2c1-0.2,2.6-0.4,3.8-0.4c0.2,0,0.4,0,0.5,0c1.1,0.1,2.6,0.3,3.2,0.5c0.2,0.1,0.4,0.1,0.7,0.1
		c0.8,0,1.9-0.3,2.7-0.8c0.3-0.2,0.7-0.3,1.1-0.3c0.5,0,1,0.1,1.3,0.4c0.8,0.6,2.3,1.8,3.3,2.7c1,0.9,2.9,1.9,4.2,2.4
		c0.5,0.2,1.2,0.3,1.9,0.3c1,0,2.1-0.2,2.8-0.6c1.3-0.7,1.9-2.1,1.4-3.1c-0.4-0.8-0.5-2.1-0.2-2.8c0.3-0.7,1.1-1.1,1.7-1.1
		c0.9,0,2.5-0.5,3.6-1.1c0.5-0.3,1.7-0.5,2.8-0.5c0.6,0,1.2,0,1.8,0.2c0.7,0.1,1.5,0.2,2.2,0.2c1.3,0,2.3-0.2,2.9-0.5
		c0.4-0.3,1.2-0.4,1.9-0.4c0.3,0,0.6,0,0.8,0.1c0.3,0.1,0.6,0.1,1,0.1c1,0,2.3-0.3,3.2-0.8c1.1-0.6,2.6-1.1,3.2-1.2
		c1-0.1,2.4-0.8,3.2-1.7c0.7-0.7,1.8-1.5,2.6-1.6c0.9-0.2,2-0.8,2.4-1.3c0.1-0.2,1.2-0.5,2.9-0.5c0.2,0,0.3,0,0.5,0
		c2.2,0,4-0.7,4.7-1.6c0.5-0.8,2.1-1.9,3.4-2.4c1.6-0.6,3.2-1.7,3.6-2.5s0.3-2.5-0.1-3.8l-0.6-1.8l1.9,0.1c0.2,0,0.4,0,0.6,0
		c1.5,0,3.4-0.2,4.6-0.5C505.8,65.3,506.3,65.2,506.7,65.2z"/>
</g>
<g>
	<path class="st0" d="M707.4,80.8c0.4-0.1,0.9,0.1,1.5,0.5c1.1,0.7,2.6,1.9,3.4,2.6c0.8,0.7,1.5,2.6,1.7,4.1c0.1,1.3,0.6,2,1.4,2
		c0.4,0,0.8-0.2,1.1-0.7c0.1,0.3,0.2,0.9,0.2,1.9v5c0,0.6,0.4,2,0.9,3.1c0.4,1.1,1.2,2.7,1.7,3.6s0.7,2,0.6,2.5
		c-0.1,0.7,0.3,1.5,0.9,1.9c0.3,0.2,1,1,1.3,1.9c0.4,0.8,0.9,2,1.2,2.6c0.3,0.5,0.6,1.4,0.6,1.9c0.1,0.6,0.5,1.5,0.9,2.1
		c0.3,0.3,0.1,0.9-0.3,1.2c-0.7,0.5-1.1,1.3-1.1,1.8c0,0.3,0.1,0.5,0.3,0.6c0.2,0.2,0.5,0.2,0.8,0.2c0.2,0,0.4,0,0.7-0.1
		c0.7,0,1.3,0.1,1.6,0.3c0.6,0.4,1.5,1.3,2,2.1c0.6,0.9,2.6,1.8,4.5,2c1.8,0.2,4,0.4,4.9,0.4c0.8,0,2.2,0.5,3,1.2s1.8,1.9,2,2.6
		c0.3,0.8,0.3,2.1,0,2.9c-0.2,0.7-1.3,1.7-2.2,2c-1.6,0.6-1.8,0.8-1.7,1.1c0.1,0.2,0.3,0.3,0.5,0.3c0.7,0,1.3,0,1.8,0.1
		c0.2,0.1,0.1,0.2-0.1,0.4c-0.6,0.4-1.6,1.4-2.2,2.1c-0.6,0.7-2,1.7-3,2.2c-1.4,0.7-1.6,0.9-1.4,1.2l0.2,0.3h0.4l2.3-0.6
		c0.7,0,1.3,0.1,1.7,0.3l0.6,0.3l-0.5,0.3c-0.4,0.2-1.2,0.4-2,0.4c-0.5,0-0.7,0-1,0c-1,0-2.3,0.1-3.2,0.3c-1.3,0.2-2.7,1.2-3.3,2.3
		c-0.6,0.9-1.4,2.5-2,3.5c-0.5,0.9-1.6,2-2.3,2.4c-0.8,0.4-2.2,0.9-3,1.1c-1,0.2-3,1.1-4.6,2s-3.6,2.1-4.4,2.9
		c-0.8,0.7-1.9,1.9-2.4,2.6c-0.4,0.7-1.4,1.8-2.1,2.5c-0.7,0.7-2.1,1.9-3,2.7c-1,0.8-2,2.1-2.3,2.8s-0.9,2.1-1.5,3.2l-0.9,1.8
		l-2.9,0.9c-1.7,0.5-3.7,1-4.5,1.1c-1.1,0-2.6-0.2-3.6-0.6c-1.1-0.4-2.2-1.5-2.4-2.5c-0.2-1.3-1.3-2.4-2.4-2.4c-0.6,0-1-0.3-1-0.8
		c0-0.7-0.6-1.9-1.5-2.6c-0.7-0.6-1.2-1.6-1.2-2.2c0-0.8-0.5-2.1-1.2-3c-0.7-0.8-2.3-2.3-3.7-3.2c-1.3-0.8-2.8-2.4-3.3-3.4
		s-1.6-3.1-2.3-4.5s-1-3.3-0.7-4.3s0.2-2.4-0.5-3c-0.6-0.4-1.7-1.1-2.6-1.4c-0.7-0.3-2-1.3-2.8-2.5c-0.8-1.1-1.6-2.7-1.7-3.5
		c-0.1-1-0.8-2.2-1.5-2.7s-1.9-1.1-2.9-1.4c-0.7-0.2-1.7-0.3-2.6-0.3c-0.2,0-0.4,0-0.6,0c-0.9,0-1.8-0.2-2.3-0.5
		c-0.8-0.4-1.9-1-2.5-1.2s-1.7-0.8-2.4-1.3s-2.4-1.4-3.7-2.1s-4.4-1.3-6.8-1.4c-2.1-0.1-4.1-1.3-4.5-2.8s-0.1-3.5,0.6-4.4l1.2-1.5
		l2.1,0.4l1.1,1c0.7,0.7,2.7,1.6,4.6,1.9c0.9,0.2,2,0.3,3,0.3c1.1,0,2.1-0.1,2.8-0.3c1.3-0.4,3.5-1.3,5-2.1c0.9-0.5,2.1-0.8,3.1-0.8
		c0.3,0,0.6,0,0.8,0.1c1.2,0.4,3.6,0.7,5.5,0.7s3.5,0.3,3.8,0.5c0.5,0.4,1.2,0.6,1.7,0.6c0.9,0,1.9,0.1,2.7,0.2
		c0.2,0,0.5,0.1,0.8,0.1c1.2,0,2.7-0.4,3.6-0.9c1.1-0.6,2.9-1.6,4-2.2c1.2-0.6,2.5-1.7,3-2.4c0.5-0.7,1-1.9,1-2.7
		c0.1-0.8,0.3-1.4,0.4-1.5c0.2-0.3,1.1-1.6,1.9-2.7c0.9-1.3,1.7-2.9,1.9-3.7c0.2-0.6,1-1.5,1.8-1.9c1-0.5,2.5-2.1,3.3-3.5
		c0.8-1.3,2.7-3.4,4.2-4.8c1.4-1.2,3-2.8,3.3-3.3c0.1-0.3,0.8-1,1.5-1.5l1.3-0.9l1.2-0.6c0.6,0,1.4,0.3,1.9,0.9
		c0.7,0.8,1,0.9,1.3,0.9c0.7-0.4,0.6-0.7,0.4-1c-0.4-0.8-0.8-1.8-1-2.3C707.2,82.1,707.2,81.3,707.4,80.8z"/>
</g>
<g>
	<path class="st0" d="M437.3,118.1l2,0.4c1.2,0.2,2.8,0.9,3.4,1.4c0.8,0.6,2.2,1.1,3,1.1c0.6,0,2,0.3,3.2,0.8c1,0.4,1.6,1.8,1.4,3
		c-0.2,1.4-0.5,2.6-0.7,2.8c-0.6,0.7,1,2.1,1.4,2.4c0.9,0.8,2,2.4,2.4,3.5c0.4,1.2,1,2.7,1.4,3.3c0.3,0.6,0.8,1.6,1.1,2.3l1,2.2
		c0.1,0.3-0.1,1-0.7,1.5c-0.8,0.7-1.2,2.4-1.1,3.6c0.1,1.3,0,3-0.2,3.9c-0.2,1-0.1,2.3,0.2,3c0.3,0.6,0.3,1.3,0.2,1.6
		c-0.3,0.6,0,1.8,0.4,2.6c0.5,1,1.3,2,1.8,2.5c0.4,0.3,1.2,1.3,1.6,2.2s1,2.2,1.3,2.9s0.3,1.5,0,1.9c-0.2,0.2-0.6,0.4-1.1,0.4
		c-1.8,0.8-1.1,1.7-0.5,2.3l1.5,1.8c2.4,1.6,5.2,3.1,6.3,3.6c1,0.5,2.6,1.5,3.5,2.3c1,0.8,2.9,1.8,4.2,2.2c2,0.1,3.1-1.6,3.4-4
		c0.2-2.3,0.7-5.1,1.1-6.2c0.4-1,1.9-2.5,3.4-3.3s3.6-1.6,4.6-1.7c1.5,0,2.6,0.2,3.2,0.5c0.9,0.5,2.5,1.4,3.6,2.2s3.2,1.6,4.6,1.8
		c2.4,0.1,4.3-0.4,5.6-1.1c1.7-0.9,2.6-2.4,2.1-3.4c-0.3-0.6-0.2-2.7,0.4-4.6c0.6-1.8,2.6-4.5,4.5-6c1.8-1.4,8.8-2.8,15.3-2.9
		l11.8-0.3l0.7,2.2c0.4,1.3,0.6,3.4,0.4,4.7c-0.2,1.3,0.1,2.8,1,3.3c0.5,0.3,1.1,0.9,1.3,1.4c0.2,0.6,0.5,1.4,0.6,2
		c0.1,0.8,2,2.3,3.6,3.3c1.9,1.2,3.4,2.7,3.7,3.3c0.4,0.9,1.6,2,2.7,2.6c1,0.5,2.7,1.4,3.8,2c1.1,0.7,3.5,1.9,5.4,2.8
		c1.9,0.9,4.4,2.2,5.7,2.9c1.3,0.8,3.6,1.5,5,1.7c1.3,0.2,3.4,0.7,4.6,1.1c1.2,0.5,2.7,1.2,3.3,1.7s2.5,1.6,4.1,2.4
		c1.6,0.8,3.1,2,3.5,2.5c0.4,0.6,1.4,1,2.6,1c1.2-0.2,1.7-0.2,2.1-0.2c1,0,2.1,0.1,2.8,0.3c0.5,0.6-1.4,6.1-6.2,14.2l-1.7,2.9
		c-4.6,7.6-11.9,20.2-16.4,27.9L552.9,267l-1.3,1.7c-0.7,0.9-1.4,2.1-1.4,2.6s0.2,1.5,0.5,2.4s1.4,2.3,2.6,3.2
		c1,0.8,2.3,2.1,2.7,2.9l0.7,1.3l-1,1.2c-0.7,0.9-1.2,2.2-1.1,3.1c0.1,0.7-0.4,1.8-1.1,2.5c-0.7,0.7-1.5,1.7-1.6,2.2
		s0.3,1.4,0.7,2.1c0.4,0.6,0.7,1.6,0.6,2.2c-0.1,0.7-0.4,1.9-0.7,2.8c-0.3,0.8-0.8,1.8-1.3,2.3c-0.5,0.6-0.9,1.6-0.9,2.3
		c0,0.6-0.2,1.6-0.5,2.3l-0.4,1l-68,2.3l-1.8-0.7c-0.6-0.2-1.3-0.3-2-0.3s-1.4,0.1-1.8,0.4c-0.8,0.4-1.8,1.2-2.2,1.7
		c-1.4,0.2-2,0.2-2.4,0c-1.1-0.4-2.4-1.3-2.8-2.1c-0.5-1-1.8-2.1-3-2.4c-0.9-0.3-2.1-1.1-2.6-1.9c-0.6-0.9-1.9-1.8-3-2
		c-0.7-0.1-2.1-0.9-2.9-1.9c-0.9-1-3-2.2-4.7-2.6c-1.6-0.4-4.6-0.8-6.7-0.8c-2,0-5.1,0.1-6.9,0.3c-1.8,0.2-3.8,0.9-4.1,1.9
		c-0.2,0.6-1.3,1.7-2.7,2.4c-1.4,0.7-3.2,1.8-4.1,2.4c-1,0.7-1.5,1.9-1.1,2.8c0.3,0.7,0.5,1.7,0.5,2.2c0,0.3-0.5,0.6-1,0.6
		c-0.6,0-1.1,0.2-1.5,0.5c-0.3,0.3-0.4,0.6-0.4,1c0.1,0.5-0.1,1.2-0.5,1.6c-0.3,0.3-1.6,0.8-2.9,1c-1.4,0.2-3.3,0.6-4.2,0.9
		c-0.8,0.3-2.2,0.7-3.1,0.8c-0.9,0.2-2.4,0.3-3.3,0.3c-1.1,0-2.4,0.5-2.9,1.2c-0.5,0.6-0.8,1.6-0.8,2.2c0,0.4-0.7,1.4-2,2.4
		c-0.8,0.6-1.5,0.8-1.9,0.8c-0.7-0.6-1.6-1.2-2.3-1.5c-1.6-0.1-2.4,0.1-3.1,0.5c-0.7,0.5-1.9,1.3-2.5,1.8c-0.5,0.4-1.7,0.8-2.5,0.8
		c-1.1,0-2.7,0.5-3.6,1.1c-0.3,0.2-0.8,0.3-1.3,0.3c-0.6,0-1.2-0.1-1.7-0.3c-1.2-0.6-3.4-1.1-4.9-1.1h-4.6c-1.4,0-2.8,0.6-3.2,1.3
		c-0.3,0.6-0.8,1.4-1.1,1.9c-0.2,0.4-1.1,1-2.1,1.4s-2.5,1.2-3.3,1.8c-1,0.7-1.4,2.1-0.8,3.1l-3.6-1.5c-2.9-1.5-7.7-3.2-10.6-3.9
		c-2.8-0.7-8-2-11.4-3.1c-3.5-1.1-9.5-2.8-13.4-3.9s-10.2-3.3-14.1-4.8s-10.3-3.8-14.2-5.1c-3.9-1.3-9.7-3.1-12.8-4.1
		c-3.2-1-9.8-2.4-14.8-3.1s-12.5-1.9-16.8-2.6s-10.6-1.6-14-1.9c-3.3-0.3-9.6-1.5-14-2.6s-10.2-2.7-13-3.5l-4.6-1.4v-1.5
		c0-0.9,0.8-2.3,1.7-3.2c1-0.9,2.7-2.2,3.8-2.9c1-0.7,3-1.5,4.3-1.8c1.6-0.4,2.8-1.7,2.8-2.9c0-1.1-0.6-3-1.4-4.1
		c-0.7-1-0.7-2.4,0-3.2c0.7-0.9,2.1-2.6,3-4c1-1.4,1.7-3.6,1.7-4.9c0-1.2,0.1-2.8,0.3-3.5s0.4-1.8,0.5-2.5c0.1-0.4,0.9-1.3,2.1-1.7
		c1.2-0.5,2.9-1.3,3.9-1.8c0.9-0.5,2.2-1.1,2.9-1.4c0.9-0.3,1.8-1.2,2.1-2c0.2-0.6,1.2-1.1,2.1-1.3c1.2-0.2,3.1-1,4.4-1.9
		c1.2-0.8,3-2.1,4.1-2.8c0.7-0.4,1.6-0.7,2.4-0.7c1.3,0.3,2,0.4,2.6,0.4c0.9,0,1.8-0.1,2.6-0.4c1.4-0.5,2.7-0.8,3.1-0.9
		c0.6-0.1,1.6-0.6,2.2-1s1.9-0.7,2.9-0.8c1.8,0,2.6,0,3,0.1c1.2,0,2.3-0.6,3.1-1.6c0.7-0.8,2.2-1.7,3.4-2c1.3-0.3,3.3-0.7,4.3-0.9
		c0.6-0.1,1.5-0.2,2.2-0.2c1.6,0.2,2.7,0.8,3.4,1.5c0.6,0.7,1.5,1.1,2.3,1.1c1.3-0.4,1.9-0.5,2.4-0.5l2.3,0.6l1.5-4.5
		c0.7-2.3,1.6-5.5,2-7.3s1.3-7,2.2-11.6c0.8-4.7,2.2-11.7,3-15.7s1.6-8.2,1.7-9.2s0.6-2.6,1.1-3.4c0.6-1,0.7-2.9,0.2-4.2
		s-1.8-3.5-3.1-4.8c-1.3-1.4-1.9-2.8-1.8-3.3c0.2-0.8-0.1-1.8-0.8-2.3c-0.6-0.4-2.2-1.5-3.5-2.3c-1.4-0.8-3.2-2.2-4.1-3.1
		c-0.8-0.8-1.8-3.8-2.1-7.2c-0.3-3.4,0.3-5.6,0.7-5.9c0.8-0.3,2.6-0.7,4.1-0.9c1.4-0.2,3.2-0.6,3.8-1c0.5-0.3,1.8-0.8,2.8-1.1
		c0.3-0.1,0.7-0.2,1.2-0.2c0.8,0,1.6,0.1,2.2,0.4c0.9,0.4,2,0.6,2.9,0.6c1.8-0.4,2.5-1.3,2.5-2.3c0-0.8-0.6-2.4-1.4-3.6
		c-0.8-1.2-3-2.1-4.9-2.1c-0.6,0-1,0-1.4,0c-1.7,0-3.8-0.1-5-0.3c-1.4-0.2-2.8-1.7-3.1-3.2c-0.3-1.7-0.3-4,0-5
		c0.2-0.9,1.4-1.9,2.6-2.1c1.3-0.3,3.1-0.6,4-0.8c0.4-0.1,0.9-0.1,1.4-0.1s0.9,0,1.2,0.1c0.9,0.2,3.5,0.3,5.6,0.3
		c2.3,0,5.8-0.1,7.9-0.1c2-0.1,5.2-0.3,7-0.5c1.4-0.2,3.1-0.3,4.2-0.3c1.3,0,1.8-0.1,2.1-0.4c0.4-0.4,0.5-0.9,0.3-1.5
		c-0.3-0.8-0.2-1.7,0.1-2c2-0.1,2.7,0.5,2.9,0.9c0.3,0.7,1.3,1.4,2.1,1.6c1.7,0.1,3-0.3,4.1-0.8c1.3-0.7,3.1-1.8,3.9-2.5
		s2.4-1.5,3.7-1.9c0.4-0.1,0.8-0.2,1.3-0.2c0.7,0,1.5,0.2,1.8,0.5c0.7,0.6,1.9,1.8,2.6,2.7c0.7,0.9,1.7,2.2,2.2,2.8
		c0.4,0.6,0.9,1.7,1.1,2.3c0.2,0.7,0.2,1.8,0.2,2.6c-0.1,0.8-0.2,2-0.3,2.7c0,0.4,0.1,0.7,0.4,1c0.4,0.3,1,0.5,1.7,0.5l2.5-0.3
		l2.3,1.1c1.3,0.6,3.3,1.8,4.4,2.7s2.8,2,3.8,2.4c0.9,0.4,2.5,0.9,3.5,1.2c0.6,0.2,1.6,0.3,2.6,0.3c0.6,0,1.3,0,1.8-0.1
		c1.4-0.2,3-1,3.7-1.7c0.5-0.6,1.6-1.3,2.3-1.7c0.8-0.3,2.2-0.9,3.1-1.1c1.5-0.1,2,0,2.3,0.2c0.5,0.3,0.7,1,0.5,1.5
		c-0.3,0.7-0.5,1.9-0.5,2.7c0,0.4,0.1,0.7,0.4,0.9c0.3,0.3,0.6,0.4,1.1,0.4c1.8-0.6,2.9-1.7,3.3-2.7c0.3-0.8,1.3-1.5,2.1-1.6
		c1.1-0.2,2.3-0.6,2.6-1.1c0.2-0.4,0.5-1.2,0.7-1.9c0.1-0.5,1.4-1.4,2.9-1.9c1.6-0.6,3.2-1.2,3.7-1.4c0.3-0.2,1.5-0.3,2.6-0.3
		c1.3,0,2.7-0.5,3.1-1.2c0.3-0.5,1.4-1.4,2.3-1.9c0.4-0.2,1-0.4,1.4-0.4c1,0.5,1.4,0.6,1.9,0.6c0.7,0,1.5-0.3,2.2-0.8
		c0.9-0.7,2.3-1.6,3.1-2c1-0.5,1.8-1.7,1.9-2.7c0.1-0.8,0.7-2.2,1.4-3c0.7-0.9,1.7-1.4,2.1-1.5c0.7-0.1,2-0.4,2.8-0.8
		s2.2-0.9,3.1-1.1c0.9-0.3,2.3-0.7,3.1-0.9c0.9-0.2,2.1-0.9,2.6-1.4L437.3,118.1z"/>
</g>
<g>
	<path class="st0" d="M208.9,290.6l4,1.2c2.7,0.8,8.6,2.4,13,3.5c4.5,1.1,10.8,2.3,14.2,2.6c3.4,0.3,9.6,1.2,13.9,1.9
		c4.3,0.7,11.8,1.9,16.8,2.6c4.9,0.7,11.5,2.1,14.6,3.1s8.9,2.8,12.8,4.1c3.9,1.3,10.2,3.6,14.1,5.1s10.3,3.7,14.2,4.9
		c3.9,1.1,9.9,2.9,13.4,4s8.6,2.4,11.5,3.1c2.8,0.6,7.4,2.3,10.3,3.8l4.6,2.4l-0.5,0.3c-0.7,0.4-2.8,1.9-4.7,3.5
		c-1.8,1.4-3.7,2.3-4.4,2.3c-0.2,0-0.3-0.1-0.5-0.1c-1.1,0-2.5,0.7-3.6,1.7s-2.7,2.3-3.6,2.7c-1,0.5-2.1,1.4-2.6,2
		c-0.4,0.5-1.1,0.8-1.6,0.8c-0.7,0-2.3,0.1-3.6,0.3c-1.4,0.2-3.3,0.8-4.4,1.4s-2.5,1.8-3.1,2.7c-0.6,0.8-1.9,1.7-2.9,2
		c-1.1,0.4-2.9,1.2-3.8,1.9c-0.4,0.3-1.1,0.4-1.8,0.4c-0.5,0-1-0.1-1.4-0.2c-1.2-0.5-3.4-1.2-5-1.4c-1.5-0.3-4-0.5-5.6-0.5H308h-2.3
		l-3.5-0.3c-0.2,0-0.4,0-0.6,0c-2.1,0-5.7,0.7-8.4,1.6c-1.6,0.6-3.4,0.9-4.9,0.9c-0.9,0-1.5-0.1-1.9-0.3c-1-0.6-2.4-1.2-3.2-1.3
		c-0.3-0.7-0.9-3.9-1.1-9c-0.2-5.5-0.2-10,0-10.6c0.2-0.8,0.1-1.9-0.4-2.5c-0.2-0.2-0.2-1.2,0.4-2c0.4-0.6,0.5-1.1,0.2-1.4
		c-0.2-0.2-0.4-0.3-0.7-0.3c-0.2,0-0.5,0.1-0.7,0.2c-0.8,0.4-2.4,1.2-3.4,1.8c-1,0.6-3.1,2-4.5,3.1c-1.5,1.1-3.8,2.6-5.2,3.6
		c-1.3,0.9-3.3,1.8-4.4,2c-1.2,0.2-3.7,0.4-5.7,0.5s-5.3,0.1-7.3,0.1s-3.1-0.5-3.1-0.8c0-0.7-0.3-1.7-0.7-2.2s-1.2-1.8-1.8-2.9
		c-0.7-1.3-2.6-2.3-4.3-2.4c-1.4-0.1-4-0.3-5.6-0.5c-1-0.1-2.6-0.2-4.3-0.2c-1,0-1.9,0-2.7,0.1c-0.3,0-0.6,0-0.9,0
		c-1.5,0-2.2-0.3-2.2-0.4c0.1-0.4,0.7-1.1,1.4-1.5c1-0.5,1.8-1.8,1.9-3c0.1-1-0.1-2.4-0.6-3c-0.4-0.5-1.3-1.6-2-2.3
		c-0.8-0.8-2.4-1.8-3.5-2.3c-1-0.4-2-1.2-2.2-1.9c-0.3-0.9-1.2-1.9-2.1-2.3c-0.7-0.3-1.8-1.1-2.4-1.6c-0.6-0.5-1.6-2-2.2-3.2
		c-0.6-1.2-1.8-2.7-2.7-3.1c-0.5-0.3-0.8-1-0.6-1.6c0.3-1-0.4-2.2-1.7-2.7c-1-0.5-2.3-1.4-2.8-2s-0.8-1.7-0.6-2.4
		c0.1-0.6,1.3-1.3,2.4-1.5c0.8-0.1,1.4-0.5,1.9-1c0.5-0.6,0.6-1.3,0.4-1.9L208.9,290.6z"/>
</g>
<g>
	<path class="st0" d="M1025.7,246l0.6,1c0.5,0.8,2.2,1.6,3.7,1.9c1.4,0.2,3.1,0.5,3.8,0.6c0.6,0.1,1.8,0.7,2.6,1.3
		c1,0.8,4.8,1.4,7.9,1.5h1.9c1.1,0.1,3,0.3,4.2,0.4c0.2,0,0.5,0,0.8,0c0.9,0,2.1-0.1,2.7-0.3c0.1-0.1,0.4-0.1,0.6-0.1
		c0.5,0,1,0.1,1.4,0.2c0.9,0.3,2.8,0.7,4.3,0.8c1.4,0.1,3.3,0.6,4.3,1.1c0.9,0.5,2.4,1.9,3.1,3.2c0.8,1.3,1.9,3.5,2.3,4.9
		c0.5,1.4,1.1,3.5,1.5,4.7s0.7,2.9,0.8,3.9c0.1,1,0.6,2.6,1,3.6c0.4,0.9,0.9,2.1,1,2.6l0.1,0.5l-1.3-0.2c-1-0.1-3.3-0.6-4.9-1.1
		c-1.7-0.5-4.4-0.9-5.9-0.9h-5.2c-1.3,0-3.9-0.3-5.6-0.6c-1.7-0.3-4.1-1.1-5.1-1.8c-0.7-0.5-1.6-0.7-2.3-0.7c-0.6,0-1.1,0.2-1.4,0.5
		c-0.5,0.6-0.8,1.9-0.8,3c0,1-0.4,1.9-0.6,2.1c-0.6,0.5-1,1.8-1.1,2.9c-0.1,1-1,1.9-1.9,2.1c-0.1,0-0.3,0-0.4,0
		c-0.7,0-1.4-0.4-1.7-1.1c-0.4-1.1-1.5-2.3-2.5-2.9c-0.5-0.3-1.4-0.4-2.3-0.4s-1.9,0.1-2.7,0.4c-0.8,0.2-1.8,0.4-2.6,0.4
		c-0.6,0-1.2-0.1-1.5-0.2c-0.9-0.4-2.4-1.1-3.2-1.5c-0.7-0.3-1.1-0.8-1.1-1c0.1-0.3,0.4-0.8,0.8-1c0.6-0.3,1.1-1.3,1.3-2
		s1.2-1.8,2.2-2.6c1.1-0.9,2.3-2.2,2.6-3.1c0.1-0.2,0.1-0.3,0.1-0.5c0-0.3-0.1-0.5-0.3-0.7c-0.3-0.3-0.9-0.5-1.6-0.5
		c-0.2,0-0.4,0-0.5,0c-0.8,0.1-1.8,0.2-2.5,0.2c-0.2,0-0.5,0-0.6,0s-0.2,0-0.3,0c-0.8,0-2.3,0.3-3.9,0.8c-1.5,0.5-3.4,1.4-3.9,2.2
		c-0.4,0.5-1.3,1.2-2,1.4c-0.9,0.3-2.4,1-3.4,1.7c-0.6,0.4-2,0.7-3.2,0.7c-0.3,0-0.7,0-0.9-0.1c-1.6-0.2-3.9-0.8-5.3-1.2l-2.2-0.6
		l-0.2-1.1c-0.1-0.6,0.5-1.9,1.2-2.7c0.7-0.7,1.8-1.2,2.4-1.2c0.3,0,0.4,0,0.6,0c1.1,0,2.6-0.7,3.7-1.6c1.2-1,2.6-2.8,3.2-4
		c0.5-1.1,1.7-2.9,2.6-4c0.9-1.1,2.8-3.4,4.2-5.1c1.3-1.6,3.2-3.4,4.2-3.8c1-0.5,3.1-1.2,4.7-1.5L1025.7,246z"/>
</g>
<g>
	<path class="st0" d="M1010.8,316.7c0.4,0.2,1.1,0.5,1.6,0.8s1.5,0.5,2.3,0.5c0.1,0,0.3,0,0.4,0c0.7,0,1.6,0.3,2.2,0.9
		c0.8,0.7,1.8,1.5,2.4,1.8c0.5,0.3,1.2,1,1.6,1.6c0.5,0.7,1.9,1.6,3.2,2c1.2,0.3,3.4,0.7,4.9,0.9c0.7,0.1,1.8,0.1,2.8,0.1
		s2.1,0,2.9-0.1c1.7-0.2,3.6-0.6,4.4-0.9c0.7-0.3,1.8-0.5,2.6-0.5c1,0,2.2-0.5,2.7-1.2c0.4-0.5,1.6-1.4,2.7-1.9s3.5-1,5.3-1.1
		c1.9-0.1,4.5-0.4,5.8-0.6c0.4-0.1,1-0.1,1.6-0.1c0.8,0,1.6,0.1,2.1,0.3c1,0.3,3,0.7,4.4,0.9l1.8,0.2l-0.7,1
		c-0.6,0.8-1.6,2.3-2.3,3.2c-0.7,0.9-2.3,2.3-3.6,3.1c-1.3,0.9-3.3,2.4-4.6,3.5c-1.1,0.9-2.5,1.5-3.2,1.5c-0.3,0-0.4,0-0.6,0
		c-1.1,0-1.8,0.6-1.8,1.4c0,0.6-0.5,1.6-1.1,2.2c-0.7,0.7-1.7,1.8-2.4,2.6c-0.6,0.7-2.5,2.1-4,3.1c-1.1,0.7-3.2,2.1-3.2,3
		c0,0.3-0.4,0.9-0.9,1.2l-0.8,0.5l-1.2-0.7c-0.8-0.5-1.7-1.5-2.2-2.3c-0.5-1-1.8-1.9-2.9-2c-0.8-0.1-2.1-0.7-2.7-1.2
		c-0.7-0.5-1.5-1.4-1.7-2c-0.4-0.8-2.2-2.1-3.7-2.9c-1.7-0.9-3.8-2-4.8-2.5c-1.1-0.6-2.9-1.1-4.1-1.2c-1-0.1-2.5-0.4-3.3-0.7
		c-0.8-0.4-2.1-1-3-1.4c-0.8-0.4-2.3-1-3.3-1.3l-1.5-0.4l-0.4-0.7c-0.3-0.6-1.5-1.2-2.6-1.3c-0.6,0-1.3-0.9-1.4-1.9l-0.1-1.8
		l1.8-0.4c1.3-0.2,3.3-0.8,4.5-1.2c1.3-0.5,2.7-1.6,3.1-2.6C1010.3,317.1,1010.7,316.8,1010.8,316.7z"/>
</g>
<g>
	<path class="st0" d="M445.8,295.6c2,0,4.8,0.3,6.3,0.7c1.5,0.4,3.4,1.4,4.1,2.3c0.9,1.1,2.5,2,3.6,2.2c0.8,0.1,1.9,0.9,2.3,1.5
		c0.6,0.9,2,1.9,3.1,2.2c0.9,0.3,2,1.2,2.4,2c0.5,1,1.9,2.1,3.3,2.6c0.6,0.2,1.2,0.3,1.8,0.3c0.9,0,1.5-0.2,1.8-0.6
		c0.4-0.4,1.3-1.1,2-1.5c0.3-0.1,0.7-0.2,1.2-0.2s1.1,0.1,1.5,0.2l1.7,0.7l0.5,1.2c0.3,0.7,0.3,1.7,0,2.4c-0.4,0.8-0.3,2.1,0.2,2.9
		c0.3,0.5,0.1,1.2-0.5,1.4c-0.6,0.2-1,0.6-1.1,1c-0.1,0.3,0.1,0.7,0.4,0.9c0.4,0.3,0.9,1.1,1,1.7s0.3,1.8,0.4,2.5
		c0.1,0.8,0.1,1.6,0,1.9c-0.1,0.5-0.1,1.7,0,2.6c0.1,1,0.1,2.4,0,3.3s-0.2,2.2-0.2,3s0.6,2,1.3,2.7c0.5,0.6,0.9,1.5,0.9,2.1
		c-0.1,0.7-0.2,1.9-0.2,2.7c0,0.8-0.2,1.8-0.5,2.3c-0.4,0.7-0.4,1.8,0,2.5c0.4,0.8,1.5,1.5,2.7,1.7c1.1,0.2,6.6,0.3,11.2,0.3
		c5.7,0,9.9,0.3,10.4,0.5c0.9,0.4,2.8,0.4,3.4,0.4s1.2,0,1.7-0.1c0.2,0,0.3,0,0.5,0c1.7,0,3.7,0.7,4.7,1.6l0.7,2.2
		c0.1,0.6-0.5,1.9-1.6,2.7c-1.3,1-2,3-1.7,4.4c0.3,1.5,1.4,3.2,2.5,3.9c0.9,0.6,1.6,1.8,1.7,2.7c0.1,1,0.5,2.5,0.8,3.3
		c0.3,0.6,0,2.3-0.7,3.8s-1.7,3.6-2.1,4.7c-0.4,1-1.6,2.4-2.7,3c-1.2,0.7-2.8,2.2-3.4,3.4c-0.6,1.2-1.3,2.7-1.4,3.5
		c-0.1,0.5-1,1.4-2.2,1.7c-1.3,0.4-3.2,1.4-4.3,2.3l-1.5,1.2l-3.3-1.5c-1.5-0.7-3.2-1.1-4.4-1.1c-0.5,0-0.9,0.1-1.2,0.2
		c-0.5,0.3-1.3,0.5-1.9,0.5c-0.6-0.1-0.9-0.1-1.2-0.1c-0.8,0-1.8,0.1-2.6,0.3c-0.3,0.1-0.7,0.1-1.1,0.1c-0.7,0-1.4-0.1-1.8-0.3
		c-0.5-0.2-1.2-0.4-1.9-0.4c-0.7,0-1.4,0.1-2,0.3c-0.3,0.1-0.7,0.2-1.1,0.2c-0.6,0-1.1-0.1-1.5-0.4l-3-2.3c-0.9-0.7-2-1.9-2.4-2.7
		c-0.5-0.9-1.9-1.5-3.3-1.5c-0.2,0-0.3,0-0.5,0c-0.3,0-0.7,0.1-1.2,0.1c-1.1,0-2.5-0.1-3.4-0.3c-1.3-0.3-3-0.9-3.8-1.3
		c-0.7-0.4-1.7-0.7-2.5-0.7c-0.3,0-0.6,0-0.8,0.1c-0.8,0-1.3-0.2-1.5-0.5c-0.5-0.7-1.6-1.3-2.5-1.4c-0.6-0.1-1.4-0.6-1.7-1.1
		c-0.4-0.6-1.2-1.4-1.8-1.9c-0.4-0.3-1.2-0.5-2-0.5c-0.5,0-0.9,0.1-1.4,0.2c-0.2,0.1-0.5,0.1-0.8,0.1c-1,0-2.4-0.3-3.4-0.7
		c-1.6-0.7-4-1.4-5.3-1.6c-0.5-0.1-1.2-0.1-1.9-0.1c-1,0-2,0.1-2.7,0.3c-0.6,0.1-1.6,0.2-2.5,0.2c-0.7,0-1.3,0-1.9-0.1
		c-1.5-0.2-3.6-0.4-4.8-0.4c-0.9,0-2.3-0.4-2.8-0.8c-0.6-0.4-1.2-1.3-1.4-2c-0.2-0.8-1.3-1.7-2.5-2c-1-0.2-2-0.6-2.2-0.9
		c-0.4-0.4-1.4-1-2.3-1.4c-0.8-0.4-2.2-0.9-3-1.2l-1.3-0.5l-0.9-1.4c-0.6-1-2-1.8-3.2-2c-0.5-0.1-0.8-0.2-0.8-0.4
		c0.5-0.9,0.2-1.9-0.7-2.6c-0.7-0.5-1.6-1.5-2.1-2.2c-0.4-0.7-0.9-2-1.1-2.8c-0.2-0.9,0-2.3,0.3-3.1c0.4-1,0.6-2.4,0.5-3.2
		c-0.1-0.8-0.6-2.1-1.2-3c-0.5-0.7-1.1-2.1-1.3-2.9l-0.3-1.5l1.4-2.1c0.9-1.3,1.5-3,1.4-3.9c-0.1-0.8-0.2-2.1-0.2-2.9
		c0-0.9-0.4-2-0.9-2.6s-1.2-1.3-1.5-1.7l-0.9-0.8l-1,0.2c-0.6,0.1-1.3,0.9-1.7,1.5c-0.2,0.4-0.6,0.6-0.8,0.6
		c-0.7-0.2-1.8-0.3-2.4-0.3s-1.2,0-1.8,0.1c-1.6,0.1-3.5,0.4-4.3,0.7c-0.7,0.2-2.1,0.4-3.1,0.4c-1.1,0-3.1,0.2-4.3,0.5
		c-1.2,0.3-2.7,0.6-3.3,0.8c-0.7,0.1-2.2,0.6-3.5,0.9l-1.9,0.5l-0.6-1c-0.1-0.3-0.2-0.5-0.2-0.8c0-0.6,0.3-1.1,0.7-1.4
		c0.8-0.6,2.2-1.3,3.2-1.7c1-0.4,2.1-1.2,2.5-1.8c0.3-0.5,0.8-1.3,1.2-1.9c0.2-0.4,1.2-0.8,2.2-0.8h4.6c1.3,0,3.2,0.4,4.3,1
		c0.6,0.3,1.4,0.5,2.2,0.5c0.8,0,1.5-0.2,2-0.5c0.8-0.5,2.1-0.9,2.9-0.9c1.1,0,2.5-0.4,3.2-1c0.6-0.5,1.7-1.3,2.5-1.7
		c0.4-0.3,1.1-0.4,1.5-0.4c0.9,0.3,1.7,0.8,2.1,1.2c0.2,0.3,0.6,0.4,1,0.4c0.8,0,1.8-0.4,2.6-1c1.1-0.8,2.3-2.1,2.3-2.9
		c0-0.5,0.3-1.3,0.7-1.9c0.3-0.4,1.3-0.8,2-0.8c1,0,2.6-0.1,3.5-0.3c1-0.2,2.5-0.6,3.4-0.9c0.8-0.3,2.6-0.7,3.9-0.8
		c1.3-0.2,3-0.7,3.6-1.3c0.4-0.5,0.7-1.2,0.7-1.9c0.3-0.8,0.5-0.9,0.8-0.9c1.1,0,2.1-0.6,2.1-1.4c0-0.6-0.3-1.7-0.6-2.5
		c-0.1-0.1-0.1-0.3-0.1-0.4c0-0.5,0.4-1.2,0.9-1.5c0.8-0.6,2.6-1.6,4-2.3c1.5-0.8,2.8-2.1,3.1-2.9c0.1-0.5,1.5-1.2,3.2-1.3
		C440.7,295.8,443.8,295.6,445.8,295.6z"/>
</g>
<g>
	<path class="st0" d="M905.9,522.3l1.1,0.4c0.6,0.2,1.1,0.9,1.2,1.4c0.1,0.8,0.8,1.9,1.5,2.4s2.4,1.3,3.8,1.7c1.4,0.4,3.9,0.9,5.5,1
		c1.5,0.2,3.5,0.5,4.3,0.8l1.2,0.4l-0.1,1c-0.1,0.6-0.9,1.7-1.7,2.3c-1.1,0.8-1.6,2-1.3,2.7c0.3,0.5,0.5,1.7,0.5,2.7s0.2,2.4,0.3,3
		c0.2,0.6,0.1,1.3-0.1,1.5c-0.2,0.2-1.1,0.8-2.3,1.1c-1.1,0.4-2.6,0.9-3.2,1.2c-0.6,0.3-2,0.6-3,0.7c-1.1,0.1-2.9,0.6-4,0.9
		c-1,0.4-2.9,1.1-4.2,1.7c-1.3,0.6-3,1.4-3.7,1.8c-0.8,0.5-1.6,1.5-1.7,2.3c-0.1,0.8,0.1,1.8,0.4,2.4c0.2,0.3,0.1,1.1-0.3,1.7
		c-0.4,0.6-0.9,1.4-0.9,1.9c-0.1,0-0.1,0-0.3,0s-0.4,0-0.7-0.1c-0.9-0.2-2.5-0.5-3.6-0.7c-1-0.1-2.6-0.3-3.4-0.3
		c-0.8,0-2.5,0.1-3.7,0.1c-1.2,0.1-3.3,0.2-4.7,0.3c-0.4,0-0.9,0-1.4,0c-1.3,0-2.8-0.1-3.9-0.2c-1.6-0.1-3.8-0.3-4.9-0.3
		c-1.2,0-2.7,0.2-3.4,0.6c-0.5,0.2-1.1,0.3-1.5,0.3c-0.2,0-0.4,0-0.6,0c-0.7,0-1.7,0.1-2.6,0.3c-1,0.2-2.8,0.4-3.9,0.4
		c-0.6,0-0.9-0.1-0.9-0.1c0.2-0.2,0.4-0.3,0.5-0.4c0.2,0.1,0.5,0.1,1.1,0.1c0.5,0,1,0,1.5-0.1c0.7-0.1,1.3-0.4,1.5-0.8
		c0.2-0.3,0.1-0.7-0.2-1c-0.5-0.5-1.5-0.8-2.4-0.8c-0.2,0-0.4,0-0.6,0c-1,0.2-2.5,0.7-3.4,1.2c-0.7,0.4-1.9,0.9-2.6,0.9
		c-0.1,0-0.2,0-0.3,0c-0.6,0-1.2-0.2-1.5-0.3c-0.5-0.3-1.4-0.8-2-1.2c-0.3-0.2-0.7-0.3-1-0.3c-0.6,0-1.1,0.3-1.3,0.7
		c-0.1,0.3-0.7,0.6-1.2,0.6c-0.8,0-2.1,0.4-2.8,0.9s-1.3,1.2-1.2,1.8c0.2,0.6,1.1,1.1,1.8,1.3c0.2,0.1,0.4,0.2,0.4,0.3
		s0,0.2-0.1,0.3c-0.4,0.3-1.1,0.6-1.6,0.6h-0.8l-1-1.9c-0.6-1.2-0.7-2.6-0.5-3.2c0.3-0.7,1.3-1.7,2.1-2.3c0.9-0.6,2.6-1.1,3.9-1.2
		c1.4-0.1,3.6-0.4,4.9-0.8c1.5-0.4,2.7-1.5,2.7-2.4c0-1-1.6-1.6-3.9-1.6c-0.3,0-0.6,0-0.8,0H849c-1.7-0.5-3.7-1.6-4.2-2.4l-0.9-1.4
		l3-1c1.9-0.6,4.8-1.2,6.5-1.3c1.9-0.1,4.1-0.5,5-0.9c0.8-0.4,2.5-0.9,3.7-1.1c0.9-0.2,2.6-0.3,4-0.3c0.3,0,0.7,0,1,0s0.7,0,1.1,0
		c1.5,0,3.2-0.1,4.3-0.3c0.3-0.1,0.7-0.1,1.1-0.1c1.1,0,2.3,0.2,3.1,0.5c0.9,0.3,1.7,0.5,2.2,0.5c0.8,0,0.9-0.3,1-0.5
		s0.9-0.7,2.2-1.2c1.2-0.5,4.5-1.4,7.2-2l2.3-0.6c2-0.6,4.1-1.9,4-2.9c-0.1-0.6,0.2-1.7,0.7-2.4s1.5-1.9,2.1-2.6
		c0.7-0.7,1.6-2.1,2.1-3s1.1-2.3,1.4-3c0.2-0.6,1.2-1.3,2.2-1.6L905.9,522.3z"/>
</g>
<g>
	<path class="st0" d="M939.9,471.8c1,0,2.5,0.2,3.4,0.6l2.1,0.7l11,6.4l-0.9,2.2c-0.6,1.4-1.2,3.9-1.4,5.7c-0.2,1.8-0.3,4.2-0.3,5.4
		c0,1.2-0.1,3.1-0.2,4.3c-0.1,1.1-0.9,3.2-1.8,4.4c-0.9,1.2-2.4,2.6-3.4,2.9c-1.4,0.4-3.1,2.3-3.9,3.9c-0.9,1.7-2.1,3.9-2.7,5
		c-0.6,1-1.7,2.8-2.6,3.9c-0.9,1.1-2.4,2.5-3.4,3.2s-2.5,1.7-3.3,2.1c-0.8,0.5-2.1,1-3,1.2c-1.1,0.3-2.1,1.2-2.4,2.2
		c-0.2,0.8-0.8,2.1-1.4,2.8l-0.9,1.1l-1.1-0.4c-0.9-0.3-2.9-0.7-4.6-0.9c-1.5-0.2-3.9-0.6-5.2-1s-2.9-1.1-3.4-1.5
		c-0.6-0.4-1.1-1.3-1.2-2c-0.1-0.9-0.9-1.8-1.8-2.1l-0.9-0.3l0.4-0.8c0.3-0.6,0.8-1.9,1.2-2.8c0.3-0.9,0.6-2.5,0.6-3.5
		c0-0.9,0.5-1.9,1-2.2c0.3-0.2,1.6-0.4,3.4-0.4c0.5,0,1.1,0,1.6,0.1l3.5-1.3c1.1-1.7,2.6-3.5,3.3-4.1c0.8-0.7,1.8-2.1,2.2-3.2
		c0.4-1,1.5-2.3,2.3-2.9c1-0.7,2.2-2,2.6-2.9c0.4-0.9,0.8-2.6,0.8-3.7s-0.6-2.8-1.4-3.7c-0.8-0.9-1.9-2.1-2.6-2.6
		c0-0.1,0.5-0.3,1.4-0.4c1.6-0.1,3.4-0.7,3.4-1.6c0-0.7-0.6-1.5-1.4-1.9c-0.4-0.2-0.6-0.9-0.4-1.6c0.4-0.9,0-2.3-0.9-3.1
		c-0.1-0.1-0.2-0.3-0.1-0.5c0.1-0.6,0.9-1.4,1.9-2c1.4-0.8,3.4-2.2,3.3-3.2c0-0.2,0.8-0.8,2.3-1c1.6-0.2,3.7-0.5,4.7-0.6
		C939.7,471.8,939.8,471.8,939.9,471.8z"/>
</g>
<g>
	<path class="st0" d="M672.1,546.8l2.8,0.3c1.3,0.2,3.3,0.3,5.1,0.3c0.5,0,1.1,0,1.5,0s0.7,0,1.1,0c1.7,0,3,0.2,3.4,0.3
		c0.3,0.1,0.7,0.1,1.2,0.1c0.8,0,1.8-0.2,2.5-0.4c0.5-0.2,1.2-0.2,1.9-0.2c0.8,0,1.6,0.1,2.3,0.3l5.4,1.5c0.8,0.2,1.8,0.3,2.7,0.3
		c1,0,1.9-0.1,2.6-0.3c0.4-0.1,0.9-0.2,1.4-0.2c0.8,0,1.5,0.1,1.9,0.4c0.9,0.6,2.9,1.4,4.6,1.7c1.5,0.3,3.5,1.1,4.4,1.7
		c1.2,0.8,4.6,1.3,7.2,1.3c2.8,0,6.3-0.1,7.7-0.2c1.5,0,3.5,0.6,4.8,1.4c1.4,0.9,3,2,3.5,2.6c0.5,0.5,1.1,1.7,1.3,2.6
		c0.2,0.9,0.4,2.5,0.4,3.4c0,1,0.3,2.4,0.6,3.2c0.3,0.6,0.4,1.2,0.4,1.6c-0.1,1.1,1,2.6,1.6,3.3c0.9,1.1,2,2.6,2.4,3.3
		s1,1.8,1.3,2.3c0.1,0.2,0.1,0.5,0.1,0.8c0,0.5-0.1,1.2-0.4,1.8c-0.1,0.3-0.2,0.7-0.2,1c0,0.9,0.4,1.7,1.2,2c0.9,0.4,3,0.9,4.8,1.1
		c1.7,0.2,4.1,0.3,5.2,0.3c1.2,0,2.5,0.2,3,0.4c0.3,0.1,0.9,1,0.9,2.1c0,1.2,0.4,2.5,1.1,3.1c0.6,0.5,1.7,0.6,2.5,0.6
		c0.3,0,0.6,0,0.9-0.1c1,0,1.8,0.5,2.1,1.2c0.4,1,1.3,2.3,2,3l0.8,0.8l-0.4,0.3c-0.5,0.3-1.3,0.8-1.8,1.2c-0.3,0.1-0.4,0-0.5-0.2
		c-0.2-0.7-0.8-1.4-1.4-1.7c-0.4-0.2-1.1-0.3-1.5-0.3c-0.1,0-0.3,0-0.4,0c-0.6,0.1-1.2,0.6-1.5,1.1s-0.6,1.1-0.7,1.5
		c0,0.2-0.3,0.3-0.7,0.3s-1.5-0.1-2.3-0.4c-0.3-0.1-0.6-0.1-0.8-0.1c-0.8,0-1.4,0.3-1.5,0.8c-0.2,0.8,1.3,1.4,2.7,1.7
		c1.3,0.3,2.9,0.7,3.5,1c0.1,0.1,0.2,0.1,0.2,0.2c0,0.2-0.1,0.4-0.3,0.6c-0.7,0.5-1.5,1.3-1.8,1.8c-0.2,0.3-1,0.8-1.8,0.9
		c-0.8,0.2-1.3,0.5-1.5,0.9c-0.1,0.2,0,0.4,0.2,0.6l-1.5,0.1c-1.4,0.1-4.1,0.3-5.8,0.4c-0.1,0-3.5,0.2-4.2,0.7
		c-0.3,0.2-1.8,1-3.7,1.8c-1.5,0.7-2.9,1-3.5,1c-0.6-0.2-2.1-1-3.4-1.6c-1.3-0.7-3.7-1.2-5.2-1.2S729,607,728,607
		c-0.2,0-0.3,0-0.5,0c-0.7,0-1.4-0.1-1.6-0.2c-0.6-0.3-2-0.5-3-0.5c-1.3,0-3.4,1-4.6,2c-1.2,1-4.7,2.1-7.7,2.4H708
		c-1.3,1.6-2.1,3.4-2.1,4.4c0,0.7-0.6,1.3-1.3,1.4c-1.3,0-2.9-0.2-4-0.6c-1.2-0.4-3.3-0.6-4.9-0.6c-0.2,0-0.4,0-0.6,0
		c-0.1,0-0.3,0-0.4,0c-1.5,0-3.4-0.4-4.5-0.8c-1.3-0.6-3.7-1.3-5.3-1.5s-3.6-0.6-4.4-0.7c-0.8-0.2-2.3-0.4-3.3-0.6
		c-0.5-0.1-1.3-0.1-2.1-0.1s-1.7,0-2.4,0.1c-0.2,0-0.4,0-0.6,0c-1.4,0-3.1-0.4-4.2-0.9c-1.4-0.6-3.1-1.1-4.1-1.1c-0.5,0-0.9,0-1.4,0
		c-0.8,0-1.9,0-2.7-0.1l-2.1-0.2l-1.5-2.1c-0.9-1.2-1.8-3.3-2.1-4.6c-0.3-1.5-1.4-3-2.6-3.5c-1-0.4-2.6-0.7-3.7-0.7
		c-0.1,0-0.3,0-0.4,0c-0.2,0-0.4,0-0.6,0c-0.9,0-1.7-0.1-1.9-0.2c-0.2-0.1-0.4-0.1-0.7-0.1c-0.6,0-1.3,0.3-1.8,0.7
		c-0.2,0.2-0.7,0.3-1.2,0.3c-0.4,0-0.7-0.1-1.1-0.2l-1.5-0.6v-1c0-0.7,0.2-1.5,0.3-1.7l0.5-0.8c0.5-0.8,1.3-1.9,1.8-2.5
		c0.6-0.7,1-2,0.9-2.9c-0.1-0.8,0.1-2,0.5-2.8s1-1.9,1.3-2.5c0.4-0.7,0.7-2,0.7-3c0-0.9,0.4-1.8,0.7-2c0.7-0.5,0.6-1.7,0.1-2.6
		c-0.4-0.8-0.7-2-0.6-2.7l0.1-1.1l1.4-0.2c1-0.1,2.3-0.5,2.8-0.9s0.8-1.1,0.8-1.7c0-0.5,0.2-1.9,0.5-3.1c0.3-1.2,0.9-2.9,1.5-3.7
		c0.5-0.8,1.7-1.8,2.5-2.3c1-0.5,2.2-1.6,2.8-2.4c0.6-0.8,1.5-2.6,2-4c0.5-1.3,2-2.6,3.2-2.9c1.4-0.4,3.3-0.9,4.3-1.2
		c1.1-0.3,2.8-1.3,3.9-2.3L672.1,546.8z"/>
</g>
<g>
	<path class="st0" d="M760.3,606.5v3.6c0,0.5-0.2,0.7-0.3,0.7c0,0-0.2,0-0.3-0.1c-0.4-0.2-0.9-0.4-1.2-0.4c-0.6,0-1.1,0.3-1.1,1
		s0.6,1.9,1.4,2.7c0.6,0.6,0.7,1.8,0.3,2.7c-0.6,1.1-0.8,2.5-0.5,3.3c0.3,0.7,0.5,1.8,0.5,2.4c0,0.7,0.2,1.7,0.4,2.2
		c0.2,0.4,0.3,1,0.3,1.4c0,0.5,0.3,1.3,0.8,1.8c0.2,0.2,0.1,0.8-0.3,1.2c-0.7,0.6-0.9,1.6-0.4,2.2c0.3,0.4,0.3,1,0,1.4
		s-0.4,0.8-0.2,1c0.1,0.2,0.4,0.3,0.6,0.3c0.1,0,0.3,0,0.4-0.1c0.5-0.2,1.4-0.6,2.1-0.9c0.2-0.1,0.4-0.1,0.6-0.1
		c0.2,0,0.3,0,0.3,0.1c0.2,0.2,0,1.1-0.5,1.8c-0.6,0.8-1.5,2.3-2.2,3.5c-0.7,1.1-1.5,2.9-1.9,4c-0.4,1-1.3,3-2,4.3s-1.7,2.8-2.3,3.4
		c-0.6,0.6-1,1.5-0.7,2c0,0.1-0.4,0.4-1.2,0.7c-1.1,0.3-2.9,1.2-4.2,2.1c-1.2,0.8-3,2-4.1,2.7c-1.1,0.6-2.6,1.6-3.4,2.1
		c-0.8,0.5-2.1,1.8-2.9,2.8l-1.2,1.4l-0.8-0.5c-0.7-0.4-2.1-1.1-3.1-1.4c-0.3-0.1-0.7-0.2-1.1-0.2c-0.9,0-1.7,0.4-2.1,0.9
		c-0.1,0.1-0.2,0.3-0.5,0.3c-0.2,0-0.4-0.1-0.6-0.2c-0.3-0.3-0.4-0.6-0.4-0.8s0.1-0.3,0.2-0.4l2.1-1.6c0.7-0.6,1.3-1.7,1.3-2.6
		c0-0.7,0.4-1.8,0.9-2.3s1.6-1.5,2.4-2.1c0.7-0.5,1-1.2,1-1.8c0-0.3-0.1-0.6-0.3-0.8l-0.5-0.5l-0.2-0.6l-0.3,0.1
		c-0.5,0.1-0.7,0.1-0.9,0.1s-0.4,0-0.6,0c-0.1,0-0.2,0-0.3,0c-0.6,0-1.7,0.2-2.7,0.6c-0.5,0.2-1,0.2-1.5,0.2s-0.8-0.1-1-0.2
		c-0.6-0.4-2-0.8-3.3-1c-1.1-0.1-3.1-0.4-4.3-0.5c-1.1-0.1-1.9-0.6-1.9-1c0-0.8-0.8-1.6-1.7-1.8c-0.5-0.1-0.9-0.5-0.9-0.8
		c0-0.7-0.6-1.3-1.3-1.3c-0.1,0-0.3-0.3-0.3-0.8c0-0.8-0.9-1.7-2.1-2.1c-0.9-0.3-1.5-1-1.5-1.4c0-0.8-1-1.6-2.1-1.7
		c-0.7-0.1-1.6-0.5-1.9-0.9c-0.4-0.7-1.4-1.3-2.2-1.5c-0.6-0.1-2-0.6-3.1-1s-2.2-1-2.5-1.3s-0.8-0.4-1.5-0.4c-0.6,0-1.2,0.1-1.8,0.3
		c-0.3,0.1-0.6,0.1-0.9,0.1c-0.5,0-0.9-0.1-1.1-0.3c-0.4-0.6-1.4-1.6-2.3-2.3c-0.8-0.7-2.1-1.5-2.7-1.8c-0.4-0.2-1.1-0.4-1.7-0.4
		c-0.4,0-0.9,0.1-1.2,0.2c-0.2,0.1-0.5,0.1-0.8,0.1c-0.5,0-1-0.1-1.4-0.2c-0.8-0.3-2.2-0.6-3.3-0.6c-0.2,0-0.3,0-0.5,0s-0.4,0-0.6,0
		c-1,0-2.1-0.1-2.6-0.3c-0.9-0.2-2.3-0.4-3.2-0.4c-0.7,0-1.8-0.3-2.4-0.6c-0.7-0.4-1.8-0.5-2.6-0.5c-0.3,0-0.6,0-0.9,0.1
		c-0.2,0-0.4,0-0.6,0c-0.8,0-1.4-0.2-1.6-0.4c-0.2-0.3-0.7-0.4-1.4-0.4c-0.8,0-1.9,0.2-2.9,0.5c-1.2,0.4-2.7,0.7-3.8,0.7
		c-0.3,0-0.5,0-0.7,0l-1.3-0.3l0.6-1.4c0.5-1.1,0.8-2.5,0.7-3.2s-0.2-1.7-0.3-2.3c-0.1-0.5-0.1-2.1,0-3.4c0.1-1.3,0.5-3.1,0.8-3.8
		l0.5-1.2l2,0.2c0.8,0.1,1.8,0.1,2.7,0.1c0.5,0,1,0,1.3,0c0.9,0,2.4,0.4,3.7,1c1.2,0.6,3.2,1,4.7,1c0.3,0,0.5,0,0.8,0
		c0.7-0.1,1.5-0.1,2.3-0.1s1.5,0,1.9,0.1c0.9,0.2,2.4,0.4,3.2,0.6c0.8,0.2,2.8,0.5,4.4,0.7c1.5,0.2,3.8,0.9,5,1.4s3.3,0.9,5,0.9
		c0.2,0,0.3,0,0.5,0s0.4,0,0.6,0c1.5,0,3.3,0.2,4.4,0.5c1.3,0.4,3,0.7,4.1,0.7c0.2,0,0.3,0,0.4,0c1.2-0.1,2.2-1.1,2.2-2.2
		c0-0.8,0.8-2.4,1.7-3.5h2.1c3.3-0.3,7-1.5,8.3-2.6c1.3-1,3-1.8,3.8-1.8c1.1,0,2.1,0.2,2.4,0.4c0.5,0.3,1.5,0.4,2.2,0.4
		c0.2,0,0.4,0,0.6,0c0.9-0.1,2.9-0.1,4.3-0.1c1.4,0,3.5,0.5,4.7,1.1c1.3,0.7,2.7,1.4,3.3,1.6c0.2,0.1,0.4,0.1,0.7,0.1
		c0.9,0,2.5-0.5,4.1-1.1c1.6-0.7,3.5-1.7,3.9-2c0.2-0.1,1.6-0.4,3.5-0.5c1.8-0.1,4.4-0.2,5.9-0.4L760.3,606.5z"/>
</g>
<g>
	<path class="st0" d="M663.9,625.6c0.4,0,0.5,0.1,0.6,0.1c0.4,0.4,1.4,0.7,2.4,0.7c0.2,0,0.5,0,0.7,0s0.5,0,0.7,0
		c0.8,0,1.7,0.1,2,0.4c0.7,0.4,2,0.7,3,0.7c0.8,0,2.1,0.2,2.8,0.4s1.9,0.3,3,0.3c0.3,0,0.5,0,0.7,0c1.4,0,2.6,0.2,3.2,0.5
		c0.5,0.2,1.2,0.3,1.9,0.3c0.5,0,1-0.1,1.3-0.2c0.2-0.1,0.4-0.1,0.7-0.1c0.4,0,0.8,0.1,1.1,0.2c0.6,0.3,1.8,1.1,2.6,1.7
		c0.8,0.6,1.7,1.5,2.1,2.1c0.3,0.5,1.1,0.8,2,0.8c0.4,0,0.9-0.1,1.4-0.2c0.5-0.2,1-0.2,1.4-0.2s0.6,0.1,0.7,0.1
		c0.5,0.4,1.8,1.1,2.8,1.5c1.1,0.4,2.6,0.9,3.3,1c0.5,0.1,1.2,0.6,1.5,1.1c0.4,0.7,1.6,1.3,2.7,1.4c0.6,0.1,1.2,0.5,1.2,0.9
		c0,0.8,0.9,1.7,2.1,2.1c0.9,0.3,1.5,1,1.5,1.4c0,0.9,0.6,1.5,1.4,1.5c0.1,0,0.3,0.2,0.3,0.5c0,0.7,0.8,1.3,1.7,1.5
		c0.5,0.1,0.9,0.6,0.9,1c0,0.8,1.2,1.6,2.8,1.8c1.3,0.1,3.2,0.4,4.3,0.5s2.3,0.5,2.8,0.8s1.1,0.4,1.6,0.4c0.6,0,1.3-0.1,1.9-0.3
		c1-0.3,1.9-0.5,2.3-0.5c0.2,0,0.5,0.1,0.8,0.1l1.1,0.6c0.3,0.3,0,1-0.6,1.5c-0.9,0.7-2,1.7-2.5,2.2c-0.6,0.6-1.1,1.8-1.1,2.7
		c0,0.7-0.5,1.7-1,2.1l-2.1,1.6c-0.7,0.6-0.7,1.6,0.2,2.3c0.4,0.3,0.9,0.5,1.3,0.5c0.6,0,1.1-0.2,1.4-0.7c0.2-0.3,0.7-0.5,1.2-0.5
		c0.2,0,0.4,0,0.6,0.1c0.9,0.3,2.2,0.9,2.9,1.3l0.9,0.5l-1.5,1.3c-1,0.9-2.6,2.7-3.5,3.9s-2.4,3.6-3.4,5.3c-0.9,1.7-2.4,4.7-3.3,6.7
		c-0.9,1.9-2.9,4.7-4.4,6.1c-1.6,1.5-3.8,3.9-4.9,5.4c-1.1,1.4-2.7,3.2-3.6,3.9c-0.9,0.7-2.5,2-3.5,3c-1,0.9-3,2.3-4.4,3.1
		c-1.5,0.8-3.8,2.2-5.3,2.9c-1.5,0.8-3.7,2-5,2.8s-2.7,1.7-3.2,2.1c-0.5,0.4-1.6,1.3-2.5,2.1s-2.2,1.7-2.8,2.1
		c-0.7,0.4-1.8,1.5-2.4,2.3c-0.7,0.8-1.7,2.8-2.2,4.5c-0.6,1.7-1.5,4.1-2,5.5c-0.6,1.5-1.5,3-2.1,3.4c-0.6,0.6-1.8,1.6-2.7,2.3
		c-0.6,0.5-1.5,1.2-2.2,1.7c0.6-0.8,1.4-1.6,1.8-2c0.6-0.4,1.4-1.1,1.9-1.6c0.5-0.4,1.2-1.4,1.6-2c0.4-0.6,0.9-1.9,1.2-2.7
		c0.2-0.6,0.1-1.1-0.2-1.4c-0.2-0.2-0.5-0.3-0.8-0.3c-0.3-0.1-0.2-0.5,0.1-0.9c0.8-1.1,1.4-2.6,1.4-3.4c0-0.8-0.5-1.9-1.1-2.5
		c-0.4-0.5-0.6-1.5-0.4-2.2c0.2-0.5,0.1-0.8-0.1-1.1c-0.2-0.2-0.4-0.2-0.6-0.2c-0.3,0-0.7,0.1-1.1,0.4c-0.8,0.5-1.7,1.5-1.7,2.2
		c0,0.3-0.5,0.8-1.2,1c-1,0.3-2,1.2-2.3,1.9c-0.2,0.6-0.9,1.3-1.5,1.6l-0.9,0.5l-1.9-0.9c-1.2-0.6-3.3-1.8-4.8-2.8
		c-1.4-0.9-2.7-2.5-3-3.4c-0.3-1-1.3-2.6-2.3-3.6c-1-0.9-2.8-2.2-4.1-2.8s-3.6-1.5-5.2-2.2c-1.5-0.6-3.4-1.9-4.3-2.8
		c-1-1-3-2.3-4.5-2.8s-3.4-1.2-4.3-1.5l-3.3-1.3c-0.9-0.3-2.4-1.3-3.3-2.2c-1-0.9-2.4-2.4-3.1-3.3c-0.8-1-2.4-1.9-3.5-2.1
		c-1.5,0-3,0.8-3.9,1.8c-0.7,0.9-1.8,1.4-2.4,1.4c-0.9-0.2-1.6-0.9-1.6-1.5c-0.1-0.8-0.7-2.2-1.4-3.1c-0.7-0.9-2.5-2.4-4.1-3.4
		c-1.5-1-3.8-2.5-5.1-3.4s-3.5-2.5-4.8-3.4c-1.2-0.8-2.8-1.4-4.1-1.4c-0.4,0-0.7,0-1,0.1c-1.2,0.4-2.7,1.2-3.4,1.8s-1.6,1.1-2,1.3
		c0,0-0.3,0.1-1.4,0.1c-0.7,0-1.6-0.1-2.3-0.2l-2.1-0.3l1.1-1c0.9-0.8,2.2-1.9,2.8-2.4c0.7-0.6,1.3-1.6,1.3-2.4c0-0.4,0.8-1,1.9-1.1
		c1.4-0.2,3.6-1.6,4.9-3.3c1.2-1.5,3-3.5,4-4.4s2.9-2.6,4.2-3.8s2.9-2.8,3.7-3.6c0.7-0.8,2.5-2.4,4-3.5c1.5-1.2,3.5-3.1,4.5-4.3
		c1-1.1,2.4-1.9,3-2c1.1-0.1,1.9-1,1.8-2c-0.1-0.6,0.9-1.9,2.3-2.8c1.5-1,3.4-2.4,4.2-3.1c0.7-0.6,2.4-1.3,3.6-1.5
		c1.4-0.2,3.3-1,4.2-1.6s1.9-1.6,2.1-2.2c0.1-0.3,0.9-0.9,1.9-1.1c1-0.3,2.2-0.8,2.6-1.2c0.1-0.1,0.7-0.4,1.2-0.4
		c0.8,0,1.8-0.3,2.4-0.8c0.3-0.2,1-0.4,1.6-0.4c1.5,0,2.6-0.4,3.1-1.1c0.4-0.5,1.1-0.9,1.3-1c0.7-0.1,1.8-0.8,2.6-1.5s2-1.1,2.6-1.1
		h1.4l1.8,0.4c0.3,0.1,0.6,0.1,0.9,0.1c1.2,0,2.9-0.3,4.2-0.7C662.3,625.8,663.2,625.6,663.9,625.6z"/>
</g>
</svg>
